<svg preserveAspectRatio="none" width="100%" height="100%" overflow="visible" style="display: block;" viewBox="0 0 12.0982 8.06548" fill="none" xmlns="http://www.w3.org/2000/svg">
<g id="contents">
<path id="background" fill-rule="evenodd" clip-rule="evenodd" d="M0 0V8.06546H12.0982V0H0Z" fill="var(--fill-0, #BF2714)"/>
<g id="Object">
<mask id="mask0_0_1156" style="mask-type:luminance" maskUnits="userSpaceOnUse" x="0" y="0" width="13" height="9">
<path id="background_2" fill-rule="evenodd" clip-rule="evenodd" d="M0 0V8.06546H12.0982V0H0Z" fill="var(--fill-0, white)"/>
</mask>
<g mask="url(#mask0_0_1156)">
<path id="top" fill-rule="evenodd" clip-rule="evenodd" d="M0 -0.672122V4.03273H12.0982V-0.672122H0Z" fill="var(--fill-0, #3D58DB)"/>
</g>
</g>
<path id="triangle" fill-rule="evenodd" clip-rule="evenodd" d="M0 0V8.06546L6.80523 4.03273L0 0Z" fill="var(--fill-0, #F7FCFF)"/>
<mask id="mask1_0_1156" style="mask-type:luminance" maskUnits="userSpaceOnUse" x="0" y="0" width="7" height="9">
<path id="triangle_2" fill-rule="evenodd" clip-rule="evenodd" d="M0 0V8.06546L6.80523 4.03273L0 0Z" fill="var(--fill-0, white)"/>
</mask>
<g mask="url(#mask1_0_1156)">
<path id="Shape sp-1695-0" fill-rule="evenodd" clip-rule="evenodd" d="M5.14364 3.66984L5.62601 3.83519L5.913 3.53498L5.92062 3.93649L6.36457 4.06484L5.89727 4.20584L5.92807 4.5748L5.62029 4.29217L5.13651 4.37396L5.42213 4.04844L5.14364 3.66984Z" fill="var(--fill-0, #FECA00)"/>
<path id="Shape sp-1695-0_2" fill-rule="evenodd" clip-rule="evenodd" d="M0.606823 5.6862L1.05021 5.86045L1.37619 5.55134L1.34482 5.96175L1.82775 6.08121L1.32148 6.2311L1.39125 6.59116L1.03876 6.33388L0.599692 6.39033L0.846336 6.0737L0.606823 5.6862Z" fill="var(--fill-0, #FECA00)"/>
<path id="Shape sp-1695-0_3" fill-rule="evenodd" clip-rule="evenodd" d="M0.606823 1.65347L1.09746 1.81418L1.37619 1.51861L1.39207 1.91548L1.82775 2.04848L1.36873 2.18483L1.39125 2.55843L1.08601 2.28761L0.599692 2.3576L0.89359 2.02743L0.606823 1.65347Z" fill="var(--fill-0, #FECA00)"/>
<path id="Oval 43" fill-rule="evenodd" clip-rule="evenodd" d="M3.07048 4.88391C3.59249 4.88391 4.01565 4.50776 4.01565 4.04376C4.01565 3.57975 3.59249 3.20361 3.07048 3.20361C2.54848 3.20361 2.12531 3.57975 2.12531 4.04376C2.12531 4.50776 2.54848 4.88391 3.07048 4.88391Z" fill="var(--fill-0, #FECA00)"/>
<path id="Combined Shape" d="M3.12551 4.62966C3.16219 4.63512 3.19095 4.66191 3.19581 4.69469L3.23259 5.26048C3.24299 5.33065 3.18757 5.39518 3.10863 5.40442C3.10161 5.40523 3.09413 5.40514 3.08704 5.40503C3.00762 5.4036 2.94407 5.34556 2.94546 5.27492C2.94559 5.26873 2.94675 5.26259 2.94789 5.25648L3.02853 4.69212C3.03623 4.6512 3.07948 4.62288 3.12551 4.62966ZM2.50061 4.4431C2.53857 4.41903 2.59158 4.42658 2.61875 4.46022C2.64033 4.48711 2.64013 4.52393 2.61755 4.55015L2.2011 5.00071C2.15264 5.05679 2.06161 5.06733 1.99846 5.02431C1.99288 5.02051 1.9877 5.01608 1.98281 5.0116C1.9275 4.96069 1.92906 4.87901 1.98633 4.82985C1.99141 4.82551 1.99719 4.8218 2.00292 4.81816L2.50061 4.4431ZM2.94801 4.68222C2.97264 4.68827 2.98549 4.70841 2.97965 4.72821L2.90833 4.96249C2.90001 4.98927 2.86944 5.00563 2.83876 5.00023C2.83681 4.99989 2.83488 4.99945 2.83299 4.99889C2.80748 4.99128 2.79361 4.96683 2.80204 4.94414L2.88985 4.71187C2.89799 4.69031 2.92298 4.67755 2.94801 4.68222ZM3.26627 4.70787C3.29374 4.70357 3.31811 4.71649 3.32561 4.73798L3.4041 4.97276C3.41179 4.99576 3.39727 5.02063 3.3714 5.02747C3.36948 5.02797 3.36744 5.02779 3.36547 5.02808C3.33471 5.0325 3.30545 5.01552 3.29805 4.98867L3.23531 4.75291C3.22995 4.73278 3.24367 4.71271 3.26627 4.70787ZM3.61907 4.43142C3.64933 4.41238 3.69043 4.41272 3.71985 4.43279L4.20909 4.81246C4.27226 4.85554 4.28455 4.93604 4.23609 4.99219C4.23186 4.99707 4.22724 5.00171 4.22227 5.006C4.16499 5.05517 4.0731 5.05399 4.01779 5.00308C4.01288 4.99855 4.00836 4.99366 4.00424 4.98854L3.59903 4.53681C3.5719 4.503 3.58104 4.45553 3.61907 4.43142ZM2.65646 4.60344C2.67949 4.61778 2.68646 4.64326 2.67428 4.66325L2.54278 4.87813C2.52992 4.89923 2.5005 4.90698 2.47677 4.89555C2.47495 4.89468 2.47274 4.89431 2.47107 4.89324C2.44575 4.87695 2.43876 4.84547 2.45514 4.82181L2.5987 4.61551C2.61097 4.59825 2.63679 4.5929 2.65646 4.60344ZM3.59459 4.59327L3.72891 4.80315C3.74441 4.8273 3.73656 4.85792 3.71065 4.87344C3.70906 4.87438 3.70725 4.87528 3.70555 4.87605C3.68149 4.88669 3.65157 4.87853 3.63944 4.85727L3.51668 4.63735C3.50548 4.6171 3.51277 4.59216 3.53395 4.57972C3.55638 4.56827 3.58303 4.57526 3.59459 4.59327ZM2.45226 4.3853C2.46502 4.40516 2.45743 4.42789 2.43733 4.43818L2.20063 4.55848C2.17343 4.57225 2.13905 4.56495 2.12163 4.54183C2.12049 4.54031 2.11903 4.53836 2.11811 4.53672C2.10655 4.51541 2.11646 4.49007 2.14025 4.4794L2.3869 4.3695C2.4098 4.35938 2.43827 4.36627 2.45226 4.3853ZM3.84628 4.38195L4.08881 4.49877C4.1125 4.51018 4.12141 4.53665 4.10866 4.55772C4.10769 4.55931 4.10653 4.56094 4.10535 4.56241C4.08713 4.58486 4.05243 4.59135 4.02584 4.57703L3.79398 4.44914C3.77414 4.43824 3.76816 4.41506 3.78042 4.39742C3.7965 4.37742 3.82402 4.37146 3.84628 4.38195ZM2.25767 4.11983C2.28034 4.1151 2.30303 4.12728 2.30839 4.14744C2.31312 4.17184 2.29811 4.1935 2.27388 4.20008L2.00983 4.26976C1.98395 4.27659 1.95615 4.26351 1.94846 4.24051C1.94792 4.23885 1.94722 4.23722 1.9469 4.23552C1.94189 4.20803 1.96233 4.18118 1.99281 4.17478L2.25767 4.11983ZM2.32606 3.93526C2.37201 3.9421 2.40314 3.98093 2.39565 4.02177C2.38952 4.05433 2.35999 4.07942 2.32319 4.08379L1.68778 4.13038C1.60903 4.1394 1.53641 4.09055 1.526 4.02054C1.52509 4.01442 1.52541 4.0081 1.5255 4.00192C1.52689 3.93126 1.5921 3.87493 1.67155 3.87599C1.67862 3.8761 1.68602 3.8763 1.69299 3.87732L2.32606 3.93526ZM4.18285 4.17492C4.21306 4.18227 4.23209 4.20899 4.22601 4.2363C4.22564 4.23792 4.22523 4.23954 4.22465 4.24111C4.21607 4.26383 4.18831 4.27615 4.16275 4.26857L3.90148 4.19069C3.87723 4.18346 3.8631 4.16099 3.86835 4.13874C3.87527 4.11683 3.89816 4.10524 3.92051 4.11068L4.18285 4.17492ZM4.51296 3.87553C4.59171 3.86634 4.66411 3.91546 4.67475 3.98537C4.67568 3.99166 4.67626 3.99869 4.67614 4.00503C4.67463 4.0757 4.60865 4.13213 4.52911 4.1309C4.52201 4.13078 4.51475 4.12963 4.50775 4.12859L3.87881 4.06797C3.83298 4.06109 3.80182 4.02223 3.80922 3.98147C3.81536 3.9489 3.84495 3.92283 3.88176 3.91848L4.51296 3.87553ZM2.30339 3.81254C2.32749 3.81973 2.34158 3.84141 2.3366 3.86352C2.32985 3.88572 2.30686 3.89803 2.28436 3.89256L2.02203 3.82832C1.99181 3.82097 1.97278 3.79425 1.97886 3.76693C1.97923 3.76532 1.97965 3.76369 1.98022 3.76213C1.98879 3.73944 2.01659 3.72715 2.04213 3.73467L2.30339 3.81254ZM4.19602 3.73354C4.22181 3.72687 4.24875 3.73981 4.25641 3.76273C4.25696 3.76439 4.25765 3.76601 4.25797 3.76772C4.26296 3.79511 4.24333 3.82199 4.21303 3.82852L3.9472 3.88341C3.92458 3.88804 3.90183 3.87591 3.89649 3.8558C3.8917 3.83125 3.9075 3.80968 3.93196 3.80322L4.19602 3.73354ZM2.18 3.42626L2.41089 3.5541C2.43074 3.565 2.43769 3.58824 2.42543 3.60588C2.40936 3.62615 2.38098 3.63188 2.35859 3.62129L2.11606 3.50447C2.09243 3.49308 2.08358 3.46657 2.09622 3.44551C2.09715 3.44398 2.09838 3.44225 2.09952 3.44083C2.11785 3.41825 2.15335 3.41163 2.18 3.42626ZM1.9349 3.00601C1.99206 2.95707 2.0831 2.95832 2.1384 3.00887C2.14336 3.01344 2.14773 3.01922 2.15187 3.02439L2.60584 3.46643C2.63297 3.50024 2.62383 3.54771 2.5858 3.57182C2.55571 3.59067 2.51534 3.59026 2.486 3.57051L1.94703 3.20047C1.88388 3.1574 1.87259 3.07695 1.921 3.0208C1.92535 3.01576 1.92977 3.01041 1.9349 3.00601ZM4.00424 3.44476C4.03145 3.43096 4.06581 3.43827 4.08324 3.46141C4.08434 3.46287 4.08595 3.46398 4.08684 3.46554C4.09884 3.487 4.08871 3.51312 4.06462 3.52384L3.81797 3.63373C3.79525 3.64371 3.76763 3.6367 3.75358 3.61799C3.7407 3.59805 3.74736 3.57435 3.76762 3.56408L4.00424 3.44476ZM4.21243 3.01452C4.21809 3.01838 4.22409 3.02273 4.22905 3.02729C4.28418 3.07821 4.28176 3.15987 4.22455 3.20898C4.21963 3.21317 4.21448 3.2172 4.20894 3.22073L3.70427 3.56014C3.6663 3.58421 3.61329 3.57666 3.58612 3.54301C3.56453 3.5161 3.56566 3.47937 3.58829 3.45314L4.01076 3.03818C4.05922 2.98238 4.14938 2.97173 4.21243 3.01452ZM2.56543 3.14597L2.68819 3.36589C2.69941 3.38619 2.69221 3.41111 2.67092 3.42352C2.64849 3.43497 2.62282 3.42803 2.61126 3.41002L2.47596 3.20008C2.4605 3.17599 2.46843 3.14535 2.49422 3.1298C2.49596 3.12876 2.49843 3.12807 2.5003 3.12724C2.52433 3.11671 2.55333 3.12474 2.56543 3.14597ZM3.10407 2.62376C3.18368 2.625 3.24696 2.68408 3.24557 2.75485C3.24543 2.76103 3.24526 2.76724 3.24412 2.77335L3.17732 3.31118C3.16961 3.35214 3.12544 3.38043 3.07936 3.37357C3.04269 3.36812 3.01489 3.34138 3.01004 3.30861L2.95844 2.76928C2.94806 2.69926 3.00371 2.63479 3.0824 2.62535C3.08942 2.62453 3.09698 2.62366 3.10407 2.62376ZM3.72811 3.10768C3.72995 3.10857 3.7321 3.10891 3.7338 3.11C3.7592 3.12629 3.76619 3.15774 3.74973 3.18142L3.60625 3.38676C3.59406 3.4043 3.56822 3.41046 3.54841 3.39979C3.52538 3.38546 3.51841 3.35998 3.53059 3.33999L3.66209 3.1251C3.67495 3.10401 3.70437 3.09626 3.72811 3.10768ZM3.37188 3.00434C3.39745 3.01197 3.41137 3.03637 3.40283 3.0591L3.31502 3.29137C3.30687 3.3129 3.28188 3.32568 3.25686 3.32102C3.23214 3.3149 3.21917 3.29395 3.22529 3.27405L3.29751 3.04081C3.30586 3.0141 3.33549 2.99766 3.36611 3.00301C3.36804 3.00334 3.37001 3.0038 3.37188 3.00434ZM2.83948 2.97418C2.87038 2.96974 2.90056 2.98756 2.90779 3.01463L2.96957 3.25033C2.97493 3.2705 2.96129 3.29059 2.9386 3.29536C2.91091 3.2997 2.88662 3.28608 2.87934 3.26429L2.80084 3.0295C2.79338 3.00662 2.80777 2.98261 2.83347 2.97577C2.83542 2.97525 2.83747 2.97448 2.83948 2.97418Z" fill="var(--fill-0, #FECA00)"/>
</g>
</g>
</svg>
