<svg preserveAspectRatio="none" width="100%" height="100%" overflow="visible" style="display: block;" viewBox="0 0 12.0982 8.06548" fill="none" xmlns="http://www.w3.org/2000/svg">
<g id="contents">
<path id="background" fill-rule="evenodd" clip-rule="evenodd" d="M0 0V8.06546H12.0982V0H0Z" fill="var(--fill-0, #F7FCFF)"/>
<mask id="mask0_0_1198" style="mask-type:luminance" maskUnits="userSpaceOnUse" x="0" y="0" width="13" height="9">
<path id="background_2" fill-rule="evenodd" clip-rule="evenodd" d="M0 0V8.06546H12.0982V0H0Z" fill="var(--fill-0, white)"/>
</mask>
<g mask="url(#mask0_0_1198)">
<path id="top" fill-rule="evenodd" clip-rule="evenodd" d="M0 0V4.03273H12.0982V0H0Z" fill="var(--fill-0, #E31D1C)"/>
<path id="mark" d="M1.45566 2.14189C1.45577 0.725372 2.83392 0.620758 3.35312 0.737591C3.35312 0.737591 2.28488 1.10727 2.28476 2.14189C2.28476 3.17664 3.35312 3.55888 3.35312 3.55888C2.81308 3.82605 1.45566 3.55857 1.45566 2.14189ZM4.07968 2.81376H4.42441L4.16952 3.06669L4.24667 3.38798L3.93319 3.22294L3.62655 3.38798L3.69687 3.06669L3.44101 2.82646L3.78671 2.81376L3.93319 2.51396L4.07968 2.81376ZM5.19296 2.79521H5.53769L5.28378 3.04814L5.35995 3.36943L5.04648 3.20536L4.74081 3.36943L4.81015 3.04814L4.55527 2.8079L4.90097 2.79521L5.04648 2.4954L5.19296 2.79521ZM3.68905 2.01786H4.03378L3.7789 2.27079L3.85605 2.59208L3.54257 2.42704L3.23593 2.59208L3.30624 2.27079L3.05038 2.03056L3.39609 2.01786L3.54257 1.71806L3.68905 2.01786ZM5.71444 2.00322H6.05917L5.80527 2.25615L5.88144 2.57743L5.56796 2.4124L5.26132 2.57743L5.33163 2.25615L5.07675 2.01591L5.42245 2.00322L5.56796 1.70341L5.71444 2.00322ZM4.7203 1.36454H5.06503L4.81015 1.61845L4.8873 1.93876L4.57382 1.7747L4.26718 1.93876L4.33749 1.61845L4.08163 1.37822L4.42734 1.36454L4.57382 1.06572L4.7203 1.36454Z" fill="var(--fill-0, #F1F9FF)"/>
</g>
</g>
</svg>
