<svg preserveAspectRatio="none" width="100%" height="100%" overflow="visible" style="display: block;" viewBox="0 0 34.113 9.776" fill="none" xmlns="http://www.w3.org/2000/svg">
<g id="Fast">
<path d="M0 9.616C0.0746667 9.616 0.149333 9.54133 0.224 9.392C0.298667 9.24267 0.336 8.99733 0.336 8.656V0.976C0.336 0.634666 0.298667 0.394666 0.224 0.256C0.149333 0.106666 0.0746667 0.0266663 0 0.0159998H9.008V0.335999L9.328 1.872C9.06133 1.75467 8.592 1.632 7.92 1.504C7.248 1.36533 6.43733 1.296 5.488 1.296H2.784C2.464 1.296 2.272 1.32267 2.208 1.376C2.15467 1.41867 2.128 1.552 2.128 1.776V3.6C2.128 3.83467 2.15467 3.97333 2.208 4.016C2.272 4.05867 2.45867 4.08 2.768 4.08H5.408C6.02667 4.08 6.52267 4.048 6.896 3.984C7.28 3.90933 7.53067 3.83467 7.648 3.76C7.60533 3.89867 7.55733 4.064 7.504 4.256C7.45067 4.448 7.408 4.64 7.376 4.832C7.344 5.024 7.328 5.2 7.328 5.36H2.768C2.45867 5.36 2.272 5.38133 2.208 5.424C2.15467 5.456 2.128 5.59467 2.128 5.84V8.656C2.128 9.008 2.16533 9.25867 2.24 9.408C2.31467 9.54667 2.38933 9.616 2.464 9.616H0Z" fill="var(--fill-0, #03102F)"/>
<path d="M12.6445 9.776C11.4818 9.776 10.6658 9.568 10.1965 9.152C9.72717 8.72533 9.4925 8.15467 9.4925 7.44C9.4925 6.93867 9.61517 6.512 9.8605 6.16C10.1165 5.79733 10.4952 5.52 10.9965 5.328C11.5085 5.136 12.1538 5.04 12.9325 5.04C13.4872 5.04 13.9672 5.08267 14.3725 5.168C14.7885 5.24267 15.1245 5.33333 15.3805 5.44C15.6472 5.54667 15.8338 5.63733 15.9405 5.712C15.9405 5.08267 15.8605 4.576 15.7005 4.192C15.5512 3.808 15.3058 3.53067 14.9645 3.36C14.6232 3.17867 14.1592 3.088 13.5725 3.088C12.9432 3.088 12.3778 3.16267 11.8765 3.312C11.3858 3.45067 10.9912 3.60533 10.6925 3.776C10.3938 3.936 10.2072 4.05333 10.1325 4.128V3.808L9.9725 2.608C10.0685 2.56533 10.2765 2.496 10.5965 2.4C10.9165 2.29333 11.3378 2.19733 11.8605 2.112C12.3832 2.016 12.9965 1.968 13.7005 1.968C14.5965 1.968 15.3272 2.096 15.8925 2.352C16.4685 2.59733 16.8898 2.98133 17.1565 3.504C17.4338 4.016 17.5725 4.66667 17.5725 5.456V8.656C17.5725 8.95467 17.6045 9.17333 17.6685 9.312C17.7432 9.44 17.8178 9.54133 17.8925 9.616H15.9405V9.136L15.9725 8.832L15.9405 8.816C15.7698 8.976 15.5672 9.11467 15.3325 9.232C15.0978 9.34933 14.8418 9.45067 14.5645 9.536C14.2872 9.61067 13.9832 9.66933 13.6525 9.712C13.3325 9.75467 12.9965 9.776 12.6445 9.776ZM13.1725 8.64C13.7485 8.64 14.2445 8.58133 14.6605 8.464C15.0765 8.34667 15.3912 8.192 15.6045 8C15.8285 7.79733 15.9405 7.568 15.9405 7.312C15.9405 6.992 15.7272 6.72 15.3005 6.496C14.8845 6.272 14.2338 6.16 13.3485 6.16C12.5272 6.16 11.9458 6.26667 11.6045 6.48C11.2738 6.69333 11.1085 7.01333 11.1085 7.44C11.1085 7.856 11.2685 8.16 11.5885 8.352C11.9192 8.544 12.4472 8.64 13.1725 8.64Z" fill="var(--fill-0, #03102F)"/>
<path d="M23.42 9.776C22.4173 9.776 21.5747 9.72267 20.892 9.616C20.22 9.50933 19.7613 9.40267 19.516 9.296V8.976L19.18 7.6C19.4573 7.824 19.9427 8.05867 20.636 8.304C21.34 8.53867 22.1933 8.656 23.196 8.656C23.8573 8.656 24.3533 8.61333 24.684 8.528C25.0147 8.432 25.2333 8.30933 25.34 8.16C25.4467 8 25.5 7.824 25.5 7.632C25.5 7.408 25.42 7.232 25.26 7.104C25.1107 6.96533 24.8227 6.85333 24.396 6.768C23.98 6.672 23.3613 6.576 22.54 6.48C21.644 6.37333 20.9507 6.21867 20.46 6.016C19.98 5.81333 19.6493 5.55733 19.468 5.248C19.2867 4.928 19.196 4.54933 19.196 4.112C19.196 3.77067 19.2867 3.43467 19.468 3.104C19.6493 2.77333 19.9853 2.50133 20.476 2.288C20.9773 2.07467 21.6867 1.968 22.604 1.968C23.596 1.968 24.428 2.02133 25.1 2.128C25.7827 2.23467 26.2467 2.34133 26.492 2.448V2.768L26.812 3.984C26.5453 3.792 26.06 3.59467 25.356 3.392C24.652 3.18933 23.804 3.088 22.812 3.088C22.0227 3.088 21.4947 3.17867 21.228 3.36C20.9613 3.53067 20.828 3.75467 20.828 4.032C20.828 4.192 20.86 4.336 20.924 4.464C20.988 4.58133 21.116 4.688 21.308 4.784C21.5107 4.88 21.8093 4.96533 22.204 5.04C22.6093 5.11467 23.148 5.18933 23.82 5.264C24.7267 5.36 25.4147 5.50933 25.884 5.712C26.3533 5.91467 26.6733 6.17067 26.844 6.48C27.0253 6.77867 27.116 7.13067 27.116 7.536C27.116 7.97333 26.9933 8.36267 26.748 8.704C26.5133 9.03467 26.124 9.296 25.58 9.488C25.036 9.68 24.316 9.776 23.42 9.776Z" fill="var(--fill-0, #03102F)"/>
<path d="M31.521 9.776C30.785 9.776 30.2517 9.62133 29.921 9.312C29.5903 8.992 29.425 8.47467 29.425 7.76V3.248H27.985V2.128C28.4757 2.128 28.8597 2.06933 29.137 1.952C29.4143 1.824 29.6117 1.60533 29.729 1.296C29.8463 0.986666 29.905 0.554667 29.905 0H31.057V2.128H34.113C34.0383 2.23467 33.9637 2.39467 33.889 2.608C33.825 2.81067 33.793 3.024 33.793 3.248H31.057V7.52C31.057 8.01067 31.1477 8.32 31.329 8.448C31.5103 8.576 31.7397 8.64 32.017 8.64C32.2837 8.64 32.529 8.58667 32.753 8.48C32.9877 8.36267 33.1903 8.224 33.361 8.064C33.5423 7.904 33.681 7.74933 33.777 7.6V8.096L33.937 9.008C33.8303 9.11467 33.665 9.232 33.441 9.36C33.217 9.47733 32.945 9.57333 32.625 9.648C32.305 9.73333 31.937 9.776 31.521 9.776Z" fill="var(--fill-0, #03102F)"/>
</g>
</svg>
