<svg preserveAspectRatio="none" width="100%" height="100%" overflow="visible" style="display: block;" viewBox="0 0 17.25 11.25" fill="none" xmlns="http://www.w3.org/2000/svg">
<path id="Icon" d="M3.625 3.625V7.125M13.625 3.625V7.125M2.125 10.625H15.125C15.9534 10.625 16.625 9.95343 16.625 9.125V2.125C16.625 1.29657 15.9534 0.625 15.125 0.625H2.125C1.29657 0.625 0.625 1.29657 0.625 2.125V9.125C0.625 9.95343 1.29657 10.625 2.125 10.625ZM10.625 5.625C10.625 6.72957 9.72957 7.625 8.625 7.625C7.52043 7.625 6.625 6.72957 6.625 5.625C6.625 4.52043 7.52043 3.625 8.625 3.625C9.72957 3.625 10.625 4.52043 10.625 5.625Z" stroke="var(--stroke-0, white)" stroke-width="1.25" stroke-linecap="round" stroke-linejoin="round"/>
</svg>
