<svg preserveAspectRatio="none" width="100%" height="100%" overflow="visible" style="display: block;" viewBox="0 0 12.3333 6.45448" fill="none" xmlns="http://www.w3.org/2000/svg">
<path id="Icon" d="M5.00989 5.87272L3.17235 5.87272C2.48608 5.87272 1.82187 5.60316 1.33479 5.10887C0.847713 4.61458 0.570986 3.95184 0.582085 3.2441C0.570956 2.53638 0.847792 1.87355 1.33479 1.37934C1.8329 0.873852 2.47494 0.60422 3.16124 0.60421L4.99878 0.60421M7.32344 0.581761L9.16098 0.581761C9.84725 0.581761 10.5115 0.851323 10.9985 1.34561C11.4856 1.8399 11.7623 2.50265 11.7513 3.21038C11.7513 3.90681 11.4745 4.56959 10.9874 5.06388C10.5004 5.55817 9.84728 5.83899 9.16098 5.839H7.32344M3.40472 3.25181L8.91734 3.25181" stroke="var(--stroke-0, white)" stroke-width="1.16352" stroke-linecap="round" stroke-linejoin="round"/>
</svg>
