<svg preserveAspectRatio="none" width="100%" height="100%" overflow="visible" style="display: block;" viewBox="0 0 37.5 37.5" fill="none" xmlns="http://www.w3.org/2000/svg">
<g id="QR">
<path id="Vector" d="M12.5 32.8125H6.25C5.8356 32.8125 5.43817 32.6479 5.14515 32.3549C4.85212 32.0618 4.6875 31.6644 4.6875 31.25V25C4.6875 24.5856 4.52288 24.1882 4.22985 23.8951C3.93683 23.6021 3.5394 23.4375 3.125 23.4375C2.7106 23.4375 2.31317 23.6021 2.02015 23.8951C1.72712 24.1882 1.5625 24.5856 1.5625 25V31.25C1.5625 32.4932 2.05636 33.6855 2.93544 34.5646C3.81451 35.4436 5.0068 35.9375 6.25 35.9375H12.5C12.9144 35.9375 13.3118 35.7729 13.6049 35.4799C13.8979 35.1868 14.0625 34.7894 14.0625 34.375C14.0625 33.9606 13.8979 33.5632 13.6049 33.2701C13.3118 32.9771 12.9144 32.8125 12.5 32.8125ZM34.375 23.4375C33.9606 23.4375 33.5632 23.6021 33.2701 23.8951C32.9771 24.1882 32.8125 24.5856 32.8125 25V31.25C32.8125 31.6644 32.6479 32.0618 32.3549 32.3549C32.0618 32.6479 31.6644 32.8125 31.25 32.8125H25C24.5856 32.8125 24.1882 32.9771 23.8951 33.2701C23.6021 33.5632 23.4375 33.9606 23.4375 34.375C23.4375 34.7894 23.6021 35.1868 23.8951 35.4799C24.1882 35.7729 24.5856 35.9375 25 35.9375H31.25C32.4932 35.9375 33.6855 35.4436 34.5646 34.5646C35.4436 33.6855 35.9375 32.4932 35.9375 31.25V25C35.9375 24.5856 35.7729 24.1882 35.4799 23.8951C35.1868 23.6021 34.7894 23.4375 34.375 23.4375ZM31.25 1.5625H25C24.5856 1.5625 24.1882 1.72712 23.8951 2.02015C23.6021 2.31317 23.4375 2.7106 23.4375 3.125C23.4375 3.5394 23.6021 3.93683 23.8951 4.22985C24.1882 4.52288 24.5856 4.6875 25 4.6875H31.25C31.6644 4.6875 32.0618 4.85212 32.3549 5.14515C32.6479 5.43817 32.8125 5.8356 32.8125 6.25V12.5C32.8125 12.9144 32.9771 13.3118 33.2701 13.6049C33.5632 13.8979 33.9606 14.0625 34.375 14.0625C34.7894 14.0625 35.1868 13.8979 35.4799 13.6049C35.7729 13.3118 35.9375 12.9144 35.9375 12.5V6.25C35.9375 5.0068 35.4436 3.81451 34.5646 2.93544C33.6855 2.05636 32.4932 1.5625 31.25 1.5625ZM3.125 14.0625C3.5394 14.0625 3.93683 13.8979 4.22985 13.6049C4.52288 13.3118 4.6875 12.9144 4.6875 12.5V6.25C4.6875 5.8356 4.85212 5.43817 5.14515 5.14515C5.43817 4.85212 5.8356 4.6875 6.25 4.6875H12.5C12.9144 4.6875 13.3118 4.52288 13.6049 4.22985C13.8979 3.93683 14.0625 3.5394 14.0625 3.125C14.0625 2.7106 13.8979 2.31317 13.6049 2.02015C13.3118 1.72712 12.9144 1.5625 12.5 1.5625H6.25C5.0068 1.5625 3.81451 2.05636 2.93544 2.93544C2.05636 3.81451 1.5625 5.0068 1.5625 6.25V12.5C1.5625 12.9144 1.72712 13.3118 2.02015 13.6049C2.31317 13.8979 2.7106 14.0625 3.125 14.0625ZM15.625 7.8125H9.375C8.9606 7.8125 8.56317 7.97712 8.27015 8.27015C7.97712 8.56317 7.8125 8.9606 7.8125 9.375V15.625C7.8125 16.0394 7.97712 16.4368 8.27015 16.7299C8.56317 17.0229 8.9606 17.1875 9.375 17.1875H15.625C16.0394 17.1875 16.4368 17.0229 16.7299 16.7299C17.0229 16.4368 17.1875 16.0394 17.1875 15.625V9.375C17.1875 8.9606 17.0229 8.56317 16.7299 8.27015C16.4368 7.97712 16.0394 7.8125 15.625 7.8125ZM14.0625 14.0625H10.9375V10.9375H14.0625V14.0625ZM21.875 17.1875H28.125C28.5394 17.1875 28.9368 17.0229 29.2299 16.7299C29.5229 16.4368 29.6875 16.0394 29.6875 15.625V9.375C29.6875 8.9606 29.5229 8.56317 29.2299 8.27015C28.9368 7.97712 28.5394 7.8125 28.125 7.8125H21.875C21.4606 7.8125 21.0632 7.97712 20.7701 8.27015C20.4771 8.56317 20.3125 8.9606 20.3125 9.375V15.625C20.3125 16.0394 20.4771 16.4368 20.7701 16.7299C21.0632 17.0229 21.4606 17.1875 21.875 17.1875ZM23.4375 10.9375H26.5625V14.0625H23.4375V10.9375ZM15.625 20.3125H9.375C8.9606 20.3125 8.56317 20.4771 8.27015 20.7701C7.97712 21.0632 7.8125 21.4606 7.8125 21.875V28.125C7.8125 28.5394 7.97712 28.9368 8.27015 29.2299C8.56317 29.5229 8.9606 29.6875 9.375 29.6875H15.625C16.0394 29.6875 16.4368 29.5229 16.7299 29.2299C17.0229 28.9368 17.1875 28.5394 17.1875 28.125V21.875C17.1875 21.4606 17.0229 21.0632 16.7299 20.7701C16.4368 20.4771 16.0394 20.3125 15.625 20.3125ZM14.0625 26.5625H10.9375V23.4375H14.0625V26.5625ZM21.875 25C22.2894 25 22.6868 24.8354 22.9799 24.5424C23.2729 24.2493 23.4375 23.8519 23.4375 23.4375C23.8519 23.4375 24.2493 23.2729 24.5424 22.9799C24.8354 22.6868 25 22.2894 25 21.875C25 21.4606 24.8354 21.0632 24.5424 20.7701C24.2493 20.4771 23.8519 20.3125 23.4375 20.3125H21.875C21.4606 20.3125 21.0632 20.4771 20.7701 20.7701C20.4771 21.0632 20.3125 21.4606 20.3125 21.875V23.4375C20.3125 23.8519 20.4771 24.2493 20.7701 24.5424C21.0632 24.8354 21.4606 25 21.875 25ZM28.125 20.3125C27.7106 20.3125 27.3132 20.4771 27.0201 20.7701C26.7271 21.0632 26.5625 21.4606 26.5625 21.875V26.5625C26.1481 26.5625 25.7507 26.7271 25.4576 27.0201C25.1646 27.3132 25 27.7106 25 28.125C25 28.5394 25.1646 28.9368 25.4576 29.2299C25.7507 29.5229 26.1481 29.6875 26.5625 29.6875H28.125C28.5394 29.6875 28.9368 29.5229 29.2299 29.2299C29.5229 28.9368 29.6875 28.5394 29.6875 28.125V21.875C29.6875 21.4606 29.5229 21.0632 29.2299 20.7701C28.9368 20.4771 28.5394 20.3125 28.125 20.3125ZM21.875 26.5625C21.566 26.5625 21.2639 26.6541 21.0069 26.8258C20.75 26.9975 20.5497 27.2415 20.4314 27.5271C20.3132 27.8126 20.2822 28.1267 20.3425 28.4298C20.4028 28.7329 20.5516 29.0113 20.7701 29.2299C20.9887 29.4484 21.2671 29.5972 21.5702 29.6575C21.8733 29.7178 22.1874 29.6868 22.4729 29.5686C22.7585 29.4503 23.0025 29.25 23.1742 28.9931C23.3459 28.7361 23.4375 28.434 23.4375 28.125C23.4375 27.7106 23.2729 27.3132 22.9799 27.0201C22.6868 26.7271 22.2894 26.5625 21.875 26.5625Z" fill="var(--fill-0, #4C8AFD)"/>
</g>
</svg>
