<svg preserveAspectRatio="none" width="100%" height="100%" overflow="visible" style="display: block;" viewBox="0 0 12.0982 12.0982" fill="none" xmlns="http://www.w3.org/2000/svg">
<g id="Inner">
<g id="MingCute">
</g>
<path id="Vector" d="M4.1372 5.9267C4.33406 6.1236 4.33406 6.44274 4.1372 6.63964L3.2155 7.56132H8.06551C8.34392 7.56132 8.5696 7.787 8.5696 8.06541C8.5696 8.34382 8.34392 8.5695 8.06551 8.5695H3.2155L4.1372 9.49118C4.33406 9.68803 4.33406 10.0072 4.1372 10.2041C3.94034 10.401 3.62117 10.401 3.42431 10.2041L1.64207 8.42185C1.44521 8.22501 1.44521 7.90582 1.64207 7.70897L3.42431 5.9267C3.62117 5.72985 3.94034 5.72985 4.1372 5.9267ZM7.96106 1.894C8.14282 1.71228 8.42873 1.6983 8.62646 1.85206L8.67395 1.894L10.4562 3.67623C10.6379 3.85795 10.6519 4.14388 10.4981 4.34163L10.4562 4.38912L8.67395 6.17134C8.4771 6.36824 8.15796 6.36824 7.96106 6.17134C7.77936 5.98963 7.76538 5.70368 7.91913 5.50594L7.96106 5.45845L8.8828 4.53677H4.03273C3.75433 4.53677 3.52864 4.31107 3.52864 4.03268C3.52864 3.77416 3.72324 3.56109 3.97394 3.53198L4.03273 3.52858H8.8828L7.96106 2.60689C7.76422 2.41003 7.76422 2.09085 7.96106 1.894Z" fill="var(--fill-0, white)"/>
</g>
</svg>
