<svg width="26.7429" height="16.5664" style="display: block;" viewBox="0 0 26.7429 16.5664" fill="none" xmlns="http://www.w3.org/2000/svg">
<g id="PayNow" clip-path="url(#clip0_0_904)">
<path id="Vector" fill-rule="evenodd" clip-rule="evenodd" d="M0.11699 0.0933274C0.095059 0.150521 0.0864612 1.74145 0.0977421 3.62883L0.118331 7.06043H0.986093H1.85386L1.87555 5.86876L1.89732 4.67716L2.87845 4.6348C4.04835 4.58424 4.38504 4.45541 4.92913 3.85034C5.95088 2.71389 5.57032 0.846387 4.18656 0.206215C3.85823 0.054357 3.66211 0.0372384 1.99143 0.0144399C0.529334 -0.00543975 0.148781 0.0105744 0.11699 0.0933274ZM7.74541 0.06832C7.62874 0.142238 4.97338 6.94818 5.02505 7.04071C5.08398 7.14626 6.67806 7.11006 6.76358 7.00127C6.80618 6.94707 6.90542 6.72516 6.98407 6.50822C7.06272 6.29128 7.16078 6.06945 7.20203 6.01518C7.25631 5.94378 7.61296 5.91657 8.49389 5.91657H9.71089L9.86307 6.25184C9.94677 6.43628 10.016 6.62955 10.017 6.68138C10.0179 6.73329 9.77834 6.90203 9.48448 7.05641C7.29567 8.20667 6.27581 10.8581 7.1237 13.194C7.40146 13.9592 7.69697 14.4154 8.31616 15.0345C8.93093 15.6493 9.39179 15.9493 10.1365 16.2197C13.5339 17.4528 17.0567 14.8296 16.861 11.212C16.8128 10.3211 16.6121 9.63004 16.2 8.93583C15.8453 8.33833 15.1322 7.5732 14.93 7.5732C14.8279 7.5732 14.3456 8.17243 13.3695 9.51179C12.5926 10.578 11.9331 11.4651 11.904 11.4831C11.8749 11.5011 11.5416 11.1346 11.1634 10.6687C10.4369 9.77385 10.3324 9.67729 10.1635 9.74545C10.0062 9.80887 9.38706 10.7082 9.39132 10.867C9.39708 11.0833 11.7743 13.9236 11.9496 13.9236C12.0534 13.9236 12.5403 13.312 13.5632 11.8966C14.3689 10.7817 15.0542 9.86757 15.0862 9.8652C15.1861 9.85786 15.3821 10.4164 15.4732 10.9681C15.7673 12.7491 14.551 14.5532 12.7376 15.0255C10.136 15.7031 7.64578 13.2217 8.322 10.6256C8.70776 9.14433 9.8932 8.08069 11.4001 7.86359C11.8881 7.79322 12.079 7.80253 12.5972 7.92181C13.6686 8.16849 13.5744 8.18166 13.9039 7.73847C14.0667 7.51964 14.1997 7.28842 14.1997 7.2246C14.1997 7.14208 14.3081 7.10153 14.5745 7.08449L14.9492 7.06043L14.9886 5.56157L15.0281 4.06271L16.1522 2.09888C16.7705 1.01884 17.2764 0.104688 17.2764 0.0675315C17.2764 0.0303755 16.8331 3.59671e-06 16.2913 3.59671e-06H15.3062L14.891 0.887015C14.6627 1.37486 14.3831 1.96943 14.2697 2.20838L14.0636 2.64273L13.5424 1.53831C13.2557 0.930876 12.9745 0.345136 12.9174 0.236666C12.8166 0.0453639 12.7855 0.0388165 11.8763 0.0171224C11.3608 0.00481596 10.9131 0.0225656 10.8814 0.0565662C10.8497 0.0905667 11.3514 1.04132 11.9961 2.16941L13.1684 4.22048L13.1516 5.4038C13.1373 6.4108 13.1172 6.58269 13.0164 6.55737C12.9514 6.54104 12.6428 6.50988 12.3307 6.48811C12.0187 6.46641 11.7474 6.40874 11.728 6.36007C11.7085 6.3114 11.1542 4.88795 10.4962 3.19692C9.83829 1.50581 9.25752 0.0952209 9.2057 0.0623248C9.0779 -0.0189293 7.87518 -0.0140386 7.74541 0.06832ZM1.8933 2.32718V3.1555L2.46523 3.15432C3.15487 3.1529 3.38577 3.05066 3.57597 2.6623C3.69722 2.41459 3.70574 2.32364 3.62937 2.09226C3.47689 1.63029 3.22989 1.49887 2.51375 1.49887H1.8933V2.32718ZM8.40294 2.37507C8.37998 2.4355 8.22363 2.91979 8.05552 3.45133L7.74983 4.4177H8.48435H9.21879L8.87098 3.38065C8.67967 2.81029 8.50549 2.326 8.48396 2.30439C8.46234 2.28285 8.42589 2.31464 8.40294 2.37507ZM0.0487528 8.24785C-0.0246914 8.43931 -0.00749605 14.9336 0.066816 15.0507C0.114227 15.1253 0.348682 15.1462 0.953118 15.1296L1.77497 15.107L1.81441 13.0164L1.85386 10.9259L2.45821 11.912C2.79065 12.4544 3.36084 13.3951 3.72538 14.0025L4.3882 15.107L5.31015 15.1292L6.23211 15.1514V11.6358V8.12005L5.38407 8.14246L4.53603 8.16486L4.49659 10.1266L4.45714 12.0885L3.23202 10.1266L2.00682 8.16486L1.0522 8.14277C0.233902 8.12384 0.0906421 8.13883 0.0487528 8.24785ZM16.6453 8.19223C16.6453 8.28556 19.0827 14.6631 19.2212 14.9323L19.3344 15.152L20.0967 15.1295L20.859 15.107L21.2174 14.1456C21.4145 13.6167 21.5975 13.163 21.6241 13.1374C21.6507 13.1117 21.8074 13.4555 21.9724 13.9016C22.1372 14.3476 22.3212 14.8114 22.3811 14.9323L22.4899 15.152L23.2459 15.1295L24.0018 15.107L24.374 14.1603C24.5787 13.6397 25.1954 12.1037 25.7445 10.747C26.2936 9.39038 26.7429 8.24446 26.7429 8.20044C26.7429 8.14971 26.3937 8.12865 25.7848 8.14269L24.8267 8.16486L24.248 9.78205C23.9298 10.6715 23.5754 11.6592 23.4606 11.9769C23.3456 12.2945 23.2253 12.5253 23.193 12.4896C23.1607 12.454 23.008 12.0429 22.8535 11.576L22.5728 10.7273L23.0012 9.5009C23.2368 8.82633 23.4296 8.24091 23.4296 8.19989C23.4296 8.08179 21.571 8.10483 21.4819 8.22403C21.4412 8.2783 21.2386 8.87288 21.0315 9.54539C20.2077 12.2207 20.0954 12.5535 20.0379 12.4904C20.0051 12.4543 19.7205 11.6438 19.4053 10.6893C19.0902 9.73472 18.7638 8.76732 18.6798 8.53958L18.5272 8.12542H17.5862C17.0687 8.12542 16.6453 8.15547 16.6453 8.19223Z" fill="url(#paint0_linear_0_904)"/>
</g>
<defs>
<linearGradient id="paint0_linear_0_904" x1="21.8571" y1="7.2" x2="0.514285" y2="16.9714" gradientUnits="userSpaceOnUse">
<stop stop-color="#951D81"/>
<stop offset="0.144066" stop-color="#BD1D9A"/>
<stop offset="0.454848" stop-color="#941C80"/>
</linearGradient>
<clipPath id="clip0_0_904">
<rect width="26.7429" height="16.5664" fill="white"/>
</clipPath>
</defs>
</svg>
