<svg preserveAspectRatio="none" width="100%" height="100%" overflow="visible" style="display: block;" viewBox="0 0 16 16" fill="none" xmlns="http://www.w3.org/2000/svg">
<g id="Inner">
<g id="MingCute">
</g>
<path id="Vector" d="M7 1.33333C10.1296 1.33333 12.6667 3.87039 12.6667 7C12.6667 8.3246 12.2122 9.543 11.4507 10.5079L13.8856 12.9428C14.1459 13.2031 14.1459 13.6253 13.8856 13.8856C13.6253 14.1459 13.2031 14.1459 12.9428 13.8856L10.5079 11.4507C9.543 12.2122 8.3246 12.6667 7 12.6667C3.87039 12.6667 1.33333 10.1296 1.33333 7C1.33333 3.87039 3.87039 1.33333 7 1.33333ZM7 2.66667C4.60677 2.66667 2.66667 4.60677 2.66667 7C2.66667 9.39327 4.60677 11.3333 7 11.3333C9.39327 11.3333 11.3333 9.39327 11.3333 7C11.3333 4.60677 9.39327 2.66667 7 2.66667ZM9.33333 6.33333C9.70153 6.33333 10 6.63181 10 7C10 7.3682 9.70153 7.66667 9.33333 7.66667H4.66667C4.29848 7.66667 4 7.3682 4 7C4 6.63181 4.29848 6.33333 4.66667 6.33333H9.33333Z" fill="var(--fill-0, #61667C)"/>
</g>
</svg>
