<svg width="14" height="14" viewBox="0 0 14 14" fill="none" xmlns="http://www.w3.org/2000/svg">
<path d="M7 1.16699C3.77834 1.16699 1.16667 3.77866 1.16667 7.00033C1.16667 10.222 3.77834 12.8337 7 12.8337C10.2217 12.8337 12.8333 10.222 12.8333 7.00033C12.8333 3.77866 10.2217 1.16699 7 1.16699ZM6.41667 4.08366C6.41667 3.76116 6.67667 3.50116 7 3.50116C7.32334 3.50116 7.58334 3.76116 7.58334 4.08366V7.58366C7.58334 7.906 7.32334 8.166 7 8.166C6.67667 8.166 6.41667 7.906 6.41667 7.58366V4.08366ZM7.58334 9.91699C7.58334 10.2403 7.32334 10.5003 7 10.5003C6.67667 10.5003 6.41667 10.2403 6.41667 9.91699C6.41667 9.59366 6.67667 9.33366 7 9.33366C7.32334 9.33366 7.58334 9.59366 7.58334 9.91699Z" fill="currentColor"/>
</svg>
