<svg width="16" height="16" viewBox="0 0 16 16" fill="none" xmlns="http://www.w3.org/2000/svg">
<g clip-path="url(#clip0_product)">
<path d="M10.9559 2C11.3882 2 11.7912 2.20938 12.0402 2.55747L12.0992 2.64734L13.715 5.34032C13.8748 5.60675 13.9701 5.90612 13.994 6.21449L14 6.36931V12.6667C14 13.3696 13.4561 13.9454 12.7662 13.9963L12.6667 14H3.33333C2.63043 14 2.05456 13.4561 2.00366 12.7662L2 12.6667V6.36931C2 6.05861 2.07238 5.75291 2.2105 5.47617L2.28501 5.34032L3.9008 2.64734C4.12323 2.27663 4.51015 2.03873 4.93673 2.00432L5.04413 2H10.9559ZM12.6667 6.66667H3.33333V12.6667H12.6667V6.66667ZM7.33333 3.33333H5.04413L3.84413 5.33333H7.33333V3.33333ZM10.9559 3.33333H8.66667V5.33333H12.1559L10.9559 3.33333Z" fill="currentColor"/>
</g>
<defs>
<clipPath id="clip0_product">
<rect width="16" height="16" fill="white"/>
</clipPath>
</defs>
</svg>
