<svg width="22" height="22" viewBox="0 0 22 22" fill="none" xmlns="http://www.w3.org/2000/svg">
<path d="M15.5833 18.7913H6.41659C3.66659 18.7913 1.83325 17.4163 1.83325 14.208V7.79134C1.83325 4.58301 3.66659 3.20801 6.41659 3.20801H15.5833C18.3333 3.20801 20.1666 4.58301 20.1666 7.79134V14.208C20.1666 17.4163 18.3333 18.7913 15.5833 18.7913Z" stroke="currentColor" stroke-width="1.375" stroke-miterlimit="10" stroke-linecap="round" stroke-linejoin="round"/>
<path d="M11 13.75C12.5188 13.75 13.75 12.5188 13.75 11C13.75 9.48122 12.5188 8.25 11 8.25C9.48122 8.25 8.25 9.48122 8.25 11C8.25 12.5188 9.48122 13.75 11 13.75Z" stroke="currentColor" stroke-width="1.375" stroke-miterlimit="10" stroke-linecap="round" stroke-linejoin="round"/>
<path d="M5.04175 8.70801V13.2913" stroke="currentColor" stroke-width="1.375" stroke-miterlimit="10" stroke-linecap="round" stroke-linejoin="round"/>
<path d="M16.9583 8.70801V13.2913" stroke="currentColor" stroke-width="1.375" stroke-miterlimit="10" stroke-linecap="round" stroke-linejoin="round"/>
</svg>
