<svg width="16" height="16" viewBox="0 0 16 16" fill="none" xmlns="http://www.w3.org/2000/svg">
<g clip-path="url(#clip0_5688_23395)">
<path fill-rule="evenodd" clip-rule="evenodd" d="M9.60633 1.52835C10.2615 1.69046 10.8782 1.94933 11.4405 2.28869C11.6741 2.42965 11.7981 2.69869 11.7538 2.96785C11.6781 3.42719 11.7923 3.77848 12.007 3.99316C12.2217 4.20784 12.573 4.32205 13.0323 4.24636C13.3015 4.20201 13.5705 4.32611 13.7115 4.55967C14.0508 5.12194 14.3097 5.73869 14.4718 6.39379C14.5373 6.6587 14.4348 6.9368 14.213 7.0958C13.8345 7.36713 13.6667 7.6964 13.6667 8.00007C13.6667 8.30373 13.8345 8.633 14.213 8.90433C14.4348 9.06326 14.5373 9.3414 14.4718 9.60633C14.3097 10.2615 14.0508 10.8782 13.7114 11.4405C13.5705 11.6741 13.3015 11.7982 13.0323 11.7538C12.5729 11.6781 12.2217 11.7923 12.007 12.007C11.7923 12.2217 11.6781 12.573 11.7538 13.0323C11.7981 13.3015 11.6741 13.5705 11.4405 13.7115C10.8782 14.0508 10.2615 14.3097 9.60633 14.4718C9.3414 14.5373 9.06333 14.4348 8.90433 14.213C8.633 13.8345 8.30373 13.6667 8.00007 13.6667C7.6964 13.6667 7.36713 13.8345 7.0958 14.213C6.9368 14.4348 6.65871 14.5373 6.3938 14.4718C5.73868 14.3097 5.12191 14.0508 4.55964 13.7115C4.32609 13.5705 4.20197 13.3015 4.24633 13.0323C4.32201 12.573 4.2078 12.2217 3.99313 12.007C3.77845 11.7923 3.42717 11.6781 2.96785 11.7538C2.69869 11.7982 2.42966 11.6741 2.2887 11.4405C1.94933 10.8782 1.69046 10.2615 1.52835 9.60633C1.46279 9.3414 1.56531 9.06326 1.78713 8.90433C2.16566 8.633 2.3334 8.30373 2.3334 8.00007C2.3334 7.6964 2.16566 7.36713 1.78712 7.0958C1.56531 6.9368 1.46279 6.65871 1.52835 6.3938C1.69045 5.73869 1.94931 5.12194 2.28866 4.55968C2.42962 4.32612 2.69866 4.20201 2.96783 4.24637C3.42715 4.32206 3.77845 4.20785 3.99313 3.99317C4.20781 3.77848 4.32203 3.42719 4.24633 2.96786C4.20197 2.69869 4.32608 2.42965 4.55963 2.28869C5.12191 1.94933 5.73868 1.69046 6.3938 1.52835C6.65871 1.46279 6.9368 1.56531 7.0958 1.78713C7.36713 2.16566 7.6964 2.33339 8.00007 2.33339C8.30373 2.33339 8.633 2.16566 8.90433 1.78713C9.06333 1.56531 9.3414 1.46279 9.60633 1.52835ZM9.6746 2.93473C9.2368 3.37401 8.6614 3.66673 8.00007 3.66673C7.33873 3.66673 6.76327 3.37401 6.3255 2.93473C6.07585 3.01721 5.83432 3.11767 5.60243 3.23459C5.60341 3.85468 5.40347 4.46844 4.93594 4.93597C4.46841 5.4035 3.85465 5.60345 3.23458 5.60247C3.11766 5.83434 3.01721 6.07586 2.93473 6.3255C3.37401 6.76327 3.66673 7.33873 3.66673 8.00007C3.66673 8.6614 3.37401 9.2368 2.93473 9.6746C3.01721 9.92426 3.11767 10.1658 3.23461 10.3977C3.85467 10.3967 4.46841 10.5967 4.93593 11.0642C5.40345 11.5317 5.60339 12.1455 5.60243 12.7655C5.83432 12.8825 6.07585 12.9829 6.32551 13.0654C6.76327 12.6261 7.33873 12.3334 8.00007 12.3334C8.6614 12.3334 9.2368 12.6261 9.6746 13.0654C9.92427 12.9829 10.1658 12.8825 10.3977 12.7655C10.3967 12.1455 10.5967 11.5317 11.0642 11.0642C11.5317 10.5967 12.1455 10.3967 12.7655 10.3977C12.8825 10.1658 12.9829 9.92426 13.0654 9.6746C12.6261 9.2368 12.3334 8.6614 12.3334 8.00007C12.3334 7.33873 12.6261 6.76327 13.0654 6.3255C12.9829 6.07586 12.8825 5.83435 12.7655 5.60246C12.1455 5.60344 11.5317 5.4035 11.0642 4.93597C10.5967 4.46843 10.3967 3.85467 10.3977 3.2346C10.1658 3.11767 9.92427 3.01721 9.6746 2.93473ZM8.00007 5.33339C9.4728 5.33339 10.6667 6.5273 10.6667 8.00006C10.6667 9.4728 9.4728 10.6667 8.00007 10.6667C6.52731 10.6667 5.3334 9.4728 5.3334 8.00006C5.3334 6.5273 6.52731 5.33339 8.00007 5.33339ZM8.00007 6.66673C7.26367 6.66673 6.66673 7.26367 6.66673 8.00007C6.66673 8.73646 7.26367 9.3334 8.00007 9.3334C8.73647 9.3334 9.3334 8.73646 9.3334 8.00007C9.3334 7.26367 8.73647 6.66673 8.00007 6.66673Z" fill="currentColor"/>
</g>
<defs>
<clipPath id="clip0_5688_23395">
<rect width="16" height="16" fill="white"/>
</clipPath>
</defs>
</svg>
