<svg width="16" height="16" viewBox="0 0 16 16" fill="none" xmlns="http://www.w3.org/2000/svg">
<g clip-path="url(#clip0_5699_25518)">
<path fill-rule="evenodd" clip-rule="evenodd" d="M8.00004 1.33301C11.6819 1.33301 14.6667 4.31777 14.6667 7.99967C14.6667 11.6815 11.6819 14.6663 8.00004 14.6663C4.31814 14.6663 1.33337 11.6815 1.33337 7.99967C1.33337 4.31777 4.31814 1.33301 8.00004 1.33301ZM8.98804 11.2928C8.66217 11.3194 8.33264 11.3329 8.00004 11.3329C7.66744 11.3329 7.33791 11.3194 7.01204 11.2928C7.07417 11.5574 7.14324 11.8033 7.21817 12.0278C7.38617 12.5309 7.57144 12.8899 7.74477 13.1093C7.82984 13.2171 7.89911 13.2747 7.94517 13.3029L7.9795 13.3207L7.99997 13.3263L8.02058 13.3207L8.05491 13.3029C8.10097 13.2747 8.17024 13.2171 8.25531 13.1093C8.42864 12.8899 8.61391 12.5309 8.78191 12.0278C8.85684 11.8033 8.92591 11.5574 8.98804 11.2928ZM3.2044 10.3361C3.80565 11.5679 4.86748 12.5337 6.16567 13.0091C6.08896 12.8315 6.01832 12.6443 5.95347 12.45C5.81767 12.0432 5.7013 11.5875 5.60727 11.0943C4.77167 10.9251 3.9674 10.6691 3.2044 10.3361ZM12.7957 10.3361C12.0327 10.6691 11.2284 10.9251 10.3928 11.0943C10.2988 11.5875 10.1824 12.0432 10.0466 12.45C9.98177 12.6443 9.91111 12.8315 9.83437 13.0091C11.1326 12.5337 12.1944 11.5679 12.7957 10.3361ZM9.31717 7.24694C8.88611 7.30374 8.44644 7.33301 8.00004 7.33301C7.55364 7.33301 7.11397 7.30374 6.68291 7.24694C6.67224 7.49254 6.66671 7.74374 6.66671 7.99954C6.66671 8.68214 6.70611 9.33201 6.77704 9.93034C7.17831 9.97607 7.58637 9.99961 8.00004 9.99961C8.41371 9.99961 8.82177 9.97607 9.22304 9.93034C9.29397 9.33201 9.33337 8.68214 9.33337 7.99954C9.33337 7.74374 9.32784 7.49254 9.31717 7.24694ZM3.04569 6.0213C2.80119 6.63304 2.66671 7.30067 2.66671 7.99967C2.66671 8.19967 2.67772 8.39714 2.69917 8.59141C3.53781 9.07267 4.44803 9.44327 5.41022 9.68321C5.35989 9.14461 5.33337 8.57987 5.33337 7.99954C5.33337 7.65367 5.34279 7.31341 5.36105 6.98094C4.54276 6.75761 3.76613 6.43295 3.04569 6.0213ZM12.9544 6.02128C12.2339 6.43293 11.4573 6.75761 10.639 6.98094C10.6573 7.31341 10.6667 7.65367 10.6667 7.99954C10.6667 8.57987 10.6402 9.14461 10.5898 9.68321C11.552 9.44327 12.4623 9.07267 13.3009 8.59141C13.3224 8.39714 13.3334 8.19967 13.3334 7.99967C13.3334 7.30067 13.1989 6.63303 12.9544 6.02128ZM8.01064 2.67494L8.00305 2.67311L7.98944 2.67494L7.96475 2.68529C7.95903 2.6882 7.95251 2.69181 7.94517 2.6963C7.89911 2.72453 7.82984 2.78206 7.74477 2.88983C7.57144 3.10928 7.38617 3.46818 7.21817 3.97132C7.03857 4.50941 6.89244 5.17053 6.79591 5.91677C7.18937 5.97142 7.59137 5.99967 8.00004 5.99967C8.40871 5.99967 8.81071 5.97142 9.20417 5.91676C9.10757 5.17053 8.96151 4.50941 8.78191 3.97132C8.61391 3.46818 8.42864 3.10928 8.25531 2.88983C8.17024 2.78206 8.10097 2.72453 8.05491 2.6963L8.01064 2.67494ZM6.16556 2.99022C5.16729 3.3559 4.30878 4.01146 3.69201 4.85496C4.25436 5.17779 4.85633 5.43933 5.48894 5.63049C5.59533 4.85454 5.75331 4.14867 5.95347 3.5491C6.01829 3.35493 6.08889 3.16778 6.16556 2.99022ZM9.83451 2.99022C9.91117 3.16778 9.98177 3.35493 10.0466 3.5491C10.2468 4.14867 10.4048 4.85453 10.5112 5.63048C11.1438 5.43931 11.7457 5.17777 12.308 4.85494C11.6913 4.01145 10.8328 3.35589 9.83451 2.99022Z" fill="currentColor"/>
</g>
<defs>
<clipPath id="clip0_5699_25518">
<rect width="16" height="16" fill="white"/>
</clipPath>
</defs>
</svg>
