<svg width="18" height="18" viewBox="0 0 18 18" fill="none" xmlns="http://www.w3.org/2000/svg">
<path d="M9.75 2.25C9.94891 2.25 10.1397 2.32902 10.2803 2.46967C10.421 2.61032 10.5 2.80109 10.5 3C10.5 3.19891 10.421 3.38968 10.2803 3.53033C10.1397 3.67098 9.94891 3.75 9.75 3.75H3.75C3.55109 3.75 3.36032 3.82902 3.21967 3.96967C3.07902 4.11032 3 4.30109 3 4.5V12C3 12.1989 3.07902 12.3897 3.21967 12.5303C3.36032 12.671 3.55109 12.75 3.75 12.75H6.52275C6.81905 12.7499 7.10873 12.8376 7.35525 13.002L9 14.0985L10.6448 13.002C10.8913 12.8376 11.181 12.7499 11.4773 12.75H14.25C14.4489 12.75 14.6397 12.671 14.7803 12.5303C14.921 12.3897 15 12.1989 15 12V9C15 8.80109 15.079 8.61032 15.2197 8.46967C15.3603 8.32902 15.5511 8.25 15.75 8.25C15.9489 8.25 16.1397 8.32902 16.2803 8.46967C16.421 8.61032 16.5 8.80109 16.5 9V12C16.5 12.5967 16.2629 13.169 15.841 13.591C15.419 14.0129 14.8467 14.25 14.25 14.25H11.4773L9.51975 15.555C9.20475 15.765 8.79525 15.765 8.48025 15.555L6.52275 14.25H3.75C3.15326 14.25 2.58097 14.0129 2.15901 13.591C1.73705 13.169 1.5 12.5967 1.5 12V4.5C1.5 3.90326 1.73705 3.33097 2.15901 2.90901C2.58097 2.48705 3.15326 2.25 3.75 2.25H9.75ZM6.375 7.5C6.67337 7.5 6.95952 7.61853 7.1705 7.82951C7.38147 8.04048 7.5 8.32663 7.5 8.625C7.5 8.92337 7.38147 9.20952 7.1705 9.4205C6.95952 9.63147 6.67337 9.75 6.375 9.75C6.07663 9.75 5.79048 9.63147 5.57951 9.4205C5.36853 9.20952 5.25 8.92337 5.25 8.625C5.25 8.32663 5.36853 8.04048 5.57951 7.82951C5.79048 7.61853 6.07663 7.5 6.375 7.5ZM11.625 7.5C11.9234 7.5 12.2095 7.61853 12.4205 7.82951C12.6315 8.04048 12.75 8.32663 12.75 8.625C12.75 8.92337 12.6315 9.20952 12.4205 9.4205C12.2095 9.63147 11.9234 9.75 11.625 9.75C11.3266 9.75 11.0405 9.63147 10.8295 9.4205C10.6185 9.20952 10.5 8.92337 10.5 8.625C10.5 8.32663 10.6185 8.04048 10.8295 7.82951C11.0405 7.61853 11.3266 7.5 11.625 7.5ZM15 0.75C15.1564 0.750063 15.309 0.799046 15.4362 0.890092C15.5634 0.981139 15.659 1.10969 15.7095 1.25775L15.807 1.54125C16.032 2.2005 16.5495 2.71875 17.2095 2.94375L17.4923 3.0405C17.6401 3.09118 17.7685 3.18681 17.8594 3.31402C17.9503 3.44123 17.9991 3.59366 17.9991 3.75C17.9991 3.90634 17.9503 4.05877 17.8594 4.18598C17.7685 4.31319 17.6401 4.40882 17.4923 4.4595L17.2088 4.557C16.5495 4.782 16.0313 5.2995 15.8063 5.9595L15.7095 6.24225C15.6588 6.39015 15.5632 6.51851 15.436 6.60939C15.3088 6.70027 15.1563 6.74913 15 6.74913C14.8437 6.74913 14.6912 6.70027 14.564 6.60939C14.4368 6.51851 14.3412 6.39015 14.2905 6.24225L14.193 5.95875C14.0819 5.63336 13.8978 5.33775 13.6546 5.09462C13.4115 4.8515 13.1159 4.66732 12.7905 4.55625L12.5078 4.4595C12.3599 4.40882 12.2315 4.31319 12.1406 4.18598C12.0497 4.05877 12.0009 3.90634 12.0009 3.75C12.0009 3.59366 12.0497 3.44123 12.1406 3.31402C12.2315 3.18681 12.3599 3.09118 12.5078 3.0405L12.7913 2.943C13.4505 2.718 13.9688 2.2005 14.1938 1.5405L14.2905 1.25775L14.337 1.14825C14.4009 1.0279 14.4964 0.927238 14.6132 0.857073C14.73 0.786907 14.8637 0.749891 15 0.75ZM15 3.147C14.8226 3.37028 14.6203 3.57258 14.397 3.75C14.6215 3.9275 14.8225 4.12825 15 4.35225C15.178 4.12875 15.3788 3.928 15.6023 3.75C15.3792 3.57254 15.1772 3.37023 15 3.147Z" fill="currentColor"/>
</svg>
