<svg width="16" height="16" viewBox="0 0 16 16" fill="none" xmlns="http://www.w3.org/2000/svg">
<g clip-path="url(#clip0_5699_27511)">
<path d="M1.33327 8.05361C1.32911 7.4781 1.94012 7.14871 2.41175 7.40313L2.47512 7.44148L4.26036 8.64434C4.90882 9.08128 4.51216 10.0731 3.77127 9.98215L3.69342 9.96881L2.98452 9.81328C3.5583 11.3975 4.8714 12.6842 6.62093 13.153C9.17496 13.8373 11.7942 12.5465 12.8539 10.2165C13.0064 9.88134 13.4016 9.73321 13.7368 9.88561C14.072 10.0381 14.22 10.4333 14.0676 10.7685C12.7424 13.6821 9.46983 15.2967 6.27584 14.4409C3.60662 13.7257 1.75328 11.4886 1.39607 8.91581C1.35667 8.63201 1.33544 8.34408 1.33327 8.05361ZM1.93514 5.23428C3.26031 2.32072 6.53296 0.706037 9.7269 1.56186C12.3962 2.27708 14.2495 4.51414 14.6067 7.08694C14.6461 7.37074 14.6673 7.65868 14.6695 7.94914C14.6736 8.52465 14.0626 8.85404 13.591 8.59962L13.5276 8.56128L11.7423 7.35841C11.0939 6.92148 11.4905 5.9297 12.2313 6.02058L12.3092 6.03391L13.0182 6.18939C12.4444 4.60516 11.1313 3.31853 9.38183 2.84976C6.82783 2.16541 4.20858 3.45631 3.14883 5.7863C2.9964 6.12146 2.60112 6.26958 2.26598 6.11714C1.93082 5.9647 1.7827 5.56943 1.93514 5.23428Z" fill="currentColor"/>
</g>
<defs>
<clipPath id="clip0_5699_27511">
<rect width="16" height="16" fill="white"/>
</clipPath>
</defs>
</svg>
