<svg width="16" height="16" viewBox="0 0 16 16" fill="none" xmlns="http://www.w3.org/2000/svg">
<g clip-path="url(#clip0_plus)">
<path d="M7.33333 13.3333C7.33333 13.7015 7.6318 14 8 14C8.3682 14 8.66667 13.7015 8.66667 13.3333V8.66667H13.3333C13.7015 8.66667 14 8.3682 14 8C14 7.6318 13.7015 7.33333 13.3333 7.33333H8.66667V2.66667C8.66667 2.29848 8.3682 2 8 2C7.6318 2 7.33333 2.29848 7.33333 2.66667V7.33333H2.66667C2.29848 7.33333 2 7.6318 2 8C2 8.3682 2.29848 8.66667 2.66667 8.66667H7.33333V13.3333Z" fill="currentColor"/>
</g>
<defs>
<clipPath id="clip0_plus">
<rect width="16" height="16" fill="white"/>
</clipPath>
</defs>
</svg>
