<svg width="16" height="16" viewBox="0 0 16 16" fill="none" xmlns="http://www.w3.org/2000/svg">
<g clip-path="url(#clip0_5688_23372)">
<path d="M12.6667 2.66699C13.7713 2.66699 14.6667 3.56243 14.6667 4.66699V11.3337C14.6667 12.4383 13.7713 13.3337 12.6667 13.3337H3.33337C2.22881 13.3337 1.33337 12.4383 1.33337 11.3337V4.66699C1.33337 3.56243 2.22881 2.66699 3.33337 2.66699H12.6667ZM13.3334 6.66699H2.66671V11.3337C2.66671 11.6756 2.92407 11.9573 3.25563 11.9958L3.33337 12.0003H12.6667C13.0086 12.0003 13.2904 11.743 13.3289 11.4114L13.3334 11.3337V6.66699ZM11.3334 8.66699C11.7016 8.66699 12 8.96546 12 9.33366C12 9.67556 11.7427 9.95733 11.4111 9.99584L11.3334 10.0003H9.33337C8.96517 10.0003 8.66671 9.70186 8.66671 9.33366C8.66671 8.99176 8.92406 8.70999 9.25562 8.67148L9.33337 8.66699H11.3334ZM12.6667 4.00033H3.33337C2.96519 4.00033 2.66671 4.29881 2.66671 4.66699V5.33366H13.3334V4.66699C13.3334 4.29881 13.0349 4.00033 12.6667 4.00033Z" fill="currentColor"/>
</g>
<defs>
<clipPath id="clip0_5688_23372">
<rect width="16" height="16" fill="white"/>
</clipPath>
</defs>
</svg>
