<svg width="16" height="16" viewBox="0 0 16 16" fill="none" xmlns="http://www.w3.org/2000/svg">
<g clip-path="url(#clip0_5699_25426)">
<path fill-rule="evenodd" clip-rule="evenodd" d="M14.6778 2.58228L14.2849 3.63661L13.7963 4.76786C13.3442 5.7378 12.7222 6.87174 11.9782 7.65428C11.2678 8.40134 10.1959 9.08961 9.33736 9.57848C9.55803 10.6414 9.25583 11.7911 8.43089 12.6161C6.91736 14.1297 5.22675 14.1299 3.96883 13.756C3.29603 13.556 2.62512 13.2325 2.05907 12.8028L1.48271 12.3242C1.35065 12.2124 1.359 12.0075 1.50059 11.908L1.72201 11.7502C2.20724 11.3965 2.70782 10.9621 2.82744 10.364C2.90372 9.74693 2.94742 9.4106 2.95854 9.35501C3.05041 8.89568 3.24481 8.37408 3.71687 7.90201C4.54177 7.07714 5.69145 6.77494 6.75429 6.99554C7.24323 6.137 7.93149 5.06503 8.67863 4.3547C9.46109 3.61072 10.595 2.98865 11.565 2.53654L12.6962 2.04793L13.7506 1.65502C14.3262 1.45839 14.8744 2.00664 14.6778 2.58228ZM4.65967 8.84488C4.42463 9.07988 4.32242 9.33428 4.26598 9.61648C4.18969 10.2336 4.14599 10.57 4.13489 10.6255C4.01436 11.2281 3.66212 11.7254 3.36852 12.0577C3.63805 12.2088 3.97353 12.3663 4.34879 12.4779C5.27111 12.7521 6.40894 12.7524 7.48809 11.6733C8.26916 10.8922 8.26916 9.62588 7.48809 8.84488C6.70703 8.06381 5.44073 8.06381 4.65967 8.84488ZM7.98609 7.52808C8.14236 7.63774 8.29129 7.76241 8.43089 7.90201C8.57049 8.04161 8.69509 8.19054 8.80476 8.34674C9.06563 8.19554 9.33476 8.03148 9.59796 7.85894L9.57763 7.81408C9.50036 7.64921 9.36509 7.42201 9.13796 7.19488C8.94333 7.00025 8.7486 6.87306 8.59312 6.79204L8.47389 6.73494C8.30136 6.99808 8.13729 7.26721 7.98609 7.52808ZM12.9476 3.38519C12.6922 3.491 12.4147 3.61154 12.1283 3.74504C11.1891 4.18282 10.2175 4.73136 9.59736 5.321C9.49263 5.42055 9.38776 5.53086 9.28356 5.64951C9.52542 5.78332 9.80523 5.97652 10.0808 6.2521C10.3564 6.52766 10.5496 6.80748 10.6834 7.04928C10.802 6.94508 10.9123 6.84021 11.0118 6.73554C11.6015 6.11536 12.15 5.14376 12.5878 4.20456C12.7213 3.91814 12.8418 3.64064 12.9476 3.38519Z" fill="currentColor"/>
</g>
<defs>
<clipPath id="clip0_5699_25426">
<rect width="16" height="16" fill="white"/>
</clipPath>
</defs>
</svg>
