<svg width="16" height="16" viewBox="0 0 16 16" fill="none" xmlns="http://www.w3.org/2000/svg">
<g clip-path="url(#clip0_5699_27488)">
<path d="M9.05716 1.33301C9.41076 1.33301 9.74989 1.47348 9.99996 1.72353L12.9428 4.66634C13.1928 4.91639 13.3333 5.25553 13.3333 5.60915V13.333C13.3333 14.0694 12.7364 14.6663 12 14.6663H3.99996C3.26358 14.6663 2.66663 14.0694 2.66663 13.333V2.66634C2.66663 1.92996 3.26358 1.33301 3.99996 1.33301H9.05716ZM7.99996 2.66634H3.99996V13.333H12V6.66634H8.99996C8.44769 6.66634 7.99996 6.21863 7.99996 5.66634V2.66634ZM9.99996 9.33301C10.3682 9.33301 10.6666 9.63147 10.6666 9.99967C10.6666 10.3679 10.3682 10.6663 9.99996 10.6663H5.99996C5.63177 10.6663 5.33329 10.3679 5.33329 9.99967C5.33329 9.63147 5.63177 9.33301 5.99996 9.33301H9.99996ZM6.66663 6.66634C7.03483 6.66634 7.33329 6.96481 7.33329 7.33301C7.33329 7.70121 7.03483 7.99967 6.66663 7.99967H5.99996C5.63177 7.99967 5.33329 7.70121 5.33329 7.33301C5.33329 6.96481 5.63177 6.66634 5.99996 6.66634H6.66663ZM9.33329 2.94248V5.33301H11.7238L9.33329 2.94248Z" fill="currentColor"/>
</g>
<defs>
<clipPath id="clip0_5699_27488">
<rect width="16" height="16" fill="white"/>
</clipPath>
</defs>
</svg>
