<svg width="18" height="18" viewBox="0 0 18 18" fill="none" xmlns="http://www.w3.org/2000/svg">
<path fill-rule="evenodd" clip-rule="evenodd" d="M11.0753 2.25C10.8268 2.52644 10.6508 2.86021 10.563 3.22138C10.4752 3.58256 10.4784 3.95988 10.5723 4.31953C10.6661 4.67917 10.8478 5.00991 11.1009 5.28212C11.354 5.55433 11.6706 5.7595 12.0225 5.87925L12.306 5.976C12.4146 6.01301 12.5133 6.07445 12.5944 6.15558C12.6756 6.23672 12.737 6.33539 12.774 6.444L12.8715 6.7275C12.9911 7.07937 13.1962 7.39605 13.4684 7.64916C13.7405 7.90228 14.0712 8.08391 14.4308 8.17779C14.7904 8.27166 15.1677 8.27485 15.5288 8.18705C15.8899 8.09926 16.2236 7.92323 16.5 7.67475L16.4993 12C16.4993 12.5967 16.2622 13.169 15.8402 13.591C15.4183 14.0129 14.846 14.25 14.2493 14.25H11.4765L9.519 15.555C9.204 15.765 8.7945 15.765 8.4795 15.555L6.52275 14.25H3.75C3.15326 14.25 2.58097 14.0129 2.15901 13.591C1.73705 13.169 1.5 12.5967 1.5 12V4.5C1.5 3.90326 1.73705 3.33097 2.15901 2.90901C2.58097 2.48705 3.15326 2.25 3.75 2.25H11.0753ZM6.375 7.5C6.07663 7.5 5.79048 7.61853 5.57951 7.82951C5.36853 8.04048 5.25 8.32663 5.25 8.625C5.25 8.92337 5.36853 9.20952 5.57951 9.4205C5.79048 9.63147 6.07663 9.75 6.375 9.75C6.67337 9.75 6.95952 9.63147 7.1705 9.4205C7.38147 9.20952 7.5 8.92337 7.5 8.625C7.5 8.32663 7.38147 8.04048 7.1705 7.82951C6.95952 7.61853 6.67337 7.5 6.375 7.5ZM11.625 7.5C11.3266 7.5 11.0405 7.61853 10.8295 7.82951C10.6185 8.04048 10.5 8.32663 10.5 8.625C10.5 8.92337 10.6185 9.20952 10.8295 9.4205C11.0405 9.63147 11.3266 9.75 11.625 9.75C11.9234 9.75 12.2095 9.63147 12.4205 9.4205C12.6315 9.20952 12.75 8.92337 12.75 8.625C12.75 8.32663 12.6315 8.04048 12.4205 7.82951C12.2095 7.61853 11.9234 7.5 11.625 7.5ZM15 0.75C15.1564 0.750062 15.309 0.799046 15.4362 0.890092C15.5634 0.981139 15.659 1.10969 15.7095 1.25775L15.807 1.54125C16.032 2.2005 16.5495 2.71875 17.2095 2.94375L17.4923 3.0405C17.6401 3.09118 17.7685 3.18681 17.8594 3.31402C17.9503 3.44123 17.9991 3.59366 17.9991 3.75C17.9991 3.90634 17.9503 4.05877 17.8594 4.18598C17.7685 4.31319 17.6401 4.40882 17.4923 4.4595L17.2088 4.557C16.5495 4.782 16.0313 5.2995 15.8063 5.9595L15.7095 6.24225C15.6588 6.39015 15.5632 6.51851 15.436 6.60939C15.3088 6.70027 15.1563 6.74913 15 6.74913C14.8437 6.74913 14.6912 6.70027 14.564 6.60939C14.4368 6.51851 14.3412 6.39015 14.2905 6.24225L14.193 5.95875C14.0819 5.63336 13.8978 5.33775 13.6546 5.09462C13.4115 4.8515 13.1159 4.66732 12.7905 4.55625L12.5078 4.4595C12.3599 4.40882 12.2315 4.31319 12.1406 4.18598C12.0497 4.05877 12.0009 3.90634 12.0009 3.75C12.0009 3.59366 12.0497 3.44123 12.1406 3.31402C12.2315 3.18681 12.3599 3.09118 12.5078 3.0405L12.7913 2.943C13.4505 2.718 13.9688 2.2005 14.1938 1.5405L14.2905 1.25775C14.341 1.10969 14.4366 0.981139 14.5638 0.890092C14.691 0.799046 14.8436 0.750062 15 0.75Z" fill="currentColor"/>
</svg>
