<svg width="22" height="22" viewBox="0 0 22 22" fill="none" xmlns="http://www.w3.org/2000/svg">
<path d="M19.855 9.56997L18.9566 13.4016C18.1866 16.7108 16.665 18.0491 13.805 17.7741C13.3466 17.7375 12.8516 17.655 12.32 17.5266L10.78 17.16C6.95746 16.2525 5.77496 14.3641 6.67329 10.5325L7.57163 6.69163C7.75496 5.91247 7.97496 5.23413 8.24996 4.67497C9.32246 2.45663 11.1466 1.8608 14.2083 2.58497L15.7391 2.94247C19.58 3.8408 20.7533 5.7383 19.855 9.56997Z" stroke="currentColor" stroke-width="1.375" stroke-linecap="round" stroke-linejoin="round"/>
<path d="M13.8049 17.774C13.2366 18.159 12.5216 18.4798 11.6508 18.764L10.2024 19.2406C6.56328 20.414 4.64745 19.4331 3.46495 15.794L2.29161 12.1731C1.11828 8.53397 2.08995 6.60897 5.72911 5.43564L7.17745 4.95897C7.55328 4.8398 7.91078 4.73897 8.24995 4.6748C7.97495 5.23397 7.75495 5.9123 7.57161 6.69147L6.67328 10.5323C5.77495 14.364 6.95745 16.2523 10.7799 17.1598L12.3199 17.5265C12.8516 17.6548 13.3466 17.7373 13.8049 17.774Z" stroke="currentColor" stroke-width="1.375" stroke-linecap="round" stroke-linejoin="round"/>
<path d="M11.5867 7.81934L16.0325 8.94684" stroke="currentColor" stroke-width="1.375" stroke-linecap="round" stroke-linejoin="round"/>
<path d="M10.6884 11.3662L13.3467 12.0445" stroke="currentColor" stroke-width="1.375" stroke-linecap="round" stroke-linejoin="round"/>
</svg>
