<svg width="16" height="16" viewBox="0 0 16 16" fill="none" xmlns="http://www.w3.org/2000/svg">
<g clip-path="url(#clip0_5699_27324)">
<path fill-rule="evenodd" clip-rule="evenodd" d="M3.33337 2.66699C2.22881 2.66699 1.33337 3.56243 1.33337 4.66699V11.3337C1.33337 12.4383 2.22881 13.3337 3.33337 13.3337H12.6667C13.7713 13.3337 14.6667 12.4383 14.6667 11.3337V4.66699C14.6667 3.56243 13.7713 2.66699 12.6667 2.66699H3.33337ZM13.3334 5.44747V4.66699C13.3334 4.29881 13.0349 4.00033 12.6667 4.00033H3.33337C2.96519 4.00033 2.66671 4.29881 2.66671 4.66699V5.44747C2.87523 5.37376 3.09961 5.33366 3.33337 5.33366H12.6667C12.9004 5.33366 13.1248 5.37376 13.3334 5.44747ZM2.66671 7.33366V8.00033H6.00004C6.01895 8.00033 6.03769 8.00113 6.0562 8.00266C6.35182 7.97679 6.6389 8.15206 6.74237 8.44486C6.92571 8.96359 7.42051 9.33366 7.99997 9.33366C8.57951 9.33366 9.07431 8.96359 9.25764 8.44486C9.36111 8.15206 9.64824 7.97679 9.94384 8.00266C9.96237 8.00113 9.98111 8.00033 10 8.00033H13.3334V7.33366C13.3334 6.96546 13.0349 6.66699 12.6667 6.66699H3.33337C2.96519 6.66699 2.66671 6.96546 2.66671 7.33366ZM10.3097 9.33366C9.84897 10.1302 8.98777 10.667 7.99997 10.667C7.01224 10.667 6.15105 10.1302 5.69029 9.33366H2.66671V11.3337C2.66671 11.7019 2.96519 12.0003 3.33337 12.0003H12.6667C13.0349 12.0003 13.3334 11.7019 13.3334 11.3337V9.33366H10.3097Z" fill="currentColor"/>
</g>
<defs>
<clipPath id="clip0_5699_27324">
<rect width="16" height="16" fill="white"/>
</clipPath>
</defs>
</svg>
