<svg width="16" height="16" viewBox="0 0 16 16" fill="none" xmlns="http://www.w3.org/2000/svg">
<g clip-path="url(#clip0_link)">
<path d="M10.8284 6.58541C11.0687 6.34509 11.4469 6.3266 11.7084 6.52995L11.7712 6.58541L13.1854 7.99964C14.6174 9.43157 14.6174 11.7532 13.1854 13.185C11.7933 14.5772 9.5602 14.6159 8.12132 13.3011L7.99997 13.185L6.58578 11.7708C6.32543 11.5105 6.32543 11.0884 6.58578 10.828C6.82608 10.5877 7.20425 10.5692 7.46577 10.7726L7.52857 10.828L8.94277 12.2422C9.85404 13.1535 11.3314 13.1535 12.2426 12.2422C13.1213 11.3636 13.1527 9.95845 12.3368 9.04218L12.2426 8.94244L10.8284 7.52824C10.568 7.26784 10.568 6.84577 10.8284 6.58541ZM6.11428 6.114C6.35461 5.87368 6.73279 5.85519 6.99431 6.05854L7.05711 6.114L9.88551 8.94244C10.1458 9.20277 10.1458 9.62491 9.88551 9.88524C9.6452 10.1255 9.26703 10.144 9.00551 9.9407L8.94271 9.88524L6.11428 7.05684C5.85393 6.79644 5.85393 6.37435 6.11428 6.114ZM2.81454 2.81417C4.20669 1.42203 6.43978 1.38336 7.87863 2.69816L7.99997 2.81417L9.41417 4.22839C9.67457 4.48873 9.67457 4.91085 9.41417 5.17119C9.17387 5.41152 8.79575 5.43001 8.53419 5.22665L8.47137 5.17119L7.05717 3.75698C6.14596 2.84576 4.66857 2.84576 3.75735 3.75698C2.87867 4.63566 2.84729 6.04079 3.66321 6.95709L3.75735 7.05684L5.17157 8.47104C5.43191 8.73137 5.43191 9.15351 5.17157 9.41384C4.93124 9.65415 4.55309 9.67263 4.29156 9.4693L4.22875 9.41384L2.81454 7.99964C1.38262 6.5677 1.38262 4.24609 2.81454 2.81417Z" fill="currentColor"/>
</g>
<defs>
<clipPath id="clip0_link">
<rect width="16" height="16" fill="white"/>
</clipPath>
</defs>
</svg>
