<svg width="16" height="16" viewBox="0 0 16 16" fill="none" xmlns="http://www.w3.org/2000/svg">
<g clip-path="url(#clip0_5699_25377)">
<path fill-rule="evenodd" clip-rule="evenodd" d="M12 2C12.7029 2 13.2787 2.54392 13.3296 3.23382L13.3333 3.33333V13.3333C13.3333 14.0363 12.7894 14.6121 12.0995 14.663L12 14.6667H3.99996C3.29705 14.6667 2.72118 14.1228 2.67028 13.4328L2.66663 13.3333V3.33333C2.66663 2.63043 3.21054 2.05456 3.90045 2.00366L3.99996 2H12ZM12 3.33333H3.99996V13.3333H12V3.33333ZM6.33329 10.6667C6.88556 10.6667 7.33329 11.1144 7.33329 11.6667C7.33329 12.2189 6.88556 12.6667 6.33329 12.6667C5.78101 12.6667 5.33329 12.2189 5.33329 11.6667C5.33329 11.1144 5.78101 10.6667 6.33329 10.6667ZM9.66663 10.6667C10.2189 10.6667 10.6666 11.1144 10.6666 11.6667C10.6666 12.2189 10.2189 12.6667 9.66663 12.6667C9.11436 12.6667 8.66663 12.2189 8.66663 11.6667C8.66663 11.1144 9.11436 10.6667 9.66663 10.6667ZM6.33329 8C6.88556 8 7.33329 8.44773 7.33329 9C7.33329 9.55227 6.88556 10 6.33329 10C5.78101 10 5.33329 9.55227 5.33329 9C5.33329 8.44773 5.78101 8 6.33329 8ZM9.66663 8C10.2189 8 10.6666 8.44773 10.6666 9C10.6666 9.55227 10.2189 10 9.66663 10C9.11436 10 8.66663 9.55227 8.66663 9C8.66663 8.44773 9.11436 8 9.66663 8ZM10.3333 4C10.8531 4 11.2803 4.39659 11.3287 4.90369L11.3333 5V6.33333C11.3333 6.85311 10.9367 7.2803 10.4296 7.32876L10.3333 7.33333H5.66663C5.14683 7.33333 4.71966 6.93673 4.6712 6.42964L4.66663 6.33333V5C4.66663 4.4802 5.06322 4.05303 5.57032 4.00458L5.66663 4H10.3333ZM9.99996 5.33333H5.99996V6H9.99996V5.33333Z" fill="currentColor"/>
</g>
<defs>
<clipPath id="clip0_5699_25377">
<rect width="16" height="16" fill="white"/>
</clipPath>
</defs>
</svg>
