<svg width="16" height="16" viewBox="0 0 16 16" fill="none" xmlns="http://www.w3.org/2000/svg">
<g clip-path="url(#clip0_5699_25567)">
<path fill-rule="evenodd" clip-rule="evenodd" d="M8 1.33301C11.3137 1.33301 14 4.0193 14 7.33301C14 9.38221 12.8827 11.0591 11.7056 12.2627C11.0598 12.9229 10.3731 13.4646 9.7878 13.8739L9.50426 14.0675C9.45863 14.0979 9.41387 14.1273 9.37006 14.1559L9.11927 14.3156L8.89525 14.4524L8.61807 14.6137C8.23193 14.8317 7.76807 14.8317 7.38193 14.6137L7.10475 14.4524L6.75844 14.2386C6.71661 14.212 6.67375 14.1844 6.62994 14.1559L6.35633 13.9734C5.74163 13.554 4.99404 12.978 4.29441 12.2627C3.11727 11.0591 2 9.38221 2 7.33301C2 4.0193 4.68629 1.33301 8 1.33301ZM8 2.66634C5.42267 2.66634 3.33333 4.75568 3.33333 7.33301C3.33333 8.88127 4.18135 10.2402 5.24761 11.3303C5.73791 11.8316 6.25836 12.2593 6.72861 12.6039L7.0338 12.8212C7.13246 12.8894 7.22776 12.9535 7.31882 13.0132L7.57839 13.1793L7.80721 13.3189L8 13.4313L8.30303 13.2525L8.54789 13.0995C8.67779 13.0164 8.81822 12.9235 8.96621 12.8212L9.2714 12.6039C9.74165 12.2593 10.2621 11.8316 10.7524 11.3303C11.8187 10.2402 12.6667 8.88127 12.6667 7.33301C12.6667 4.75568 10.5773 2.66634 8 2.66634ZM8 4.66634C9.47273 4.66634 10.6667 5.86025 10.6667 7.33301C10.6667 8.80574 9.47273 9.99967 8 9.99967C6.52724 9.99967 5.33333 8.80574 5.33333 7.33301C5.33333 5.86025 6.52724 4.66634 8 4.66634ZM8 5.99967C7.2636 5.99967 6.66667 6.59663 6.66667 7.33301C6.66667 8.06941 7.2636 8.66634 8 8.66634C8.7364 8.66634 9.33333 8.06941 9.33333 7.33301C9.33333 6.59663 8.7364 5.99967 8 5.99967Z" fill="currentColor"/>
</g>
<defs>
<clipPath id="clip0_5699_25567">
<rect width="16" height="16" fill="white"/>
</clipPath>
</defs>
</svg>
