<svg preserveAspectRatio="none" width="100%" height="100%" overflow="visible" style="display: block;" viewBox="0 0 12 12.245" fill="none" xmlns="http://www.w3.org/2000/svg">
<g id="Group">
<path id="Vector" d="M6.12238 5.00929V7.38036H9.41738C9.27269 8.14289 8.8385 8.78856 8.1873 9.22269L10.1743 10.7645C11.332 9.69584 11.9999 8.12624 11.9999 6.26168C11.9999 5.82754 11.961 5.41006 11.8886 5.00936L6.12238 5.00929Z" fill="var(--fill-0, #61667C)"/>
<path id="Vector_2" d="M2.69117 7.28781L2.24303 7.63086L0.656722 8.86646C1.66415 10.8646 3.72894 12.245 6.12226 12.245C7.77528 12.245 9.16117 11.6995 10.1742 10.7645L8.18718 9.22269C7.64172 9.59004 6.94597 9.8127 6.12226 9.8127C4.53042 9.8127 3.17795 8.73849 2.69368 7.29134L2.69117 7.28781Z" fill="var(--fill-0, #34A853)"/>
<path id="Vector_3" d="M0.656728 3.3785C0.239308 4.20222 0 5.13174 0 6.12245C0 7.11316 0.239308 8.04268 0.656728 8.8664C0.656728 8.87193 2.69388 7.28568 2.69388 7.28568C2.57143 6.91834 2.49905 6.52875 2.49905 6.12238C2.49905 5.71602 2.57143 5.32643 2.69388 4.95909L0.656728 3.3785Z" fill="var(--fill-0, #FBBC05)"/>
<path id="Vector_4" d="M6.12238 2.43786C7.02407 2.43786 7.82554 2.74954 8.46562 3.35067L10.2189 1.59743C9.15577 0.60672 7.77547 0 6.12238 0C3.72907 0 1.66415 1.37477 0.656722 3.3785L2.69381 4.95922C3.17801 3.51207 4.53054 2.43786 6.12238 2.43786Z" fill="var(--fill-0, #EA4335)"/>
</g>
</svg>
