<svg width="18" height="18" viewBox="0 0 18 18" fill="none" xmlns="http://www.w3.org/2000/svg">
<g clip-path="url(#clip0_5662_19716)">
<path fill-rule="evenodd" clip-rule="evenodd" d="M14.25 2.25C14.6478 2.25 15.0294 2.40804 15.3107 2.68934C15.592 2.97064 15.75 3.35218 15.75 3.75V14.25C15.75 14.6478 15.592 15.0294 15.3107 15.3107C15.0294 15.592 14.6478 15.75 14.25 15.75H3.75C3.35218 15.75 2.97064 15.592 2.68934 15.3107C2.40804 15.0294 2.25 14.6478 2.25 14.25V3.75C2.25 3.35218 2.40804 2.97064 2.68934 2.68934C2.97064 2.40804 3.35218 2.25 3.75 2.25H14.25ZM6 3.75H3.75V14.25H6V3.75ZM14.25 3.75H7.5V14.25H14.25V3.75ZM11.0948 6.879C11.2297 6.74449 11.4108 6.66639 11.6013 6.66058C11.7917 6.65476 11.9773 6.72166 12.1202 6.84769C12.2631 6.97371 12.3527 7.14941 12.3708 7.33911C12.3889 7.5288 12.3341 7.71826 12.2175 7.869L12.1553 7.9395L11.0948 9L12.1553 10.0605C12.2912 10.1952 12.3705 10.3767 12.377 10.5679C12.3835 10.7591 12.3167 10.9456 12.1902 11.0892C12.0636 11.2327 11.8871 11.3225 11.6965 11.3402C11.506 11.3578 11.3159 11.3019 11.1652 11.184L11.0948 11.121L9.504 9.531C9.37476 9.40195 9.29705 9.23018 9.28545 9.0479C9.27385 8.86563 9.32916 8.68539 9.441 8.541L9.504 8.46975L11.094 6.879H11.0948Z" fill="#8093B8"/>
</g>
<defs>
<clipPath id="clip0_5662_19716">
<rect width="18" height="18" fill="white"/>
</clipPath>
</defs>
</svg>
