<svg width="14" height="14" viewBox="0 0 14 14" fill="none" xmlns="http://www.w3.org/2000/svg">
<path d="M8.16655 3.63985C8.36185 3.63985 8.50996 3.72226 8.61998 3.83938C8.79772 4.02861 8.87303 4.30679 8.98392 4.5374C9.55354 5.72228 10.4507 6.71691 11.5673 7.40174L11.8207 7.55103C12.0498 7.69064 12.2494 7.85322 12.25 8.1655C12.2508 8.59256 11.8792 8.74067 11.5677 8.93148C10.4507 9.61654 9.55354 10.6112 8.98392 11.7961C8.87303 12.0267 8.79772 12.3048 8.61998 12.4941C8.50996 12.6111 8.36185 12.6936 8.16655 12.6936C7.97131 12.6936 7.82326 12.6111 7.7133 12.494C7.61063 12.3847 7.54282 12.2479 7.4828 12.1077L7.39523 11.8975C7.38048 11.8631 7.36537 11.8291 7.34948 11.7961C6.77985 10.6111 5.88263 9.61654 4.76587 8.93159L4.57854 8.82036C4.32608 8.66932 4.08252 8.49608 4.08334 8.16521C4.0844 7.73961 4.45488 7.59243 4.76568 7.40198C5.88263 6.71691 6.77985 5.72229 7.34936 4.53753C7.46019 4.30692 7.53562 4.02868 7.7133 3.83947C7.82326 3.72237 7.97125 3.63985 8.16655 3.63985ZM8.16608 5.49252C7.55883 6.54984 6.74561 7.48627 5.72717 8.16649C6.74392 8.85343 7.55341 9.78338 8.16667 10.8399C8.7808 9.78192 9.59554 8.86398 10.605 8.16649C9.5914 7.4746 8.77987 6.5499 8.16608 5.49252ZM3.93564 3.39805C4.02269 3.5049 4.07462 3.62594 4.13359 3.74859C4.29366 4.08154 4.53545 4.36687 4.83494 4.57809L4.9499 4.65378C5.44937 4.96003 5.46834 5.47584 5.02061 5.79921L4.94996 5.84623C4.5972 6.06258 4.31367 6.37688 4.13365 6.75133L4.06716 6.89272C4.01036 7.00983 3.94475 7.12093 3.83024 7.1946C3.64634 7.3129 3.35379 7.3129 3.16988 7.1946C3.01534 7.0952 2.94267 6.90993 2.86654 6.75144C2.68645 6.37688 2.40293 6.06258 2.05022 5.84623C1.94611 5.7824 1.84687 5.72164 1.76118 5.63233C1.58892 5.39958 1.58899 5.0995 1.76174 4.86703C1.84935 4.77593 1.94295 4.71955 2.05016 4.65381C2.40294 4.43745 2.68646 4.12316 2.86651 3.74863C2.927 3.62277 2.97585 3.50687 3.0644 3.39814C3.30367 3.16223 3.69632 3.16222 3.93564 3.39805ZM3.50015 4.91225C3.43275 4.99849 3.35752 5.07946 3.28047 5.1571L3.1834 5.25L3.28047 5.34293C3.35774 5.4208 3.42997 5.50292 3.50015 5.58717C3.56925 5.5022 3.64253 5.42065 3.71967 5.34291L3.81574 5.25L3.71964 5.1571C3.64279 5.07966 3.56645 4.99905 3.50015 4.91225ZM5.83334 1.16667C6.15551 1.16667 6.41667 1.42784 6.41667 1.75C6.73884 1.75 7.00001 2.01117 7.00001 2.33333C7.00001 2.6555 6.73884 2.91667 6.41667 2.91667C6.41667 3.23883 6.15551 3.5 5.83334 3.5C5.51117 3.5 5.25001 3.23883 5.25001 2.91667C4.92784 2.91667 4.66667 2.6555 4.66667 2.33333C4.66667 2.01117 4.92784 1.75 5.25001 1.75C5.25001 1.42784 5.51117 1.16667 5.83334 1.16667Z" fill="#61667C"/>
</svg>
