<svg width="22" height="22" viewBox="0 0 22 22" fill="none" xmlns="http://www.w3.org/2000/svg">
<path opacity="0.4" d="M14.8409 8.12153C14.4834 8.12153 14.1992 7.83737 14.1992 7.47987V6.30653C14.1992 5.4082 13.8142 4.54653 13.1542 3.94153C12.4759 3.32737 11.6051 3.0432 10.6884 3.1257C9.14841 3.27237 7.80091 4.83987 7.80091 6.47153V7.29653C7.80091 7.65403 7.51674 7.9382 7.15924 7.9382C6.80174 7.9382 6.51758 7.65403 6.51758 7.29653V6.47153C6.51758 4.17987 8.36925 2.06237 10.5601 1.85153C11.8342 1.73237 13.0626 2.1357 14.0067 2.99737C14.9417 3.8407 15.4734 5.0507 15.4734 6.30653V7.47987C15.4734 7.83737 15.1892 8.12153 14.8409 8.12153Z" fill="currentColor"/>
<path d="M18.2968 8.21324C17.5268 7.36074 16.2618 6.94824 14.4101 6.94824H7.59009C5.73843 6.94824 4.47343 7.36074 3.70343 8.21324C2.81426 9.20324 2.84176 10.5232 2.94259 11.4399L3.58426 16.5457C3.77676 18.3332 4.50093 20.1666 8.44259 20.1666H13.5576C17.4993 20.1666 18.2234 18.3332 18.4159 16.5549L19.0576 11.4307C19.1584 10.5232 19.1768 9.20324 18.2968 8.21324ZM7.71843 12.0541H7.70926C7.20509 12.0541 6.79259 11.6416 6.79259 11.1374C6.79259 10.6332 7.20509 10.2207 7.70926 10.2207C8.22259 10.2207 8.63509 10.6332 8.63509 11.1374C8.63509 11.6416 8.22259 12.0541 7.71843 12.0541ZM14.1351 12.0541H14.1259C13.6218 12.0541 13.2093 11.6416 13.2093 11.1374C13.2093 10.6332 13.6218 10.2207 14.1259 10.2207C14.6393 10.2207 15.0518 10.6332 15.0518 11.1374C15.0518 11.6416 14.6393 12.0541 14.1351 12.0541Z" fill="currentColor"/>
</svg>
