<svg width="16" height="16" viewBox="0 0 16 16" fill="none" xmlns="http://www.w3.org/2000/svg">
<g clip-path="url(#clip0_users)">
<path fill-rule="evenodd" clip-rule="evenodd" d="M8.66671 8.66667C10.1394 8.66667 11.3334 9.8606 11.3334 11.3333V12.6667C11.3334 13.0349 11.0349 13.3333 10.6667 13.3333C10.2985 13.3333 10 13.0349 10 12.6667V11.3333C10 10.5969 9.40311 10 8.66671 10H4.00004C3.26366 10 2.66671 10.5969 2.66671 11.3333V12.6667C2.66671 13.0349 2.36823 13.3333 2.00004 13.3333C1.63185 13.3333 1.33337 13.0349 1.33337 12.6667V11.3333C1.33337 9.8606 2.52728 8.66667 4.00004 8.66667H8.66671ZM12.6666 8.6668C13.7712 8.6668 14.6666 9.56227 14.6666 10.6668V12.0001C14.6666 12.3683 14.3682 12.6668 14 12.6668C13.6318 12.6668 13.3333 12.3683 13.3333 12.0001V10.6668C13.3333 10.2987 13.0348 10.0001 12.6666 10.0001H11.7228C11.4908 9.46933 11.1247 9.0106 10.6672 8.6668H12.6666ZM6.33336 2C7.99024 2 9.33337 3.34315 9.33337 5C9.33337 6.65685 7.99024 8 6.33336 8C4.6765 8 3.33336 6.65685 3.33336 5C3.33336 3.34315 4.6765 2 6.33336 2ZM12 4C13.1046 4 14 4.89543 14 6C14 7.1046 13.1046 8 12 8C10.8954 8 10 7.1046 10 6C10 4.89543 10.8954 4 12 4ZM6.33336 3.33333C5.41288 3.33333 4.66669 4.07953 4.66669 5C4.66669 5.92047 5.41288 6.66667 6.33336 6.66667C7.25384 6.66667 8.00004 5.92047 8.00004 5C8.00004 4.07953 7.25384 3.33333 6.33336 3.33333ZM12 5.33333C11.6318 5.33333 11.3334 5.63181 11.3334 6C11.3334 6.36819 11.6318 6.66667 12 6.66667C12.3682 6.66667 12.6667 6.36819 12.6667 6C12.6667 5.63181 12.3682 5.33333 12 5.33333Z" fill="currentColor"/>
</g>
<defs>
<clipPath id="clip0_users">
<rect width="16" height="16" fill="white"/>
</clipPath>
</defs>
</svg>
