<svg width="16" height="16" viewBox="0 0 16 16" fill="none" xmlns="http://www.w3.org/2000/svg">
<g clip-path="url(#clip0_5699_25541)">
<path d="M10 2.66699C10.7364 2.66699 11.3334 3.26395 11.3334 4.00033V4.66699H12.3463C12.7513 4.66699 13.1344 4.85111 13.3874 5.1674L14.3745 6.40126C14.5636 6.63766 14.6667 6.93139 14.6667 7.23419V10.0003C14.6667 10.7367 14.0698 11.3337 13.3334 11.3337C13.3334 12.4383 12.438 13.3337 11.3334 13.3337C10.2288 13.3337 9.33337 12.4383 9.33337 11.3337H6.66671C6.66671 12.4383 5.77127 13.3337 4.66671 13.3337C3.56214 13.3337 2.66671 12.4383 2.66671 11.3337C1.93033 11.3337 1.33337 10.7367 1.33337 10.0003V4.00033C1.33337 3.26395 1.93033 2.66699 2.66671 2.66699H10ZM4.66671 10.667C4.29852 10.667 4.00004 10.9655 4.00004 11.3337C4.00004 11.7019 4.29852 12.0003 4.66671 12.0003C5.03489 12.0003 5.33337 11.7019 5.33337 11.3337C5.33337 10.9655 5.03489 10.667 4.66671 10.667ZM11.3334 10.667C10.9652 10.667 10.6667 10.9655 10.6667 11.3337C10.6667 11.7019 10.9652 12.0003 11.3334 12.0003C11.7016 12.0003 12 11.7019 12 11.3337C12 10.9655 11.7016 10.667 11.3334 10.667ZM10 4.00033H2.66671V10.0003H3.17597C3.54218 9.59119 4.07437 9.33366 4.66671 9.33366C5.21348 9.33366 5.709 9.55309 6.07004 9.90865L6.15745 10.0003H9.84264L9.91917 9.91945L10 9.84293V4.00033ZM12.3463 6.00033H11.3334V9.33366C11.8801 9.33366 12.3757 9.55309 12.7367 9.90865L12.8241 10.0003H13.3334V7.23419L12.3463 6.00033Z" fill="currentColor"/>
</g>
<defs>
<clipPath id="clip0_5699_25541">
<rect width="16" height="16" fill="white"/>
</clipPath>
</defs>
</svg>
