<svg width="16" height="16" viewBox="0 0 16 16" fill="none" xmlns="http://www.w3.org/2000/svg">
<g clip-path="url(#clip0_code)">
<path d="M9.65724 2.09529C10.0117 2.19478 10.2184 2.56281 10.119 2.9173L7.16491 13.4422C7.06538 13.7967 6.69738 14.0034 6.34288 13.9039C5.98838 13.8044 5.78167 13.4363 5.88117 13.0819L8.83524 2.55699C8.93471 2.2025 9.30278 1.99579 9.65724 2.09529ZM4.80476 4.69968C5.06511 4.96003 5.06511 5.38214 4.80476 5.64249L2.44774 7.99954L4.80476 10.3565C5.06511 10.6169 5.06511 11.039 4.80476 11.2993C4.54441 11.5597 4.1223 11.5597 3.86195 11.2993L1.03352 8.47094C0.908497 8.34587 0.838257 8.17634 0.838257 7.99954C0.838257 7.82267 0.908497 7.65314 1.03352 7.52814L3.86195 4.69968C4.1223 4.43933 4.54441 4.43933 4.80476 4.69968ZM11.1953 5.64249C10.9349 5.38214 10.9349 4.96003 11.1953 4.69968C11.4556 4.43933 11.8777 4.43933 12.1381 4.69968L14.9665 7.52814C15.0915 7.65314 15.1618 7.82267 15.1618 7.99954C15.1618 8.17634 15.0915 8.34587 14.9665 8.47094L12.1381 11.2993C11.8777 11.5597 11.4556 11.5597 11.1953 11.2993C10.9349 11.039 10.9349 10.6169 11.1953 10.3565L13.5523 7.99954L11.1953 5.64249Z" fill="currentColor"/>
</g>
<defs>
<clipPath id="clip0_code">
<rect width="16" height="16" fill="white"/>
</clipPath>
</defs>
</svg>
