<svg preserveAspectRatio="none" overflow="visible" style="display: block;" width="24" height="24" viewBox="0 0 24 24" fill="none" xmlns="http://www.w3.org/2000/svg">
<g id="flask_3_fill">
<g id="Vector">
</g>
<path id="Vector_2" fill-rule="evenodd" clip-rule="evenodd" d="M8 3C8 2.73478 8.10536 2.48043 8.29289 2.29289C8.48043 2.10536 8.73478 2 9 2H15C15.2652 2 15.5196 2.10536 15.7071 2.29289C15.8946 2.48043 16 2.73478 16 3C16 3.26522 15.8946 3.51957 15.7071 3.70711C15.5196 3.89464 15.2652 4 15 4V8.633C15 8.635 15.003 8.641 15.01 8.65C15.023 8.67 15.051 8.698 15.094 8.72C16.5117 9.41844 17.6514 10.5761 18.3275 12.0046C19.0037 13.433 19.1765 15.0483 18.818 16.5875C18.4594 18.1267 17.5905 19.4993 16.3527 20.4819C15.1148 21.4645 13.5809 21.9994 12.0005 21.9994C10.4201 21.9994 8.88615 21.4645 7.64833 20.4819C6.4105 19.4993 5.54161 18.1267 5.18304 16.5875C4.82447 15.0483 4.99733 13.433 5.67348 12.0046C6.34963 10.5761 7.48928 9.41844 8.907 8.72C8.94037 8.704 8.96924 8.67994 8.991 8.65C8.9948 8.6448 8.99783 8.63907 9 8.633V4C8.73478 4 8.48043 3.89464 8.29289 3.70711C8.10536 3.51957 8 3.26522 8 3ZM11 4V8.634C11 9.503 10.45 10.187 9.791 10.513C9.10635 10.8507 8.50796 11.3404 8.04156 11.9448C7.57517 12.5491 7.25311 13.2521 7.1 14H16.9C16.7469 13.2521 16.4248 12.5491 15.9584 11.9448C15.492 11.3404 14.8936 10.8507 14.209 10.513C13.549 10.187 13 9.503 13 8.634V4H11Z" fill="#2465DE"/>
</g>
</svg>
