<svg width="18" height="18" viewBox="0 0 18 18" fill="none" xmlns="http://www.w3.org/2000/svg">
<g clip-path="url(#clip0_sparkle)">
<path d="M10.5 4.68C10.7512 4.68 10.941 4.78575 11.0827 4.9365C11.3115 5.1795 11.4082 5.53725 11.5507 5.8335C12.2812 7.35462 13.4345 8.6331 14.8725 9.516L15.198 9.70875C15.4927 9.888 15.7492 10.0973 15.75 10.4985C15.7507 11.0475 15.273 11.238 14.8725 11.4833C13.4345 12.3662 12.2813 13.6447 11.5507 15.1658C11.4082 15.4628 11.3107 15.8205 11.0827 16.0635C10.9417 16.2143 10.7512 16.32 10.5 16.32C10.2487 16.32 10.0582 16.2143 9.91724 16.0635C9.78524 15.9233 9.69824 15.747 9.62099 15.567L9.50849 15.297C9.4897 15.2531 9.46994 15.2096 9.44924 15.1665C8.71876 13.6454 7.56552 12.3669 6.12749 11.484L5.88674 11.3408C5.56199 11.1458 5.24924 10.9238 5.24999 10.4985C5.25149 9.951 5.72774 9.762 6.12749 9.51675C7.56552 8.63385 8.71876 7.35537 9.44924 5.83425C9.59174 5.53725 9.68924 5.1795 9.91724 4.9365C10.0582 4.7865 10.2487 4.68 10.5 4.68ZM5.06024 4.36875C5.17199 4.506 5.23874 4.66125 5.31524 4.8195C5.52074 5.247 5.83124 5.6145 6.21599 5.886L6.36449 5.9835C7.00649 6.37725 7.03049 7.041 6.45449 7.4565L6.36449 7.5165C5.9099 7.79552 5.54535 8.19965 5.31449 8.6805L5.22899 8.862C5.15624 9.012 5.07149 9.15525 4.92449 9.2505C4.68824 9.402 4.31174 9.402 4.07549 9.2505C3.87674 9.123 3.78299 8.8845 3.68549 8.6805C3.4546 8.19968 3.09006 7.79556 2.63549 7.5165C2.50199 7.434 2.37449 7.35675 2.26424 7.24125C2.15645 7.09985 2.09813 6.92693 2.09827 6.74912C2.0984 6.57132 2.15698 6.39849 2.26499 6.25725C2.37749 6.14025 2.49749 6.06825 2.63624 5.9835C3.09056 5.70437 3.45484 5.30025 3.68549 4.8195C3.76349 4.6575 3.82574 4.509 3.94049 4.3695C4.09042 4.22376 4.29128 4.14223 4.50037 4.14223C4.70946 4.14223 4.91031 4.22376 5.06024 4.3695V4.36875ZM7.49999 1.5C7.6989 1.5 7.88967 1.57902 8.03032 1.71967C8.17097 1.86032 8.24999 2.05109 8.24999 2.25C8.4489 2.25 8.63967 2.32902 8.78032 2.46967C8.92097 2.61032 8.99999 2.80109 8.99999 3C8.99999 3.19891 8.92097 3.38968 8.78032 3.53033C8.63967 3.67098 8.4489 3.75 8.24999 3.75C8.24999 3.94891 8.17097 4.13968 8.03032 4.28033C7.88967 4.42098 7.6989 4.5 7.49999 4.5C7.30108 4.5 7.11031 4.42098 6.96966 4.28033C6.82901 4.13968 6.74999 3.94891 6.74999 3.75C6.55108 3.75 6.36031 3.67098 6.21966 3.53033C6.07901 3.38968 5.99999 3.19891 5.99999 3C5.99999 2.80109 6.07901 2.61032 6.21966 2.46967C6.36031 2.32902 6.55108 2.25 6.74999 2.25C6.74999 2.05109 6.82901 1.86032 6.96966 1.71967C7.11031 1.57902 7.30108 1.5 7.49999 1.5Z" fill="currentColor"/>
</g>
<defs>
<clipPath id="clip0_sparkle">
<rect width="18" height="18" fill="white"/>
</clipPath>
</defs>
</svg>
