<svg width="16" height="16" viewBox="0 0 16 16" fill="none" xmlns="http://www.w3.org/2000/svg">
<g clip-path="url(#clip0_5699_27278)">
<path fill-rule="evenodd" clip-rule="evenodd" d="M11.3334 1.33301C12.3985 1.33301 13.2691 2.16562 13.33 3.21549L13.3334 3.33301V11.3328C13.6033 11.3329 13.8572 11.498 13.9576 11.7656C14.0777 12.0857 13.9356 12.4399 13.6387 12.5924L13.5675 12.6239L8.23417 14.6239C8.11343 14.6692 7.98282 14.6782 7.85813 14.651L7.76597 14.6239L2.43264 12.6239C2.08789 12.4946 1.91323 12.1103 2.04251 11.7656C2.13282 11.5248 2.34758 11.3669 2.58637 11.3377L2.66673 11.3328V3.33301C2.66673 2.26789 3.49934 1.39723 4.54921 1.3364L4.66673 1.33301H11.3334ZM11.3334 2.66634H4.66673C4.29853 2.66634 4.00006 2.96482 4.00006 3.33301V11.7877L8.00004 13.2877L12 11.7877V3.33301C12 2.96482 11.7016 2.66634 11.3334 2.66634ZM8.00004 3.33301C8.36824 3.33301 8.66671 3.63149 8.66671 3.99967V4.66634H10C10.3682 4.66634 10.6667 4.96482 10.6667 5.33301C10.6667 5.70119 10.3682 5.99967 10 5.99967H8.66671V6.66634H9.33337C10.2538 6.66634 11 7.41254 11 8.33301C11 9.25347 10.2538 9.99967 9.33337 9.99967H8.66671V10.6663C8.66671 11.0345 8.36824 11.333 8.00004 11.333C7.63184 11.333 7.33337 11.0345 7.33337 10.6663V9.99967H6.00004C5.63185 9.99967 5.33337 9.70121 5.33337 9.33301C5.33337 8.96481 5.63185 8.66634 6.00004 8.66634H7.33337V7.99967H6.66671C5.74623 7.99967 5.00004 7.25347 5.00004 6.33301C5.00004 5.41253 5.74623 4.66634 6.66671 4.66634H7.33337V3.99967C7.33337 3.63149 7.63184 3.33301 8.00004 3.33301ZM9.33337 7.99967H8.66671V8.66634H9.33337C9.51744 8.66634 9.66671 8.51707 9.66671 8.33301C9.66671 8.16939 9.54877 8.03327 9.39328 8.00504L9.33337 7.99967ZM7.33337 5.99967H6.66671C6.48261 5.99967 6.33337 6.14891 6.33337 6.33301C6.33337 6.49665 6.45129 6.63275 6.60679 6.66097L6.66671 6.66634H7.33337V5.99967Z" fill="currentColor"/>
</g>
<defs>
<clipPath id="clip0_5699_27278">
<rect width="16" height="16" fill="white"/>
</clipPath>
</defs>
</svg>
