<svg width="16" height="16" viewBox="0 0 16 16" fill="none" xmlns="http://www.w3.org/2000/svg">
<g clip-path="url(#clip0_5699_25472)">
<path d="M13.3334 2C14.0363 2 14.6122 2.54392 14.663 3.23382L14.6667 3.33333V12.6667C14.6667 13.3696 14.1228 13.9454 13.4329 13.9963L13.3334 14H2.66671C1.9638 14 1.38793 13.4561 1.33703 12.7662L1.33337 12.6667V3.33333C1.33337 2.63043 1.87729 2.05456 2.5672 2.00366L2.66671 2H13.3334ZM6.58572 8.03353L2.81448 11.8047C2.76949 11.8497 2.71968 11.8869 2.66671 11.9164V12.6667H13.3334V11.9165C13.2803 11.887 13.2304 11.8498 13.1854 11.8047L11.2998 9.91913L10.8284 10.3905L10.9664 10.5286C11.2268 10.7889 11.2268 11.2111 10.9664 11.4714C10.7061 11.7317 10.284 11.7317 10.0236 11.4714L6.58572 8.03353ZM13.3334 3.33333H2.66671V10.0669L5.99646 6.73713C6.3002 6.43339 6.78006 6.41315 7.10731 6.67639L7.17497 6.73713L9.88557 9.44773L10.7105 8.62273C11.0143 8.31903 11.4941 8.29878 11.8214 8.56199L11.889 8.62273L13.3334 10.0671V3.33333ZM10.3334 4.66667C10.8856 4.66667 11.3334 5.11438 11.3334 5.66667C11.3334 6.21895 10.8856 6.66667 10.3334 6.66667C9.78111 6.66667 9.33337 6.21895 9.33337 5.66667C9.33337 5.11438 9.78111 4.66667 10.3334 4.66667Z" fill="currentColor"/>
</g>
<defs>
<clipPath id="clip0_5699_25472">
<rect width="16" height="16" fill="white"/>
</clipPath>
</defs>
</svg>
