<svg width="16" height="16" viewBox="36.362 325.500 12.024 13.000" fill="none" xmlns="http://www.w3.org/2000/svg">
  <path d="M42.5522 338C42.184 338 41.8855 337.702 41.8855 337.333C41.8855 336.991 42.1429 336.71 42.4745 336.671L42.5522 336.667H45.8855C46.2274 336.667 46.5092 336.409 46.5477 336.078L46.5522 336L46.5522 328C46.5522 327.658 46.2948 327.376 45.9633 327.338L45.8855 327.333L42.8855 327.333C42.5173 327.333 42.2189 327.035 42.2189 326.667C42.2189 326.325 42.4762 326.043 42.8078 326.004L42.8855 326L45.8855 326C46.9507 326 47.8213 326.833 47.8821 327.882L47.8855 328V336C47.8855 337.065 47.0529 337.936 46.0031 337.997L45.8855 338H42.5522ZM38.7475 334.357L36.8619 332.471C36.6015 332.211 36.6015 331.789 36.8619 331.529L38.7475 329.643C39.0079 329.383 39.4299 329.383 39.6903 329.643C39.9507 329.903 39.9507 330.325 39.6903 330.586L38.9427 331.333L42.5522 331.333C42.9204 331.333 43.2189 331.632 43.2189 332C43.2189 332.368 42.9204 332.667 42.5522 332.667L38.9427 332.667L39.6903 333.414C39.9507 333.675 39.9507 334.097 39.6903 334.357C39.4299 334.617 39.0079 334.617 38.7475 334.357Z" fill="currentColor"/>
</svg>