<svg width="14" height="14" viewBox="0 0 14 14" fill="none" xmlns="http://www.w3.org/2000/svg">
<path d="M7 1.16667C10.2216 1.16667 12.8333 3.77834 12.8333 7C12.8333 10.2216 10.2216 12.8333 7 12.8333H2.33333C1.689 12.8333 1.16667 12.311 1.16667 11.6667V7C1.16667 3.77834 3.77834 1.16667 7 1.16667ZM7 2.33333C4.42267 2.33333 2.33333 4.42267 2.33333 7V11.6667H7C9.57734 11.6667 11.6667 9.57734 11.6667 7C11.6667 4.42267 9.57734 2.33333 7 2.33333ZM7 8.16667C7.32218 8.16667 7.58333 8.42783 7.58333 8.75C7.58333 9.04916 7.35815 9.29571 7.06803 9.32941L7 9.33333H5.25C4.92784 9.33333 4.66667 9.07218 4.66667 8.75C4.66667 8.45084 4.89186 8.20429 5.18197 8.17059L5.25 8.16667H7ZM8.75 5.83333C9.07218 5.83333 9.33333 6.09449 9.33333 6.41667C9.33333 6.73884 9.07218 7 8.75 7H5.25C4.92784 7 4.66667 6.73884 4.66667 6.41667C4.66667 6.09449 4.92784 5.83333 5.25 5.83333H8.75Z" fill="#03102F"/>
</svg>
