<svg width="16" height="16" viewBox="0 0 16 16" fill="none" xmlns="http://www.w3.org/2000/svg">
<g clip-path="url(#clip0_piechart)">
<path d="M8.00004 1.33301C11.6819 1.33301 14.6667 4.31777 14.6667 7.99967C14.6667 11.6815 11.6819 14.6663 8.00004 14.6663C4.31814 14.6663 1.33337 11.6815 1.33337 7.99967C1.33337 4.31777 4.31814 1.33301 8.00004 1.33301ZM7.33337 2.7076C4.7025 3.03567 2.66671 5.27993 2.66671 7.99967C2.66671 10.9452 5.05452 13.333 8.00004 13.333C10.7198 13.333 12.964 11.2972 13.2921 8.66634H8.00004C7.63184 8.66634 7.33337 8.36787 7.33337 7.99967V2.7076ZM8.66671 2.7076V7.33301H13.2921C12.9913 4.92053 11.0792 3.00843 8.66671 2.7076Z" fill="currentColor"/>
</g>
<defs>
<clipPath id="clip0_piechart">
<rect width="16" height="16" fill="white"/>
</clipPath>
</defs>
</svg>
