<svg width="16" height="16" viewBox="0 0 16 16" fill="none" xmlns="http://www.w3.org/2000/svg">
<g clip-path="url(#clip0_5699_27442)">
<path d="M13.3333 9.33357C13.5032 9.33375 13.6667 9.39882 13.7902 9.51546C13.9138 9.63211 13.9881 9.79153 13.9981 9.96116C14.0081 10.1308 13.9529 10.2978 13.8438 10.4281C13.7348 10.5584 13.5801 10.6422 13.4113 10.6622L13.3333 10.6669H4.27599L5.80466 12.1956C5.92423 12.3155 5.99364 12.4765 5.99881 12.6458C6.00398 12.8151 5.94452 12.98 5.83249 13.1071C5.72047 13.2341 5.56429 13.3138 5.39568 13.3298C5.22706 13.3459 5.05866 13.2972 4.92466 13.1936L4.86199 13.1382L2.30866 10.5849C1.86533 10.1422 2.14933 9.39623 2.75066 9.33757L2.82733 9.33357H13.3333ZM10.1953 2.86223C10.3101 2.74745 10.4629 2.67849 10.6249 2.66831C10.7869 2.65812 10.9471 2.7074 11.0753 2.8069L11.138 2.86223L13.6913 5.41557C14.1347 5.85823 13.8507 6.60423 13.2493 6.6629L13.1727 6.6669H2.66666C2.49674 6.66671 2.33331 6.60165 2.20975 6.485C2.08619 6.36835 2.01184 6.20893 2.00188 6.0393C1.99192 5.86968 2.04711 5.70265 2.15617 5.57234C2.26523 5.44204 2.41993 5.3583 2.58866 5.33823L2.66666 5.33357H11.724L10.1953 3.8049C10.0703 3.67988 10.0001 3.51034 10.0001 3.33357C10.0001 3.15679 10.0703 2.98725 10.1953 2.86223Z" fill="currentColor"/>
</g>
<defs>
<clipPath id="clip0_5699_27442">
<rect width="16" height="16" fill="white"/>
</clipPath>
</defs>
</svg>
