<svg width="16" height="16" viewBox="0 0 16 16" fill="none" xmlns="http://www.w3.org/2000/svg">
<g clip-path="url(#clip0_5699_27370)">
<path d="M8.468 1.46374L13.1347 3.21374C13.3889 3.30903 13.6079 3.47964 13.7626 3.70278C13.9172 3.92591 14 4.19093 14 4.46241V8.03774C14 9.15202 13.6898 10.2443 13.104 11.1922C12.5182 12.14 11.68 12.9061 10.6833 13.4044L8.44733 14.5224C8.30845 14.5919 8.15529 14.628 8 14.628C7.84471 14.628 7.69155 14.5919 7.55267 14.5224L5.31667 13.4044C4.32003 12.9061 3.48184 12.14 2.89605 11.1922C2.31025 10.2443 1.99998 9.15202 2 8.03774V4.46241C1.99997 4.19093 2.0828 3.92591 2.23744 3.70278C2.39207 3.47964 2.61113 3.30903 2.86533 3.21374L7.532 1.46374C7.83375 1.35063 8.16625 1.35063 8.468 1.46374ZM8 2.71241L3.33333 4.46241V8.03774C3.33349 8.90432 3.57493 9.75374 4.03061 10.4908C4.48629 11.2279 5.13821 11.8236 5.91333 12.2111L8 13.2557L10.0867 12.2124C10.862 11.8248 11.514 11.229 11.9697 10.4916C12.4254 9.75424 12.6668 8.90454 12.6667 8.03774V4.46241L8 2.71241ZM8 9.33374C8.17681 9.33374 8.34638 9.40398 8.4714 9.529C8.59643 9.65403 8.66667 9.82359 8.66667 10.0004C8.66667 10.1772 8.59643 10.3468 8.4714 10.4718C8.34638 10.5968 8.17681 10.6671 8 10.6671C7.82319 10.6671 7.65362 10.5968 7.5286 10.4718C7.40357 10.3468 7.33333 10.1772 7.33333 10.0004C7.33333 9.82359 7.40357 9.65403 7.5286 9.529C7.65362 9.40398 7.82319 9.33374 8 9.33374ZM8 4.66707C8.17681 4.66707 8.34638 4.73731 8.4714 4.86233C8.59643 4.98736 8.66667 5.15693 8.66667 5.33374V8.00041C8.66667 8.17722 8.59643 8.34679 8.4714 8.47181C8.34638 8.59683 8.17681 8.66707 8 8.66707C7.82319 8.66707 7.65362 8.59683 7.5286 8.47181C7.40357 8.34679 7.33333 8.17722 7.33333 8.00041V5.33374C7.33333 5.15693 7.40357 4.98736 7.5286 4.86233C7.65362 4.73731 7.82319 4.66707 8 4.66707Z" fill="currentColor"/>
</g>
<defs>
<clipPath id="clip0_5699_27370">
<rect width="16" height="16" fill="white"/>
</clipPath>
</defs>
</svg>
