<svg width="16" height="16" viewBox="0 0 16 16" fill="none" xmlns="http://www.w3.org/2000/svg">
<g clip-path="url(#clip0_5699_27465)">
<path d="M10.6667 2C11.7319 2 12.6025 2.83262 12.6633 3.88248L12.6667 4V10.6667H13.1667C13.5982 10.6667 13.9531 10.9946 13.9957 11.4148L14 11.5V12.6667C14 13.7318 13.1675 14.6024 12.1176 14.6633L12 14.6667H5.33337C4.26826 14.6667 3.3976 13.8341 3.33677 12.7842L3.33337 12.6667V6H2.16671C1.73523 6 1.38035 5.67209 1.33768 5.25187L1.33337 5.16667V4C1.33337 2.93488 2.16599 2.06423 3.21586 2.0034L3.33337 2H10.6667ZM10.6667 3.33333H4.66671V12.6667C4.66671 13.0349 4.96519 13.3333 5.33337 13.3333C5.70156 13.3333 6.00004 13.0349 6.00004 12.6667V11.5C6.00004 11.0397 6.37313 10.6667 6.83337 10.6667H11.3334V4C11.3334 3.63181 11.0349 3.33333 10.6667 3.33333ZM12.6667 12H7.33337V12.6667C7.33337 12.9004 7.29324 13.1248 7.21957 13.3333H12C12.3682 13.3333 12.6667 13.0349 12.6667 12.6667V12ZM8.00004 8C8.36824 8 8.66671 8.29847 8.66671 8.66667C8.66671 9.03487 8.36824 9.33333 8.00004 9.33333H6.66671C6.29852 9.33333 6.00004 9.03487 6.00004 8.66667C6.00004 8.29847 6.29852 8 6.66671 8H8.00004ZM9.33337 5.33333C9.70157 5.33333 10 5.63181 10 6C10 6.36819 9.70157 6.66667 9.33337 6.66667H6.66671C6.29852 6.66667 6.00004 6.36819 6.00004 6C6.00004 5.63181 6.29852 5.33333 6.66671 5.33333H9.33337ZM3.33337 3.33333C2.99149 3.33333 2.7097 3.5907 2.67119 3.92225L2.66671 4V4.66667H3.33337V3.33333Z" fill="currentColor"/>
</g>
<defs>
<clipPath id="clip0_5699_27465">
<rect width="16" height="16" fill="white"/>
</clipPath>
</defs>
</svg>
