<svg preserveAspectRatio="none" width="100%" height="100%" overflow="visible" style="display: block;" viewBox="0 0 16 16" fill="none" xmlns="http://www.w3.org/2000/svg">
<g id="Inner">
<g id="MingCute">
</g>
<path id="Vector" fill-rule="evenodd" clip-rule="evenodd" d="M11.6667 2C12.0863 2 12.4815 2.19759 12.7333 2.53333L14.5253 4.92267C14.6211 5.05039 14.6631 5.19382 14.6611 5.33333H14.6667V6C14.6667 6.67627 14.4149 7.2938 14 7.76387V12.6667C14 13.4031 13.4031 14 12.6667 14H3.33333C2.59695 14 2 13.4031 2 12.6667V7.76387C1.58509 7.2938 1.33333 6.67627 1.33333 6V5.33333H1.33883C1.33685 5.19383 1.37886 5.05041 1.47467 4.92267L3.26667 2.53333C3.51847 2.19759 3.91366 2 4.33333 2H11.6667ZM10 7.76387C9.5114 8.31747 8.79647 8.66667 8 8.66667C7.20353 8.66667 6.48863 8.31747 6 7.76387C5.51137 8.31747 4.79646 8.66667 4 8.66667C3.82735 8.66667 3.65853 8.65024 3.49502 8.61891L3.33333 8.58267V12.6667H12.6667V8.58267L12.505 8.61891C12.3415 8.65024 12.1726 8.66667 12 8.66667C11.2035 8.66667 10.4886 8.31747 10 7.76387ZM13.3333 6H10.6667C10.6667 6.7364 11.2636 7.33333 12 7.33333C12.7029 7.33333 13.2788 6.78943 13.3297 6.09951L13.3333 6ZM9.33333 6H6.66667C6.66667 6.7364 7.2636 7.33333 8 7.33333C8.70293 7.33333 9.27878 6.78943 9.32968 6.09951L9.33333 6ZM5.33333 6H2.66667C2.66667 6.7364 3.26362 7.33333 4 7.33333C4.70291 7.33333 5.27878 6.78943 5.32968 6.09951L5.33333 6ZM11.6667 3.33333H4.33333L3.33333 4.66667H12.6667L11.6667 3.33333Z" fill="var(--fill-0, #4C689C)"/>
</g>
</svg>
