<svg width="16" height="16" viewBox="0 0 16 16" fill="none" xmlns="http://www.w3.org/2000/svg">
<g clip-path="url(#clip0_5699_25495)">
<path d="M9.04167 8.85076C8.85757 8.85076 8.70833 9 8.70833 9.18409L8.6875 11.5174C8.6875 11.7015 8.83674 11.8508 9.02083 11.8508L11.4375 11.8542C11.6216 11.8542 11.7708 11.7049 11.7708 11.5208L11.7917 9.1875C11.7917 9.0034 11.6424 8.85417 11.4583 8.85417L9.04167 8.85076Z" fill="currentColor"/>
<path fill-rule="evenodd" clip-rule="evenodd" d="M11.3288 2.58892C11.2903 2.25736 11.0086 2 10.6667 2C10.2985 2 10 2.29848 10 2.66667V3.33333H6V2.66667L5.99551 2.58892C5.957 2.25736 5.67522 2 5.33333 2C4.96515 2 4.66667 2.29848 4.66667 2.66667V3.33333H3.33333L3.23382 3.33699C2.54392 3.38789 2 3.96376 2 4.66667V12.6667L2.00366 12.7662C2.05456 13.4561 2.63043 14 3.33333 14H12.6667L12.7662 13.9963C13.4561 13.9454 14 13.3696 14 12.6667V4.66667L13.9963 4.56716C13.9454 3.87725 13.3696 3.33333 12.6667 3.33333H11.3333V2.66667L11.3288 2.58892ZM3.33333 8H12.6667V12.6667H3.33333V8ZM3.33333 4.66667H12.6667V6.66667H3.33333V4.66667Z" fill="currentColor"/>
</g>
<defs>
<clipPath id="clip0_5699_25495">
<rect width="16" height="16" fill="white"/>
</clipPath>
</defs>
</svg>
