<svg width="16" height="16" viewBox="0 0 16 16" fill="none" xmlns="http://www.w3.org/2000/svg">
<g clip-path="url(#clip0_bank)">
<path d="M8.44724 1.47862L14.1139 4.64528C14.4527 4.81468 14.6667 5.16094 14.6667 5.53971V6.50036C14.6667 6.96059 14.2936 7.33372 13.8334 7.33372H13.3334V12.667H14C14.3682 12.667 14.6667 12.9655 14.6667 13.3337C14.6667 13.7019 14.3682 14.0003 14 14.0003H2.00004C1.63185 14.0003 1.33337 13.7019 1.33337 13.3337C1.33337 12.9655 1.63185 12.667 2.00004 12.667H2.66671V7.33372H2.16671C1.70647 7.33372 1.33337 6.96059 1.33337 6.50036V5.53971C1.33337 5.1925 1.5132 4.87261 1.80412 4.69123L7.55284 1.47862C7.83437 1.33786 8.16571 1.33786 8.44724 1.47862ZM12 7.33372H4.00004V12.667H6.00004V8.66699H7.33337V12.667H8.66671V8.66699H10V12.667H12V7.33372ZM8.00004 2.74572L2.66671 5.74572V6.00036H13.3334V5.74572L8.00004 2.74572ZM8.00004 4.00032C8.36824 4.00032 8.66671 4.2988 8.66671 4.66699C8.66671 5.03518 8.36824 5.33366 8.00004 5.33366C7.63184 5.33366 7.33337 5.03518 7.33337 4.66699C7.33337 4.2988 7.63184 4.00032 8.00004 4.00032Z" fill="currentColor"/>
</g>
<defs>
<clipPath id="clip0_bank">
<rect width="16" height="16" fill="white"/>
</clipPath>
</defs>
</svg>
