<svg width="16" height="16" viewBox="0 0 16 16" fill="none" xmlns="http://www.w3.org/2000/svg">
<g clip-path="url(#clip0_5699_25232)">
<path d="M9.99996 1.33301C10.4553 1.33301 10.858 1.56167 11.098 1.91034L11.1546 1.99967H12C12.3363 1.99957 12.6603 2.12661 12.907 2.35534C13.1536 2.58407 13.3047 2.89757 13.33 3.23301L13.3333 3.33301V11.333C13.3332 12.192 13.0016 13.0178 12.4075 13.6382C11.8134 14.2586 11.0028 14.6257 10.1446 14.663L9.99996 14.6663H3.99996C3.66357 14.6664 3.33958 14.5394 3.09293 14.3107C2.84627 14.0819 2.69519 13.7684 2.66996 13.433L2.66663 13.333V3.33301C2.66652 2.99662 2.79356 2.67263 3.02229 2.42598C3.25102 2.17932 3.56452 2.02824 3.89996 2.00301L3.99996 1.99967H4.84529C4.95275 1.81351 5.10363 1.65608 5.28506 1.54082C5.4665 1.42555 5.67311 1.35585 5.88729 1.33767L5.99996 1.33301H9.99996ZM4.66663 3.33301H3.99996V13.333H9.99996C10.5304 13.333 11.0391 13.1223 11.4142 12.7472C11.7892 12.3721 12 11.8634 12 11.333V3.33301H11.3333C11.3333 3.68663 11.1928 4.02577 10.9428 4.27582C10.6927 4.52587 10.3536 4.66634 9.99996 4.66634H5.99996C5.64634 4.66634 5.3072 4.52587 5.05715 4.27582C4.8071 4.02577 4.66663 3.68663 4.66663 3.33301ZM7.99996 9.33301C8.16988 9.3332 8.33331 9.39826 8.45687 9.51491C8.58043 9.63155 8.65478 9.79098 8.66474 9.9606C8.6747 10.1302 8.61951 10.2973 8.51045 10.4276C8.40139 10.5579 8.24669 10.6416 8.07796 10.6617L7.99996 10.6663H5.99996C5.83004 10.6662 5.6666 10.6011 5.54305 10.4844C5.41949 10.3678 5.34514 10.2084 5.33518 10.0387C5.32522 9.86912 5.38041 9.70209 5.48947 9.57179C5.59853 9.44148 5.75323 9.35774 5.92196 9.33767L5.99996 9.33301H7.99996ZM9.99996 6.66634C10.1768 6.66634 10.3463 6.73658 10.4714 6.8616C10.5964 6.98663 10.6666 7.1562 10.6666 7.33301C10.6666 7.50982 10.5964 7.67939 10.4714 7.80441C10.3463 7.92944 10.1768 7.99967 9.99996 7.99967H5.99996C5.82315 7.99967 5.65358 7.92944 5.52855 7.80441C5.40353 7.67939 5.33329 7.50982 5.33329 7.33301C5.33329 7.1562 5.40353 6.98663 5.52855 6.8616C5.65358 6.73658 5.82315 6.66634 5.99996 6.66634H9.99996ZM9.99996 2.66634H5.99996V3.33301H9.99996V2.66634Z" fill="currentColor"/>
</g>
<defs>
<clipPath id="clip0_5699_25232">
<rect width="16" height="16" fill="white"/>
</clipPath>
</defs>
</svg>
