<svg width="16" height="16" viewBox="0 0 16 16" fill="none" xmlns="http://www.w3.org/2000/svg">
<g clip-path="url(#clip0_grid)">
<path fill-rule="evenodd" clip-rule="evenodd" d="M6 8.66667C6.7364 8.66667 7.33333 9.2636 7.33333 10V12.6667C7.33333 13.4031 6.7364 14 6 14H3.33333C2.59695 14 2 13.4031 2 12.6667V10C2 9.2636 2.59695 8.66667 3.33333 8.66667H6ZM12.6667 8.66667C13.3696 8.66667 13.9454 9.21057 13.9963 9.90049L14 10V12.6667C14 13.3696 13.4561 13.9454 12.7662 13.9963L12.6667 14H10C9.29707 14 8.72122 13.4561 8.67032 12.7662L8.66667 12.6667V10C8.66667 9.29707 9.21057 8.72122 9.90049 8.67032L10 8.66667H12.6667ZM6 10H3.33333V12.6667H6V10ZM12.6667 10H10V12.6667H12.6667V10ZM12.6667 2C13.3696 2 13.9454 2.54392 13.9963 3.23382L14 3.33333V6C14 6.70293 13.4561 7.27878 12.7662 7.32968L12.6667 7.33333H10C9.29707 7.33333 8.72122 6.78943 8.67032 6.09951L8.66667 6V3.33333C8.66667 2.63043 9.21057 2.05456 9.90049 2.00366L10 2H12.6667ZM6 2C6.70293 2 7.27878 2.54392 7.32968 3.23382L7.33333 3.33333V6C7.33333 6.70293 6.78943 7.27878 6.09951 7.32968L6 7.33333H3.33333C2.63043 7.33333 2.05456 6.78943 2.00366 6.09951L2 6V3.33333C2 2.63043 2.54392 2.05456 3.23382 2.00366L3.33333 2H6ZM12.6667 3.33333H10V6H12.6667V3.33333ZM6 3.33333H3.33333V6H6V3.33333Z" fill="currentColor"/>
</g>
<defs>
<clipPath id="clip0_grid">
<rect width="16" height="16" fill="white"/>
</clipPath>
</defs>
</svg>
