<svg width="16" height="16" viewBox="0 0 16 16" fill="none" xmlns="http://www.w3.org/2000/svg">
<path d="M14 4.00033H3.33333V5.33366H2V4.00033C2 3.26395 2.59695 2.66699 3.33333 2.66699H14C14.7364 2.66699 15.3333 3.26395 15.3333 4.00033V12.0003C15.3333 12.7367 14.7364 13.3337 14 13.3337H3.33333C2.59695 13.3337 2 12.7367 2 12.0003V11.3337H3.33333V12.0003H14V4.00033Z" fill="currentColor"/>
<path d="M10 8.00033C10 9.1049 9.10457 10.0003 8 10.0003C6.89543 10.0003 6 9.1049 6 8.00033C6 6.89576 6.89543 6.00033 8 6.00033C9.10457 6.00033 10 6.89576 10 8.00033Z" fill="currentColor"/>
<path d="M12.1667 9.00033C12.6269 9.00033 13 8.62723 13 8.16699C13 7.70675 12.6269 7.33366 12.1667 7.33366C11.7064 7.33366 11.3333 7.70675 11.3333 8.16699C11.3333 8.62723 11.7064 9.00033 12.1667 9.00033Z" fill="currentColor"/>
<path d="M3.33333 6.66699C3.70152 6.66699 4 6.96546 4 7.33366C4 7.67556 3.74264 7.95733 3.41108 7.99584L3.33333 8.00033H1.33333C0.965147 8.00033 0.666667 7.70186 0.666667 7.33366C0.666667 6.99176 0.924029 6.70999 1.25559 6.67148L1.33333 6.66699H3.33333Z" fill="currentColor"/>
<path d="M4 8.66699C4.36819 8.66699 4.66667 8.96546 4.66667 9.33366C4.66667 9.70186 4.36819 10.0003 4 10.0003H0.666667C0.298477 10.0003 0 9.70186 0 9.33366C0 8.96546 0.298477 8.66699 0.666667 8.66699H4Z" fill="currentColor"/>
</svg>
