<svg width="16" height="16" viewBox="0 0 16 16" fill="none" xmlns="http://www.w3.org/2000/svg">
<path d="M11.0172 6.69165C11.2495 6.40601 11.2063 5.98612 10.9207 5.7538C10.635 5.52148 10.2151 5.5647 9.9828 5.85034L7.84413 8.47986L6.48143 7.46541C6.18609 7.24554 5.76844 7.30673 5.54858 7.60207C5.32871 7.8974 5.3899 8.31506 5.68524 8.53492L7.43216 9.83541C7.79019 10.1019 8.29464 10.0391 8.57628 9.69278L11.0172 6.69165Z" fill="currentColor"/>
<path fill-rule="evenodd" clip-rule="evenodd" d="M8.46813 1.4638L13.1348 3.2138C13.6553 3.40895 14 3.90645 14 4.46224V8.03736C14 10.31 12.716 12.3876 10.6833 13.404L8.4472 14.522C8.16567 14.6628 7.83433 14.6628 7.5528 14.522L5.31672 13.404C3.28401 12.3876 2 10.31 2 8.03736V4.46224C2 3.90645 2.34477 3.40895 2.86517 3.2138L7.53187 1.4638C7.83367 1.35061 8.16633 1.35061 8.46813 1.4638ZM8 2.71224L3.33333 4.46224V8.03736C3.33333 9.80496 4.33201 11.4209 5.913 12.2114L8 13.2549L10.087 12.2114C11.668 11.4209 12.6667 9.80496 12.6667 8.03736V4.46224L8 2.71224Z" fill="currentColor"/>
</svg>
