<svg width="16" height="16" viewBox="0 0 16 16" fill="none" xmlns="http://www.w3.org/2000/svg">
<g clip-path="url(#clip0_5699_25400)">
<path fill-rule="evenodd" clip-rule="evenodd" d="M11.3334 2.48089V6.14555L13.2427 6.62289C13.459 6.67699 13.651 6.80184 13.7883 6.97759C13.9255 7.15334 14 7.36991 14 7.59289V12.6662C14.1769 12.6662 14.3464 12.7365 14.4714 12.8615C14.5965 12.9865 14.6667 13.1561 14.6667 13.3329C14.6667 13.5097 14.5965 13.6793 14.4714 13.8043C14.3464 13.9293 14.1769 13.9996 14 13.9996H2.00004C1.82323 13.9996 1.65366 13.9293 1.52864 13.8043C1.40361 13.6793 1.33337 13.5097 1.33337 13.3329C1.33337 13.1561 1.40361 12.9865 1.52864 12.8615C1.65366 12.7365 1.82323 12.6662 2.00004 12.6662V7.53955C1.99992 7.35363 2.05164 7.17135 2.14938 7.0132C2.24713 6.85504 2.38703 6.72726 2.55337 6.64422L4.66671 5.58755V4.23089C4.66662 4.02729 4.72869 3.82852 4.8446 3.66114C4.96051 3.49376 5.12476 3.36575 5.31537 3.29422L9.98204 1.54422C10.1334 1.48743 10.2962 1.46817 10.4566 1.48809C10.617 1.50801 10.7702 1.56652 10.903 1.6586C11.0359 1.75068 11.1444 1.87359 11.2194 2.0168C11.2943 2.16001 11.3334 2.31925 11.3334 2.48089ZM10 2.96155L6.00004 4.46155V12.6662H10V2.96155ZM11.3334 7.52022V12.6662H12.6667V7.85288L11.3334 7.51955V7.52022ZM4.66671 7.07822L3.33337 7.74488V12.6662H4.66671V7.07822Z" fill="currentColor"/>
</g>
<defs>
<clipPath id="clip0_5699_25400">
<rect width="16" height="16" fill="white"/>
</clipPath>
</defs>
</svg>
