<svg width="16" height="16" viewBox="0 0 16 16" fill="none" xmlns="http://www.w3.org/2000/svg">
<g clip-path="url(#clip0_5688_68928)">
<path d="M4.66665 6.65857C4.48987 6.65857 4.32033 6.58836 4.19531 6.46338C4.07033 6.33836 4.00012 6.16882 4.00012 5.99205C4.00012 5.81527 4.07033 5.64573 4.19531 5.52071L7.52865 2.18738C7.65366 2.0624 7.8232 1.99219 7.99998 1.99219C8.17676 1.99219 8.34629 2.0624 8.47131 2.18738L11.8046 5.52071C11.8683 5.58221 11.9191 5.65577 11.954 5.73711C11.989 5.81844 12.0074 5.90592 12.0081 5.99444C12.0089 6.08296 11.992 6.17075 11.9585 6.25268C11.925 6.33461 11.8755 6.40905 11.8129 6.47164C11.7503 6.53424 11.6759 6.58374 11.5939 6.61726C11.512 6.65078 11.4242 6.66765 11.3357 6.66688C11.2472 6.66611 11.1597 6.64772 11.0784 6.61278C10.997 6.57784 10.9235 6.52705 10.862 6.46338L7.99998 3.60138L5.13798 6.46338C5.01296 6.58836 4.84342 6.65857 4.66665 6.65857Z" fill="currentColor"/>
<path d="M4.19531 9.52872C4.32033 9.40374 4.48987 9.33353 4.66665 9.33353C4.84342 9.33353 5.01296 9.40374 5.13798 9.52872L7.99998 12.3907L10.862 9.52872C10.9877 9.40728 11.1561 9.34009 11.3309 9.34161C11.5057 9.34312 11.6729 9.41324 11.7965 9.53684C11.9201 9.66045 11.9902 9.82766 11.9918 10.0025C11.9933 10.1773 11.9261 10.3457 11.8046 10.4714L8.47131 13.8047C8.34629 13.9297 8.17676 13.9999 7.99998 13.9999C7.8232 13.9999 7.65366 13.9297 7.52865 13.8047L4.19531 10.4714C4.07033 10.3464 4.00012 10.1768 4.00012 10.0001C4.00012 9.82328 4.07033 9.65374 4.19531 9.52872Z" fill="currentColor"/>
</g>
<defs>
<clipPath id="clip0_5688_68928">
<rect width="16" height="16" fill="white"/>
</clipPath>
</defs>
</svg>
