<svg width="16" height="16" viewBox="0 0 16 16" fill="none" xmlns="http://www.w3.org/2000/svg">
<g clip-path="url(#clip0_5699_27251)">
<path fill-rule="evenodd" clip-rule="evenodd" d="M6.61998 13.8191C7.78733 14.1317 9.02623 14.0388 10.1339 13.5555C11.2416 13.0723 12.1524 12.2274 12.7173 11.1591C12.7581 11.0816 12.8138 11.0129 12.8811 10.957C12.9485 10.901 13.0262 10.8588 13.1098 10.8329C13.1934 10.807 13.2814 10.7977 13.3685 10.8058C13.4557 10.8138 13.5405 10.839 13.618 10.8798C13.6955 10.9206 13.7641 10.9762 13.8201 11.0436C13.8761 11.1109 13.9182 11.1886 13.9442 11.2722C13.9701 11.3559 13.9793 11.4438 13.9713 11.531C13.9632 11.6182 13.9381 11.7029 13.8973 11.7804C12.4773 14.4738 9.33998 15.9278 6.27465 15.1071C2.71798 14.1538 0.607981 10.4984 1.56065 6.94176C2.51398 3.3851 6.16931 1.2751 9.72531 2.22776C11.1343 2.60524 12.3806 3.43428 13.2734 4.58783C14.1661 5.74138 14.656 7.15582 14.668 8.61443C14.6726 9.21643 14.0046 9.54909 13.526 9.22776L11.744 8.02643C11.072 7.57309 11.5226 6.52576 12.3133 6.70243L13.0186 6.85976C12.7077 5.9969 12.1796 5.22879 11.4851 4.62964C10.7907 4.03049 9.95352 3.62055 9.05442 3.43941C8.15531 3.25827 7.22469 3.31205 6.35244 3.59557C5.48019 3.87909 4.6958 4.38276 4.07503 5.05792C3.45426 5.73308 3.01809 6.55693 2.80866 7.44986C2.59923 8.3428 2.62362 9.27466 2.87947 10.1554C3.13531 11.0362 3.61397 11.8361 4.2692 12.4779C4.92443 13.1196 5.7341 13.5816 6.61998 13.8191Z" fill="currentColor"/>
</g>
<defs>
<clipPath id="clip0_5699_27251">
<rect width="16" height="16" fill="white"/>
</clipPath>
</defs>
</svg>
