<svg width="16" height="16" viewBox="0 0 16 16" fill="none" xmlns="http://www.w3.org/2000/svg">
<g clip-path="url(#clip0_puzzle)">
<path fill-rule="evenodd" clip-rule="evenodd" d="M7.00004 2.66634C6.27047 2.66634 5.79595 3.43412 6.12223 4.08667L6.23047 4.30316C6.46705 4.77631 6.12299 5.33301 5.59399 5.33301H3.33337C2.96519 5.33301 2.66671 5.63149 2.66671 5.99967V6.79594C3.8806 6.72321 5.00004 7.68314 5.00004 8.99967C5.00004 10.3162 3.8806 11.2761 2.66671 11.2034V12.6663C2.66671 13.0345 2.96519 13.333 3.33337 13.333H4.79627C4.7236 12.1191 5.68348 10.9997 7.00004 10.9997C8.31657 10.9997 9.27651 12.1191 9.20377 13.333H10C10.3682 13.333 10.6667 13.0345 10.6667 12.6663V10.4057C10.6667 9.87674 11.2234 9.53267 11.6966 9.76927L11.913 9.87747C12.5656 10.2037 13.3334 9.72927 13.3334 8.99967C13.3334 8.27007 12.5656 7.79561 11.913 8.12187L11.6966 8.23007C11.2234 8.46667 10.6667 8.12261 10.6667 7.59361V5.99967C10.6667 5.63149 10.3682 5.33301 10 5.33301H8.40611C7.87711 5.33301 7.53304 4.77631 7.76964 4.30316L7.87784 4.08667C8.20411 3.43412 7.72964 2.66634 7.00004 2.66634ZM4.70965 3.99967C4.49885 2.65483 5.52989 1.33301 7.00004 1.33301C8.47017 1.33301 9.50124 2.65483 9.29044 3.99967H10C11.1046 3.99967 12 4.89511 12 5.99967V6.70927C13.3449 6.49849 14.6667 7.52954 14.6667 8.99967C14.6667 10.4698 13.3449 11.5009 12 11.2901V12.6663C12 13.7709 11.1046 14.6663 10 14.6663H8.39531C7.88737 14.6663 7.54491 14.147 7.74497 13.6801L7.80144 13.5484C8.04804 12.9731 7.62604 12.333 7.00004 12.333C6.37407 12.333 5.95203 12.9731 6.19861 13.5484L6.25508 13.6801C6.45516 14.147 6.11271 14.6663 5.60479 14.6663H3.33337C2.22881 14.6663 1.33337 13.7709 1.33337 12.6663V10.3949C1.33337 9.88701 1.85271 9.54454 2.31957 9.74461L2.45131 9.80107C3.02667 10.0477 3.66671 9.62567 3.66671 8.99967C3.66671 8.37367 3.02667 7.95167 2.45131 8.19827L2.31957 8.25474C1.85271 8.45481 1.33337 8.11234 1.33337 7.60441V5.99967C1.33337 4.89511 2.22881 3.99967 3.33337 3.99967H4.70965Z" fill="currentColor"/>
</g>
<defs>
<clipPath id="clip0_puzzle">
<rect width="16" height="16" fill="white"/>
</clipPath>
</defs>
</svg>
