<svg width="16" height="16" viewBox="0 0 16 16" fill="none" xmlns="http://www.w3.org/2000/svg">
<g clip-path="url(#clip0_5699_25220)">
<path d="M12.6667 2C13.3696 2 13.9454 2.54392 13.9963 3.23382L14 3.33333V12.6667C14 13.3696 13.4561 13.9454 12.7662 13.9963L12.6667 14H3.33333C2.63043 14 2.05456 13.4561 2.00366 12.7662L2 12.6667V3.33333C2 2.63043 2.54392 2.05456 3.23382 2.00366L3.33333 2H12.6667ZM12.6667 3.33333H3.33333V12.6667H12.6667V3.33333ZM5.19524 8.91913L5.66664 9.39053L6.13805 8.91913C6.3984 8.6588 6.82053 8.6588 7.08087 8.91913C7.3412 9.17947 7.3412 9.6016 7.08087 9.86193L6.60945 10.3333L7.08087 10.8047C7.3412 11.0651 7.3412 11.4872 7.08087 11.7475C6.82053 12.0079 6.3984 12.0079 6.13805 11.7475L5.66664 11.2761L5.19524 11.7475C4.93489 12.0079 4.51278 12.0079 4.25243 11.7475C3.99208 11.4872 3.99208 11.0651 4.25243 10.8047L4.72383 10.3333L4.25243 9.86193C3.99208 9.6016 3.99208 9.17947 4.25243 8.91913C4.51278 8.6588 4.93489 8.6588 5.19524 8.91913ZM11.3333 10.5C11.7015 10.5 12 10.7985 12 11.1667C12 11.5086 11.7426 11.7903 11.4111 11.8288L11.3333 11.8333H9.33333C8.96513 11.8333 8.66667 11.5349 8.66667 11.1667C8.66667 10.8248 8.92402 10.543 9.25558 10.5045L9.33333 10.5H11.3333ZM11.3333 8.83333C11.7015 8.83333 12 9.1318 12 9.5C12 9.8682 11.7015 10.1667 11.3333 10.1667H9.33333C8.96513 10.1667 8.66667 9.8682 8.66667 9.5C8.66667 9.1318 8.96513 8.83333 9.33333 8.83333H11.3333ZM10.3333 4.33333C10.7015 4.33333 11 4.63181 11 5V5.33333H11.3333C11.7015 5.33333 12 5.63181 12 6C12 6.36819 11.7015 6.66667 11.3333 6.66667H11V7C11 7.3682 10.7015 7.66667 10.3333 7.66667C9.96513 7.66667 9.66667 7.3682 9.66667 7V6.66667H9.33333C8.96513 6.66667 8.66667 6.36819 8.66667 6C8.66667 5.63181 8.96513 5.33333 9.33333 5.33333H9.66667V5C9.66667 4.63181 9.96513 4.33333 10.3333 4.33333ZM6.66667 5.33333C7.03487 5.33333 7.33333 5.63181 7.33333 6C7.33333 6.36819 7.03487 6.66667 6.66667 6.66667H4.66667C4.29848 6.66667 4 6.36819 4 6C4 5.63181 4.29848 5.33333 4.66667 5.33333H6.66667Z" fill="currentColor"/>
</g>
<defs>
<clipPath id="clip0_5699_25220">
<rect width="16" height="16" fill="white"/>
</clipPath>
</defs>
</svg>
