<svg width="18" height="18" viewBox="0 0 18 18" fill="none" xmlns="http://www.w3.org/2000/svg">
<g clip-path="url(#clip0_gift)">
<path fill-rule="evenodd" clip-rule="evenodd" d="M6.75 1.5C7.64603 1.5 8.45033 1.89282 9 2.51564C9.54968 1.89282 10.354 1.5 11.25 1.5H11.625C12.2463 1.5 12.75 2.00368 12.75 2.625V3C12.75 3.54643 12.6039 4.05874 12.3487 4.5H14.25C15.0785 4.5 15.75 5.17157 15.75 6V8.25C15.75 8.80523 15.4484 9.28995 15 9.5493V13.5C15 14.7427 13.9927 15.75 12.75 15.75H5.25C4.00736 15.75 3 14.7427 3 13.5V9.5493C2.55165 9.28995 2.25 8.80523 2.25 8.25V6C2.25 5.17157 2.92157 4.5 3.75 4.5H5.65135C5.39609 4.05874 5.25 3.54643 5.25 3V2.625C5.25 2.00368 5.75368 1.5 6.375 1.5H6.75ZM13.5 9.75H9.75V14.25H12.75L12.8375 14.245C13.1818 14.205 13.455 13.9318 13.495 13.5875L13.5 13.5V9.75ZM8.25 9.75H4.5V13.5C4.5 13.8846 4.78953 14.2016 5.16254 14.245L5.25 14.25H8.25V9.75ZM14.25 6H9.75V8.25H14.25V6ZM8.25 6H3.75V8.25H8.25V6ZM6.75 3C6.75 3.82843 7.42157 4.5 8.25 4.5C8.25 3.67157 7.57845 3 6.75 3ZM11.25 3C10.4216 3 9.75 3.67157 9.75 4.5C10.5785 4.5 11.25 3.82843 11.25 3Z" fill="currentColor"/>
</g>
<defs>
<clipPath id="clip0_gift">
<rect width="18" height="18" fill="white"/>
</clipPath>
</defs>
</svg>
