<svg width="16" height="16" viewBox="0 0 16 16" fill="none" xmlns="http://www.w3.org/2000/svg">
<g clip-path="url(#clip0_5699_25449)">
<path fill-rule="evenodd" clip-rule="evenodd" d="M2.66663 2.66634C2.66663 1.92996 3.26358 1.33301 3.99996 1.33301H12C12.7364 1.33301 13.3333 1.92996 13.3333 2.66634V13.333C13.3333 14.0694 12.7364 14.6663 12 14.6663H3.99996C3.26358 14.6663 2.66663 14.0694 2.66663 13.333V2.66634ZM12 2.66634H3.99996V13.333H12V2.66634ZM5.33329 5.99967C5.33329 5.63149 5.63177 5.33301 5.99996 5.33301H9.99996C10.3682 5.33301 10.6666 5.63149 10.6666 5.99967C10.6666 6.36786 10.3682 6.66634 9.99996 6.66634H5.99996C5.63177 6.66634 5.33329 6.36786 5.33329 5.99967ZM5.99996 8.66634C5.63177 8.66634 5.33329 8.96481 5.33329 9.33301C5.33329 9.70121 5.63177 9.99967 5.99996 9.99967H7.99996C8.36816 9.99967 8.66663 9.70121 8.66663 9.33301C8.66663 8.96481 8.36816 8.66634 7.99996 8.66634H5.99996Z" fill="currentColor"/>
</g>
<defs>
<clipPath id="clip0_5699_25449">
<rect width="16" height="16" fill="white"/>
</clipPath>
</defs>
</svg>
