<svg width="16" height="16" viewBox="0 0 16 16" fill="none" xmlns="http://www.w3.org/2000/svg">
<g clip-path="url(#clip0_5661_32029)">
<path d="M7.33334 8.00011C7.49663 8.00013 7.65423 8.06008 7.77625 8.16858C7.89828 8.27709 7.97623 8.42661 7.99534 8.58877L8 8.66677V12.0001C7.99982 12.17 7.93475 12.3335 7.81811 12.457C7.70146 12.5806 7.54204 12.6549 7.37241 12.6649C7.20278 12.6748 7.03575 12.6197 6.90545 12.5106C6.77515 12.4015 6.69141 12.2468 6.67134 12.0781L6.66667 12.0001V10.2761L3.138 13.8048C3.01803 13.9243 2.85705 13.9938 2.68775 13.9989C2.51845 14.0041 2.35353 13.9446 2.22649 13.8326C2.09944 13.7206 2.0198 13.5644 2.00374 13.3958C1.98768 13.2272 2.0364 13.0588 2.14 12.9248L2.19534 12.8621L5.724 9.33344H4C3.83008 9.33325 3.66665 9.26819 3.54309 9.15154C3.41953 9.03489 3.34518 8.87547 3.33522 8.70584C3.32527 8.53622 3.38045 8.36919 3.48951 8.23888C3.59857 8.10858 3.75327 8.02484 3.922 8.00477L4 8.00011H7.33334ZM12.862 2.19544C12.982 2.07587 13.143 2.00646 13.3123 2.00129C13.4816 1.99612 13.6465 2.05558 13.7735 2.16761C13.9006 2.27963 13.9802 2.43581 13.9963 2.60442C14.0123 2.77304 13.9636 2.94145 13.86 3.07544L13.8047 3.13811L10.276 6.66677H12C12.1699 6.66696 12.3334 6.73203 12.4569 6.84867C12.5805 6.96532 12.6548 7.12474 12.6648 7.29437C12.6747 7.464 12.6196 7.63103 12.5105 7.76133C12.4014 7.89163 12.2467 7.97537 12.078 7.99544L12 8.00011H8.66667C8.50338 8.00008 8.34578 7.94014 8.22376 7.83163C8.10173 7.72312 8.02378 7.57361 8.00467 7.41144L8 7.33344V4.00011C8.00019 3.83019 8.06526 3.66675 8.1819 3.54319C8.29855 3.41964 8.45797 3.34528 8.6276 3.33533C8.79723 3.32537 8.96426 3.38056 9.09456 3.48962C9.22486 3.59868 9.3086 3.75338 9.32867 3.92211L9.33334 4.00011V5.72411L12.862 2.19544Z" fill="#61667C"/>
</g>
<defs>
<clipPath id="clip0_5661_32029">
<rect width="16" height="16" fill="white"/>
</clipPath>
</defs>
</svg>
