<svg width="16" height="16" viewBox="0 0 16 16" fill="none" xmlns="http://www.w3.org/2000/svg">
<g clip-path="url(#clip0_transaction)">
<path d="M5.47153 7.83814C5.73188 8.09854 5.73188 8.5206 5.47153 8.781L4.25258 9.99993H10.6668C11.035 9.99993 11.3334 10.2984 11.3334 10.6666C11.3334 11.0348 11.035 11.3333 10.6668 11.3333H4.25258L5.47153 12.5522C5.73188 12.8125 5.73188 13.2347 5.47153 13.495C5.21119 13.7554 4.78907 13.7554 4.52873 13.495L2.1717 11.138C1.91135 10.8777 1.91135 10.4555 2.1717 10.1952L4.52873 7.83814C4.78907 7.5778 5.21119 7.5778 5.47153 7.83814ZM10.5286 2.50484C10.769 2.26451 11.1471 2.24602 11.4086 2.44938L11.4714 2.50484L13.8285 4.86186C14.0688 5.10218 14.0873 5.48033 13.884 5.74186L13.8285 5.80467L11.4714 8.16167C11.2111 8.42207 10.789 8.42207 10.5286 8.16167C10.2883 7.92136 10.2698 7.54319 10.4732 7.28167L10.5286 7.21887L11.7476 5.99993H5.33337C4.96519 5.99993 4.66671 5.70145 4.66671 5.33326C4.66671 4.99137 4.92407 4.70959 5.25563 4.67108L5.33337 4.66659H11.7476L10.5286 3.44764C10.2683 3.1873 10.2683 2.76518 10.5286 2.50484Z" fill="currentColor"/>
</g>
<defs>
<clipPath id="clip0_transaction">
<rect width="16" height="16" fill="white"/>
</clipPath>
</defs>
</svg>
