<svg preserveAspectRatio="none" overflow="visible" style="display: block;" width="16.4571" height="16.4571" viewBox="0 0 16.4571 16.4571" fill="none" xmlns="http://www.w3.org/2000/svg">
<g id="Inner">
<g id="Mingcute">
</g>
<path id="Vector" fill-rule="evenodd" clip-rule="evenodd" d="M8.688 1.52023L14.5166 4.77737C14.6877 4.86279 14.8316 4.99422 14.9321 5.15689C15.0326 5.31957 15.0858 5.50705 15.0857 5.69829V6.68571C15.0857 7.15886 14.7017 7.54286 14.2286 7.54286H13.7143V13.0286H14.4C14.5819 13.0286 14.7563 13.1008 14.8849 13.2294C15.0135 13.358 15.0857 13.5324 15.0857 13.7143C15.0857 13.8961 15.0135 14.0706 14.8849 14.1992C14.7563 14.3278 14.5819 14.4 14.4 14.4H2.05714C1.87528 14.4 1.70087 14.3278 1.57227 14.1992C1.44367 14.0706 1.37143 13.8961 1.37143 13.7143C1.37143 13.5324 1.44367 13.358 1.57227 13.2294C1.70087 13.1008 1.87528 13.0286 2.05714 13.0286H2.74286V7.54286H2.22857C1.75543 7.54286 1.37143 7.15886 1.37143 6.68571V5.69829C1.37143 5.34034 1.55657 5.0112 1.85554 4.82469L7.76846 1.52023C7.91131 1.44878 8.06884 1.41158 8.22857 1.41158C8.3883 1.41158 8.54515 1.44878 8.688 1.52023ZM11.6571 7.54286H4.8V13.0286H6.17143V8.91429H7.54286V13.0286H8.91429V8.91429H10.2857V13.0286H11.6571V7.54286ZM8.22857 4.11429C8.04671 4.11429 7.8723 4.18653 7.7437 4.31513C7.6151 4.44372 7.54286 4.61814 7.54286 4.8C7.54286 4.98186 7.6151 5.15628 7.7437 5.28487C7.8723 5.41347 8.04671 5.48571 8.22857 5.48571C8.41043 5.48571 8.58485 5.41347 8.71344 5.28487C8.84204 5.15628 8.91429 4.98186 8.91429 4.8C8.91429 4.61814 8.84204 4.44372 8.71344 4.31513C8.58485 4.18653 8.41043 4.11429 8.22857 4.11429Z" fill="#03102F"/>
</g>
</svg>
