<svg width="16" height="16" viewBox="0 0 16 16" fill="none" xmlns="http://www.w3.org/2000/svg">
<g clip-path="url(#clip0_5699_27347)">
<path fill-rule="evenodd" clip-rule="evenodd" d="M13.3334 3.33301C14.0363 3.33301 14.6122 3.87693 14.663 4.56683L14.6667 4.66634V11.333C14.6667 12.0359 14.1228 12.6118 13.4329 12.6627L13.3334 12.6663H2.66671C1.9638 12.6663 1.38793 12.1224 1.33703 11.4325L1.33337 11.333V4.66634C1.33337 3.96343 1.87729 3.38756 2.5672 3.33666L2.66671 3.33301H13.3334ZM11.3352 4.66634H4.66492L4.66671 4.74967C4.66671 5.80818 3.80866 6.66634 2.75011 6.66634L2.66671 6.66455V9.33481L2.75011 9.33301C3.80866 9.33301 4.66671 10.1911 4.66671 11.2497L4.66492 11.333H11.3352L11.3334 11.2497C11.3334 10.2289 12.1312 9.39456 13.1374 9.33626L13.2918 9.33346L13.3334 9.33481V6.66455L13.25 6.66634C12.2292 6.66634 11.3949 5.86838 11.3366 4.86229L11.3338 4.70791L11.3352 4.66634ZM13.25 10.6663C12.9279 10.6663 12.6667 10.9275 12.6667 11.2497C12.6667 11.278 12.6687 11.3059 12.6726 11.333H13.3334V10.6722C13.3062 10.6683 13.2784 10.6663 13.25 10.6663ZM2.75011 10.6663C2.72173 10.6663 2.69389 10.6683 2.66671 10.6722V11.333H3.32754C3.33139 11.3059 3.33337 11.278 3.33337 11.2497C3.33337 10.9275 3.0722 10.6663 2.75011 10.6663ZM8.00004 5.33301C9.47277 5.33301 10.6667 6.52691 10.6667 7.99967C10.6667 9.47241 9.47277 10.6663 8.00004 10.6663C6.52728 10.6663 5.33337 9.47241 5.33337 7.99967C5.33337 6.52691 6.52728 5.33301 8.00004 5.33301ZM8.00004 6.66634C7.26364 6.66634 6.66671 7.26327 6.66671 7.99967C6.66671 8.73607 7.26364 9.33301 8.00004 9.33301C8.73644 9.33301 9.33337 8.73607 9.33337 7.99967C9.33337 7.26327 8.73644 6.66634 8.00004 6.66634ZM3.32754 4.66634H2.66671V5.32716C2.69389 5.33101 2.72173 5.33301 2.75011 5.33301C3.0722 5.33301 3.33337 5.07188 3.33337 4.74967L3.3319 4.70755L3.32754 4.66634ZM13.3334 4.66634H12.6726C12.6687 4.69349 12.6667 4.72131 12.6667 4.74967C12.6667 5.07188 12.9279 5.33301 13.25 5.33301L13.2921 5.33153L13.3334 5.32716V4.66634Z" fill="currentColor"/>
</g>
<defs>
<clipPath id="clip0_5699_27347">
<rect width="16" height="16" fill="white"/>
</clipPath>
</defs>
</svg>
