<svg width="22" height="22" viewBox="0 0 22 22" fill="none" xmlns="http://www.w3.org/2000/svg">
<path opacity="0.4" d="M15.5834 18.7913H6.41671C3.66671 18.7913 1.83337 17.4163 1.83337 14.208V7.79134C1.83337 4.58301 3.66671 3.20801 6.41671 3.20801H15.5834C18.3334 3.20801 20.1667 4.58301 20.1667 7.79134V14.208C20.1667 17.4163 18.3334 18.7913 15.5834 18.7913Z" fill="currentColor"/>
<path d="M11 13.75C12.5188 13.75 13.75 12.5188 13.75 11C13.75 9.48122 12.5188 8.25 11 8.25C9.48122 8.25 8.25 9.48122 8.25 11C8.25 12.5188 9.48122 13.75 11 13.75Z" fill="currentColor"/>
<path d="M5.04163 13.9788C4.66579 13.9788 4.35413 13.6672 4.35413 13.2913V8.70801C4.35413 8.33217 4.66579 8.02051 5.04163 8.02051C5.41746 8.02051 5.72913 8.33217 5.72913 8.70801V13.2913C5.72913 13.6672 5.41746 13.9788 5.04163 13.9788Z" fill="currentColor"/>
<path d="M16.9584 13.9788C16.5825 13.9788 16.2709 13.6672 16.2709 13.2913V8.70801C16.2709 8.33217 16.5825 8.02051 16.9584 8.02051C17.3342 8.02051 17.6459 8.33217 17.6459 8.70801V13.2913C17.6459 13.6672 17.3342 13.9788 16.9584 13.9788Z" fill="currentColor"/>
</svg>
