<svg width="22" height="22" viewBox="0 0 22 22" fill="none" xmlns="http://www.w3.org/2000/svg">
<path opacity="0.4" d="M19.8551 9.56997L18.9567 13.4016C18.1868 16.7108 16.6651 18.0491 13.8051 17.7741C13.3468 17.7375 12.8517 17.655 12.3201 17.5266L10.7801 17.16C6.95758 16.2525 5.77508 14.3641 6.67342 10.5325L7.57175 6.69163C7.75508 5.91247 7.97508 5.23413 8.25008 4.67497C9.32258 2.45663 11.1467 1.8608 14.2084 2.58497L15.7393 2.94247C19.5801 3.8408 20.7534 5.7383 19.8551 9.56997Z" fill="currentColor"/>
<path d="M13.8051 17.774C13.2367 18.159 12.5217 18.4798 11.6509 18.764L10.2026 19.2406C6.5634 20.414 4.64757 19.4331 3.46507 15.794L2.29174 12.1731C1.1184 8.53397 2.09007 6.60897 5.72924 5.43564L7.17757 4.95897C7.5534 4.8398 7.9109 4.73897 8.25007 4.6748C7.97507 5.23397 7.75507 5.9123 7.57174 6.69147L6.6734 10.5323C5.77507 14.364 6.95757 16.2523 10.7801 17.1598L12.3201 17.5265C12.8517 17.6548 13.3467 17.7373 13.8051 17.774Z" fill="currentColor"/>
<path d="M16.0325 9.63445C15.9775 9.63445 15.9225 9.62528 15.8583 9.61612L11.4125 8.48862C11.0458 8.39695 10.8258 8.02112 10.9175 7.65445C11.0092 7.28778 11.385 7.06778 11.7517 7.15945L16.1975 8.28695C16.5642 8.37862 16.7842 8.75445 16.6925 9.12112C16.6192 9.42362 16.335 9.63445 16.0325 9.63445Z" fill="currentColor"/>
<path d="M13.3467 12.7322C13.2917 12.7322 13.2367 12.723 13.1725 12.7138L10.505 12.0355C10.1384 11.9438 9.91837 11.568 10.01 11.2013C10.1017 10.8347 10.4775 10.6147 10.8442 10.7063L13.5117 11.3847C13.8784 11.4763 14.0984 11.8522 14.0067 12.2188C13.9334 12.5305 13.6584 12.7322 13.3467 12.7322Z" fill="currentColor"/>
</svg>
