<svg width="18" height="18" viewBox="0 0 18 18" fill="none" xmlns="http://www.w3.org/2000/svg">
<g clip-path="url(#clip0_qmark)">
<path d="M9 1.5C13.1421 1.5 16.5 4.85786 16.5 9C16.5 13.1421 13.1421 16.5 9 16.5C4.85786 16.5 1.5 13.1421 1.5 9C1.5 4.85786 4.85786 1.5 9 1.5ZM9 3C5.68629 3 3 5.68629 3 9C3 12.3137 5.68629 15 9 15C12.3137 15 15 12.3137 15 9C15 5.68629 12.3137 3 9 3ZM9 12C9.41423 12 9.75 12.3358 9.75 12.75C9.75 13.1642 9.41423 13.5 9 13.5C8.58578 13.5 8.25 13.1642 8.25 12.75C8.25 12.3358 8.58578 12 9 12ZM9 4.875C10.5015 4.875 11.7188 6.09223 11.7188 7.59375C11.7188 8.73915 11.0108 9.7173 10.0113 10.118C9.9072 10.1597 9.82703 10.2179 9.7821 10.2683C9.74894 10.3056 9.74401 10.3534 9.74538 10.4026L9.75 10.5C9.75 10.9142 9.41423 11.25 9 11.25C8.61536 11.25 8.29837 10.9605 8.25505 10.5875L8.25 10.5V10.3125C8.25 9.44783 8.94698 8.9286 9.45315 8.72573C9.90315 8.54528 10.2188 8.10548 10.2188 7.59375C10.2188 6.92066 9.67313 6.375 9 6.375C8.32688 6.375 7.78125 6.92066 7.78125 7.59375C7.78125 8.00798 7.44546 8.34375 7.03125 8.34375C6.61704 8.34375 6.28125 8.00798 6.28125 7.59375C6.28125 6.09223 7.49848 4.875 9 4.875Z" fill="currentColor"/>
</g>
<defs>
<clipPath id="clip0_qmark">
<rect width="18" height="18" fill="white"/>
</clipPath>
</defs>
</svg>
