<svg width="81" height="56" viewBox="0 0 81 56" fill="none" xmlns="http://www.w3.org/2000/svg">
<g clip-path="url(#clip0_5662_18607)">
<path fill-rule="evenodd" clip-rule="evenodd" d="M45.75 21.25C46.1478 21.25 46.5294 21.408 46.8107 21.6893C47.092 21.9706 47.25 22.3522 47.25 22.75V33.25C47.25 33.6478 47.092 34.0294 46.8107 34.3107C46.5294 34.592 46.1478 34.75 45.75 34.75H35.25C34.8522 34.75 34.4706 34.592 34.1893 34.3107C33.908 34.0294 33.75 33.6478 33.75 33.25V22.75C33.75 22.3522 33.908 21.9706 34.1893 21.6893C34.4706 21.408 34.8522 21.25 35.25 21.25H45.75ZM37.5 22.75H35.25V33.25H37.5V22.75ZM45.75 22.75H39V33.25H45.75V22.75ZM42.5948 25.879C42.7297 25.7445 42.9108 25.6664 43.1013 25.6606C43.2917 25.6548 43.4773 25.7217 43.6202 25.8477C43.7631 25.9737 43.8527 26.1494 43.8708 26.3391C43.8889 26.5288 43.8341 26.7183 43.7175 26.869L43.6553 26.9395L42.5948 28L43.6553 29.0605C43.7912 29.1952 43.8705 29.3767 43.877 29.5679C43.8835 29.7591 43.8167 29.9456 43.6902 30.0892C43.5636 30.2327 43.3871 30.3225 43.1965 30.3402C43.006 30.3578 42.8159 30.3019 42.6652 30.184L42.5948 30.121L41.004 28.531C40.8748 28.402 40.797 28.2302 40.7854 28.0479C40.7738 27.8656 40.8292 27.6854 40.941 27.541L41.004 27.4698L42.594 25.879H42.5948Z" fill="#8093B8"/>
</g>
<defs>
<clipPath id="clip0_5662_18607">
<rect width="18" height="18" fill="white" transform="translate(31.5 19)"/>
</clipPath>
</defs>
</svg>
