<svg width="16" height="16" viewBox="0 0 16 16" fill="none" xmlns="http://www.w3.org/2000/svg">
<g clip-path="url(#clip0_repeat)">
<path d="M13.3333 5.99968C13.6752 5.99968 13.957 6.25703 13.9955 6.58859L14 6.66634V9.99968C14 11.4278 12.8773 12.5937 11.4664 12.6631L11.3333 12.6663H5.40457L5.39175 12.9429L5.36878 13.289C5.35071 13.5194 5.13415 13.6602 4.94774 13.5627L4.74379 13.4533L4.50393 13.3176C4.46119 13.2928 4.41712 13.2669 4.37181 13.2399L4.08576 13.0644C4.03583 13.0329 3.98483 13.0002 3.93285 12.9665L3.62382 12.7598C3.57544 12.7264 3.52866 12.6938 3.4835 12.6618L3.23252 12.4797L3.02276 12.3201C2.99135 12.2956 2.96174 12.2722 2.93398 12.2501C2.77679 12.125 2.78379 11.8731 2.94907 11.7422L3.13572 11.5976L3.36299 11.4294L3.62935 11.2416L3.9333 11.0386L4.24132 10.8442L4.51882 10.6786L4.76183 10.5414L4.96639 10.4318C5.14998 10.3361 5.34764 10.4556 5.36529 10.6715L5.38226 10.9033L5.3978 11.1794L5.40439 11.333H11.3333C12.0363 11.333 12.6121 10.7891 12.663 10.0992L12.6667 9.99968V6.66634C12.6667 6.29815 12.9651 5.99968 13.3333 5.99968ZM11.0523 2.43659L11.2562 2.54609L11.4961 2.68172C11.5388 2.70652 11.5829 2.73243 11.6282 2.75945L11.9142 2.93499C11.9642 2.96649 12.0152 2.99912 12.0671 3.03288L12.3762 3.23957C12.4245 3.27289 12.4713 3.30557 12.5165 3.33752L12.7675 3.51962L12.9772 3.6793C13.0086 3.70377 13.0382 3.72711 13.066 3.74922C13.2232 3.87436 13.2162 4.12628 13.0509 4.25716L12.8643 4.40172L12.637 4.56995L12.3706 4.75768L12.0667 4.96072L11.7587 5.15518L11.4812 5.32073L11.2382 5.45797L11.0336 5.56753C10.85 5.66324 10.6523 5.54377 10.6347 5.32779L10.6177 5.09607L10.6022 4.81996C10.5998 4.77044 10.5976 4.71921 10.5956 4.66634H4.66667C3.93029 4.66634 3.33333 5.2633 3.33333 5.99968V9.33301C3.33333 9.70121 3.03485 9.99968 2.66667 9.99968C2.29848 9.99968 2 9.70121 2 9.33301V5.99968C2 4.52692 3.19391 3.33301 4.66667 3.33301H10.5954L10.6083 3.05646L10.6233 2.81609C10.6259 2.77919 10.6286 2.74392 10.6312 2.71032C10.6493 2.47996 10.8659 2.33911 11.0523 2.43659Z" fill="currentColor"/>
</g>
<defs>
<clipPath id="clip0_repeat">
<rect width="16" height="16" fill="white"/>
</clipPath>
</defs>
</svg>
