<svg width="14" height="14" viewBox="0 0 14 14" fill="none" xmlns="http://www.w3.org/2000/svg">
<path d="M8.16667 3.64C8.36208 3.64 8.50967 3.72225 8.61992 3.8395C8.79783 4.0285 8.87308 4.30675 8.98392 4.53717C9.55207 5.72026 10.449 6.71464 11.5675 7.40133L11.8207 7.55125C12.0499 7.69067 12.2494 7.85342 12.25 8.1655C12.2506 8.5925 11.879 8.74067 11.5675 8.93142C10.4491 9.61814 9.5521 10.6125 8.98392 11.7956C8.87308 12.0266 8.79725 12.3048 8.61992 12.4938C8.51025 12.6111 8.36208 12.6933 8.16667 12.6933C7.97125 12.6933 7.82308 12.6111 7.71342 12.4938C7.61075 12.3848 7.54308 12.2477 7.483 12.1077L7.3955 11.8977C7.38088 11.8635 7.36552 11.8297 7.34942 11.7962C6.78126 10.6131 5.8843 9.6187 4.76583 8.932L4.57858 8.82058C4.326 8.66892 4.08275 8.49625 4.08333 8.1655C4.0845 7.73967 4.45492 7.59267 4.76583 7.40192C5.8843 6.71522 6.78126 5.72085 7.34942 4.53775C7.46025 4.30675 7.53608 4.0285 7.71342 3.8395C7.82308 3.72283 7.97125 3.64 8.16667 3.64ZM3.93575 3.39792C4.02267 3.50467 4.07458 3.62542 4.13408 3.7485C4.29392 4.081 4.53542 4.36683 4.83467 4.578L4.95017 4.65383C5.4495 4.96008 5.46817 5.47633 5.02017 5.7995L4.95017 5.84617C4.59659 6.06319 4.31306 6.37751 4.1335 6.7515L4.067 6.89267C4.01042 7.00933 3.9445 7.12075 3.83017 7.19483C3.64642 7.31267 3.35358 7.31267 3.16983 7.19483C3.01525 7.09567 2.94233 6.91017 2.8665 6.7515C2.68692 6.37753 2.40339 6.06321 2.04983 5.84617C1.946 5.782 1.84683 5.72192 1.76108 5.63208C1.67725 5.5221 1.63189 5.38761 1.63199 5.24932C1.6321 5.11103 1.67766 4.9766 1.76167 4.86675C1.84917 4.77575 1.9425 4.71975 2.05042 4.65383C2.40378 4.43673 2.6871 4.12242 2.8665 3.7485C2.92717 3.6225 2.97558 3.507 3.06483 3.3985C3.18145 3.28515 3.33766 3.22173 3.50029 3.22173C3.66292 3.22173 3.81914 3.28515 3.93575 3.3985V3.39792ZM5.83333 1.16667C5.98804 1.16667 6.13642 1.22812 6.24581 1.33752C6.35521 1.44692 6.41667 1.59529 6.41667 1.75C6.57138 1.75 6.71975 1.81146 6.82915 1.92085C6.93854 2.03025 7 2.17862 7 2.33333C7 2.48804 6.93854 2.63642 6.82915 2.74581C6.71975 2.85521 6.57138 2.91667 6.41667 2.91667C6.41667 3.07138 6.35521 3.21975 6.24581 3.32915C6.13642 3.43854 5.98804 3.5 5.83333 3.5C5.67862 3.5 5.53025 3.43854 5.42085 3.32915C5.31146 3.21975 5.25 3.07138 5.25 2.91667C5.09529 2.91667 4.94692 2.85521 4.83752 2.74581C4.72813 2.63642 4.66667 2.48804 4.66667 2.33333C4.66667 2.17862 4.72813 2.03025 4.83752 1.92085C4.94692 1.81146 5.09529 1.75 5.25 1.75C5.25 1.59529 5.31146 1.44692 5.42085 1.33752C5.53025 1.22812 5.67862 1.16667 5.83333 1.16667Z" fill="#B14AED"/>
</svg>
