<svg width="16" height="16" viewBox="0 0 16 16" fill="none" xmlns="http://www.w3.org/2000/svg">
<g clip-path="url(#clip0_qrcode)">
<path d="M7.33333 2C8.03626 2 8.61211 2.54392 8.66301 3.23382L8.66667 3.33333V7.33333C8.66667 8.03626 8.12277 8.61211 7.43284 8.66301L7.33333 8.66667H3.33333C2.63043 8.66667 2.05456 8.12277 2.00366 7.43284L2 7.33333V3.33333C2 2.63043 2.54392 2.05456 3.23382 2.00366L3.33333 2H7.33333ZM7.33333 3.33333H3.33333V7.33333H7.33333V3.33333ZM5.66667 4.66667C5.8303 4.66667 5.96641 4.78458 5.99463 4.94008L6 5V5.66667C6 5.8303 5.88208 5.96641 5.72658 5.99463L5.66667 6H5C4.83636 6 4.70026 5.88208 4.67204 5.72658L4.66667 5.66667V5C4.66667 4.83636 4.78458 4.70026 4.94008 4.67204L5 4.66667H5.66667ZM14 3.33333C14 2.59695 13.4031 2 12.6667 2H11.3333C10.5969 2 10 2.59695 10 3.33333V4.66667C10 5.40305 10.5969 6 11.3333 6H12.6667C13.4031 6 14 5.40305 14 4.66667V3.33333ZM11.3333 3.33333H12.6667V4.66667H11.3333V3.33333ZM4.66667 10C5.40305 10 6 10.5969 6 11.3333V12.6667C6 13.4031 5.40305 14 4.66667 14H3.33333C2.59695 14 2 13.4031 2 12.6667V11.3333C2 10.5969 2.59695 10 3.33333 10H4.66667ZM4.66667 11.3333H3.33333V12.6667H4.66667V11.3333ZM14 11.3333C14 10.5969 13.4031 10 12.6667 10H11.3333C10.5969 10 10 10.5969 10 11.3333V12.6667C10 13.4031 10.5969 14 11.3333 14H12.6667C13.4031 14 14 13.4031 14 12.6667V11.3333ZM11.3333 11.3333H12.6667V12.6667H11.3333V11.3333ZM10 8C10 7.6318 10.2985 7.33333 10.6667 7.33333H13.3333C13.7015 7.33333 14 7.6318 14 8C14 8.3682 13.7015 8.66667 13.3333 8.66667H10.6667C10.2985 8.66667 10 8.3682 10 8ZM8.66667 10.6667C8.66667 10.2985 8.3682 10 8 10C7.6318 10 7.33333 10.2985 7.33333 10.6667V13.3333C7.33333 13.7015 7.6318 14 8 14C8.3682 14 8.66667 13.7015 8.66667 13.3333V10.6667Z" fill="currentColor"/>
</g>
<defs>
<clipPath id="clip0_qrcode">
<rect width="16" height="16" fill="white"/>
</clipPath>
</defs>
</svg>
