<svg width="16" height="16" viewBox="0 0 16 16" fill="none" xmlns="http://www.w3.org/2000/svg">
<g clip-path="url(#clip0_receipt)">
<path fill-rule="evenodd" clip-rule="evenodd" d="M2.66663 3.33301C2.66663 2.22844 3.56206 1.33301 4.66663 1.33301H11.3333C12.4379 1.33301 13.3333 2.22844 13.3333 3.33301V13.9997C13.3333 14.2559 13.1864 14.4895 12.9554 14.6005C12.7244 14.7115 12.4503 14.6803 12.2502 14.5203L11 13.5201L9.74976 14.5203C9.48449 14.7325 9.10209 14.7113 8.86189 14.4711L7.99996 13.6091L7.13803 14.4711C6.89783 14.7113 6.51543 14.7325 6.25017 14.5203L4.99996 13.5201L3.74976 14.5203C3.54965 14.6803 3.27548 14.7115 3.0445 14.6005C2.81353 14.4895 2.66663 14.2559 2.66663 13.9997V3.33301ZM4.66663 2.66634C4.29844 2.66634 3.99996 2.96482 3.99996 3.33301V12.6126L4.58349 12.1457C4.82697 11.951 5.17295 11.951 5.41642 12.1457L6.61715 13.1063L7.52856 12.1949C7.78889 11.9346 8.21103 11.9346 8.47136 12.1949L9.38276 13.1063L10.5835 12.1457C10.827 11.951 11.173 11.951 11.4164 12.1457L12 12.6126V3.33301C12 2.96482 11.7015 2.66634 11.3333 2.66634H4.66663ZM5.33329 5.99967C5.33329 5.63149 5.63177 5.33301 5.99996 5.33301H9.99996C10.3682 5.33301 10.6666 5.63149 10.6666 5.99967C10.6666 6.36786 10.3682 6.66634 9.99996 6.66634H5.99996C5.63177 6.66634 5.33329 6.36786 5.33329 5.99967ZM5.99996 7.99967C5.63177 7.99967 5.33329 8.29814 5.33329 8.66634C5.33329 9.03454 5.63177 9.33301 5.99996 9.33301H7.99996C8.36816 9.33301 8.66663 9.03454 8.66663 8.66634C8.66663 8.29814 8.36816 7.99967 7.99996 7.99967H5.99996Z" fill="currentColor"/>
</g>
<defs>
<clipPath id="clip0_receipt">
<rect width="16" height="16" fill="white"/>
</clipPath>
</defs>
</svg>
