<svg width="16" height="16" viewBox="0 0 16 16" fill="none" xmlns="http://www.w3.org/2000/svg">
<g clip-path="url(#clip0_5699_25351)">
<path d="M12.6667 2.66699C13.1768 2.66696 13.6677 2.86188 14.0389 3.21185C14.41 3.56182 14.6334 4.0404 14.6634 4.54966L14.6667 4.66699V5.87833C14.6652 6.05838 14.6167 6.23492 14.5259 6.39044C14.4352 6.54597 14.3054 6.67508 14.1494 6.76499L14.078 6.80366C13.8624 6.90953 13.6793 7.07171 13.5482 7.27306C13.4171 7.47441 13.3428 7.70744 13.3333 7.94752C13.3237 8.1876 13.3792 8.4258 13.4939 8.63694C13.6085 8.84808 13.7781 9.02431 13.9847 9.14699L14.078 9.19699C14.3667 9.33966 14.6247 9.63433 14.662 10.0237L14.6667 10.1223V11.3337C14.6667 11.8438 14.4718 12.3347 14.1219 12.7058C13.7719 13.077 13.2933 13.3004 12.784 13.3303L12.6667 13.3337H3.33337C2.82323 13.3337 2.33236 13.1388 1.9612 12.7888C1.59004 12.4388 1.36664 11.9603 1.33671 11.451L1.33337 11.3337V10.1223C1.33337 9.71832 1.56804 9.40366 1.85071 9.23566L1.92204 9.19699C2.13773 9.09112 2.3208 8.92894 2.4519 8.72759C2.583 8.52624 2.65726 8.29321 2.66682 8.05313C2.67639 7.81305 2.6209 7.57485 2.50623 7.36371C2.39155 7.15257 2.22196 6.97634 2.01537 6.85366L1.92204 6.80366C1.63337 6.66099 1.37537 6.36633 1.33804 5.97699L1.33337 5.87899V4.66699C1.33335 4.15685 1.52826 3.66598 1.87823 3.29482C2.2282 2.92365 2.70678 2.70025 3.21604 2.67033L3.33337 2.66699H12.6667ZM12.6667 4.00033H3.33337C3.17009 4.00035 3.01248 4.0603 2.89046 4.1688C2.76844 4.27731 2.69048 4.42682 2.67137 4.58899L2.66671 4.66699V5.69033C3.06183 5.91806 3.39193 6.24335 3.62544 6.63509C3.85894 7.02682 3.98806 7.47191 4.00043 7.9278C4.01281 8.38368 3.90803 8.83512 3.69611 9.23895C3.48419 9.64278 3.17223 9.98549 2.79004 10.2343L2.66671 10.3103V11.3337C2.66673 11.4969 2.72668 11.6545 2.83518 11.7766C2.94369 11.8986 3.09321 11.9766 3.25537 11.9957L3.33337 12.0003H12.6667C12.83 12.0003 12.9876 11.9404 13.1096 11.8318C13.2316 11.7233 13.3096 11.5738 13.3287 11.4117L13.3334 11.3337V10.3103C12.9383 10.0826 12.6082 9.7573 12.3746 9.36557C12.1411 8.97383 12.012 8.52874 11.9996 8.07285C11.9873 7.61697 12.0921 7.16553 12.304 6.7617C12.5159 6.35787 12.8279 6.01516 13.21 5.76633L13.3334 5.69033V4.66699C13.3334 4.5037 13.2734 4.3461 13.1649 4.22408C13.0564 4.10205 12.9069 4.0241 12.7447 4.00499L12.6667 4.00033ZM6.66671 6.00033C6.83 6.00035 6.9876 6.0603 7.10962 6.1688C7.23165 6.27731 7.3096 6.42682 7.32871 6.58899L7.33337 6.66699V9.33366C7.33319 9.50358 7.26812 9.66701 7.15147 9.79057C7.03483 9.91413 6.8754 9.98848 6.70578 9.99844C6.53615 10.0084 6.36912 9.95321 6.23882 9.84415C6.10852 9.73509 6.02478 9.58039 6.00471 9.41166L6.00004 9.33366V6.66699C6.00004 6.49018 6.07028 6.32061 6.1953 6.19559C6.32033 6.07056 6.4899 6.00033 6.66671 6.00033Z" fill="currentColor"/>
</g>
<defs>
<clipPath id="clip0_5699_25351">
<rect width="16" height="16" fill="white"/>
</clipPath>
</defs>
</svg>
