<svg width="16" height="16" viewBox="0 0 16 16" fill="none" xmlns="http://www.w3.org/2000/svg">
<g clip-path="url(#clip0_5688_23205)">
<path fill-rule="evenodd" clip-rule="evenodd" d="M9.72957 1.93098C8.73291 1.0816 7.26697 1.0816 6.27027 1.93098L6.01929 2.14486C5.80575 2.32684 5.54023 2.43683 5.26053 2.45915L4.93183 2.48538C3.62647 2.58954 2.58991 3.62611 2.48574 4.93147L2.45951 5.26018C2.43719 5.53986 2.32721 5.80538 2.14522 6.01893L1.93134 6.26991C1.08197 7.26659 1.08197 8.73253 1.93134 9.7292L2.14522 9.9802C2.32721 10.1937 2.43719 10.4593 2.45951 10.7389L2.48574 11.0677C2.58991 12.373 3.62647 13.4096 4.93183 13.5137L5.26053 13.54C5.54023 13.5623 5.80575 13.6723 6.01929 13.8543L6.27027 14.0681C7.26697 14.9175 8.73291 14.9175 9.72957 14.0681L9.98057 13.8543C10.1941 13.6723 10.4596 13.5623 10.7393 13.54L11.068 13.5137C12.3734 13.4096 13.4099 12.373 13.5141 11.0677L13.5403 10.7389C13.5626 10.4593 13.6726 10.1937 13.8546 9.9802L14.0685 9.7292C14.9178 8.73253 14.9178 7.26659 14.0685 6.26991L13.8546 6.01893C13.6726 5.80538 13.5626 5.53986 13.5403 5.26018L13.5141 4.93147C13.4099 3.62611 12.3734 2.58954 11.068 2.48538L10.7393 2.45915C10.4596 2.43683 10.1941 2.32684 9.98057 2.14486L9.72957 1.93098ZM7.13511 2.9458C7.63344 2.52111 8.36637 2.52111 8.86477 2.9458L9.11571 3.15968C9.54284 3.52365 10.0738 3.74362 10.6332 3.78826L10.962 3.81448C11.6146 3.86657 12.1329 4.38485 12.185 5.03753L12.2112 5.36624C12.2558 5.92562 12.4758 6.45665 12.8398 6.88373L13.0537 7.13473C13.4784 7.63306 13.4784 8.36606 13.0537 8.8644L12.8398 9.11533C12.4758 9.54246 12.2558 10.0735 12.2112 10.6329L12.185 10.9616C12.1329 11.6143 11.6146 12.1325 10.962 12.1846L10.6332 12.2109C10.0738 12.2555 9.54284 12.4755 9.11571 12.8395L8.86477 13.0533C8.36637 13.478 7.63344 13.478 7.13511 13.0533L6.88411 12.8395C6.45701 12.4755 5.92597 12.2555 5.3666 12.2109L5.03789 12.1846C4.38521 12.1325 3.86693 11.6143 3.81485 10.9616L3.78862 10.6329C3.74398 10.0735 3.52401 9.54246 3.16004 9.11533L2.94616 8.8644C2.52147 8.36606 2.52147 7.63306 2.94616 7.13473L3.16004 6.88373C3.52401 6.45665 3.74398 5.92562 3.78862 5.36624L3.81485 5.03753C3.86693 4.38485 4.38521 3.86657 5.03789 3.81448L5.3666 3.78826C5.92597 3.74362 6.45701 3.52365 6.88411 3.15968L7.13511 2.9458ZM10.4713 6.47096C10.7317 6.21061 10.7317 5.7885 10.4713 5.52815C10.211 5.2678 9.78884 5.2678 9.52851 5.52815L5.52851 9.52813C5.26817 9.78853 5.26817 10.2106 5.52851 10.4709C5.78887 10.7313 6.21097 10.7313 6.47133 10.4709L10.4713 6.47096ZM7.33324 6.33289C7.33324 6.88519 6.88551 7.33286 6.33325 7.33286C5.78097 7.33286 5.33325 6.88519 5.33325 6.33289C5.33325 5.7806 5.78097 5.33289 6.33325 5.33289C6.88551 5.33289 7.33324 5.7806 7.33324 6.33289ZM9.66657 10.6662C10.2188 10.6662 10.6666 10.2185 10.6666 9.66619C10.6666 9.11393 10.2188 8.66619 9.66657 8.66619C9.11431 8.66619 8.66657 9.11393 8.66657 9.66619C8.66657 10.2185 9.11431 10.6662 9.66657 10.6662Z" fill="currentColor"/>
</g>
<defs>
<clipPath id="clip0_5688_23205">
<rect width="16" height="16" fill="white"/>
</clipPath>
</defs>
</svg>
