<svg width="33" height="32" viewBox="0 0 33 32" fill="none" xmlns="http://www.w3.org/2000/svg">
<path d="M16.9503 0.000479947C17.3699 0.0484278 17.7909 0.0810323 18.2077 0.144324C19.4647 0.33132 20.7053 0.600789 21.8698 1.11719C22.7565 1.50988 23.648 1.91408 24.4729 2.41801C26.0328 3.37188 27.4114 4.59511 28.5446 6.03088C29.6054 7.35795 30.4504 8.84422 31.0484 10.4349C31.777 12.3768 32.0932 14.392 32.0347 16.4615C31.988 18.4104 31.5759 20.3332 30.8199 22.1299C30.2281 23.5332 29.4425 24.8465 28.4861 26.0314C27.5726 27.1687 26.5059 28.1737 25.3164 29.0176C24.0615 29.9093 22.6864 30.618 21.2323 31.1225C17.8726 32.2847 14.2217 32.2927 10.8571 31.145C9.80099 30.7853 8.78511 30.3168 7.82581 29.7469C6.81412 29.1398 5.84601 28.4599 5.02161 27.6074C4.39169 26.9558 3.75986 26.297 3.20898 25.5802C2.70265 24.9204 2.2792 24.1921 1.86292 23.4705C1.28043 22.4583 0.874218 21.366 0.565727 20.2421C0.298066 19.2982 0.124608 18.3301 0.0479024 17.3519C0.0383219 17.2176 0.0158078 17.0843 0 16.951V15.0336C0.0124546 14.9554 0.0316154 14.8777 0.0368847 14.7991C0.144186 13.2375 0.498185 11.7328 1.05385 10.2704C2.05867 7.66299 3.72642 5.36345 5.89199 3.59945C8.1576 1.74934 10.8849 0.553514 13.7796 0.140964C14.1805 0.0815085 14.5853 0.045071 14.9887 0L16.9503 0.000479947ZM16.0095 1.14644C7.77983 1.14644 1.14391 7.80735 1.14726 16.0836C1.15062 24.1945 7.78845 30.7432 15.8025 30.8382C24.2745 30.9384 30.7725 24.207 30.8851 16.133C31.001 7.80303 24.1409 1.14021 16.0095 1.14644Z" fill="#002771"/>
<path d="M2.29306 15.7102C2.25522 14.068 2.57377 12.4713 3.18932 10.9409C3.615 9.89184 4.17885 8.90448 4.8659 8.00501C5.67449 6.93673 6.60763 5.99648 7.62939 5.13725C7.99632 4.82895 8.39583 4.84956 8.62336 5.19335C8.76707 5.41247 8.75557 5.63879 8.56444 5.81667C8.05428 6.29615 7.52161 6.75453 7.02582 7.24935C5.71042 8.56168 4.71692 10.0783 4.10042 11.8437C3.54715 13.426 3.36799 15.05 3.47769 16.7167C3.55897 18.0714 3.843 19.4063 4.32029 20.6767C4.6605 21.5704 5.10972 22.4186 5.65773 23.2021C6.25436 24.0482 6.95944 24.8121 7.75489 25.4743C8.52071 26.1113 9.35164 26.6655 10.2338 27.1276C11.132 27.6071 12.0671 27.9839 13.0577 28.2136C15.1218 28.6931 17.1859 28.6768 19.2371 28.1441C21.948 27.4232 24.3427 25.8208 26.0445 23.589C27.0254 22.2891 27.7471 20.8123 28.1699 19.2392C28.4406 18.2443 28.499 17.2287 28.5833 16.2132C28.5905 16.1255 28.5963 16.0377 28.6121 15.9514C28.6801 15.5851 28.9038 15.3957 29.2324 15.424C29.5471 15.4499 29.7493 15.669 29.7373 16.0363C29.7205 16.5378 29.6813 17.0393 29.629 17.539C29.4676 19.1359 29.0323 20.693 28.3424 22.142C27.8761 23.1124 27.2838 24.017 26.581 24.8323C25.5549 26.0339 24.3344 26.9967 22.9802 27.7897C21.0885 28.8983 19.0464 29.5566 16.8544 29.7077C15.3383 29.8107 13.8471 29.6343 12.3799 29.2334C11.453 28.9803 10.5514 28.6547 9.71314 28.1959C8.98982 27.8003 8.30481 27.329 7.62651 26.8576C6.82415 26.3 6.14441 25.6024 5.51306 24.8601C4.84149 24.0715 4.26687 23.2052 3.80151 22.2796C3.32775 21.3484 2.96534 20.3646 2.72179 19.3485C2.44108 18.158 2.26767 16.9511 2.29306 15.7102Z" fill="#002771"/>
<path d="M5.73349 16.0556C5.70235 17.4461 6.0209 18.8275 6.60627 20.147C7.17676 21.4323 8.00436 22.587 9.03801 23.5397C10.0717 24.4925 11.2894 25.223 12.6161 25.6864C12.7443 25.7306 12.8664 25.7907 12.9797 25.8652C13.1952 26.0091 13.257 26.2546 13.1651 26.525C13.0889 26.748 12.8982 26.8985 12.6472 26.8573C12.365 26.8114 12.0891 26.7325 11.8252 26.6223C10.6665 26.1352 9.58149 25.5157 8.60571 24.7203C7.76107 24.0412 7.03014 23.2316 6.44053 22.3219C5.06046 20.1695 4.49329 17.8033 4.60251 15.2678C4.66478 13.8265 5.03794 12.459 5.64726 11.1491C6.29897 9.74128 7.23539 8.48413 8.39734 7.45711C9.17849 6.76354 10.0513 6.18095 10.9913 5.72572C12.4183 5.03047 13.9205 4.67565 15.4998 4.58311C16.7841 4.50736 18.0262 4.71209 19.2539 5.04917C20.8988 5.49741 22.4122 6.334 23.6672 7.48875C24.7497 8.48246 25.6443 9.66347 26.308 10.975C26.5332 11.4142 26.3698 11.689 26.0451 11.8578C25.7576 12.0064 25.4492 11.8534 25.2853 11.5164C24.6449 10.1997 23.7462 9.08541 22.6368 8.13556C21.3334 7.00698 19.7547 6.24386 18.0612 5.92373C16.1752 5.56221 14.3109 5.67537 12.4992 6.33417C11.1225 6.82726 9.868 7.61138 8.82112 8.6332C7.77423 9.65501 6.95951 10.8905 6.43238 12.2557C5.95319 13.4644 5.71573 14.7554 5.73349 16.0556Z" fill="#002771"/>
<path d="M20.5142 21.7155H19.1586V17.0646H13.9444V21.7127H12.5979V11.3847H13.9363V15.9584H19.1533V11.3717C19.5845 11.3717 19.9964 11.3684 20.4089 11.377C20.4486 11.377 20.5047 11.4475 20.521 11.4954C20.5331 11.5661 20.5353 11.638 20.5277 11.7093C20.5277 14.94 20.5277 18.1706 20.5277 21.401C20.5272 21.5022 20.519 21.6029 20.5142 21.7155Z" fill="#002771"/>
</svg>
