<svg preserveAspectRatio="none" overflow="visible" style="display: block;" width="36" height="22.0896" viewBox="0 0 36 22.0896" fill="none" xmlns="http://www.w3.org/2000/svg">
<g id="Mastercard">
<path id="Left" fill-rule="evenodd" clip-rule="evenodd" d="M18 19.4511C16.0935 21.0964 13.6204 22.0896 10.918 22.0896C4.88817 22.0896 0 17.1446 0 11.0448C0 4.94491 4.88817 0 10.918 0C13.6204 0 16.0935 0.993201 18 2.63845C19.9065 0.993201 22.3796 0 25.082 0C31.1118 0 36 4.94491 36 11.0448C36 17.1446 31.1118 22.0896 25.082 22.0896C22.3796 22.0896 19.9065 21.0964 18 19.4511Z" fill="#ED0006"/>
<path id="Right" fill-rule="evenodd" clip-rule="evenodd" d="M18 19.4511C20.3475 17.4253 21.8361 14.4109 21.8361 11.0448C21.8361 7.67867 20.3475 4.66426 18 2.63845C19.9065 0.993201 22.3796 0 25.082 0C31.1118 0 36 4.94491 36 11.0448C36 17.1446 31.1118 22.0896 25.082 22.0896C22.3796 22.0896 19.9065 21.0964 18 19.4511Z" fill="#F9A000"/>
<path id="Middle" fill-rule="evenodd" clip-rule="evenodd" d="M18 2.6385C20.3475 4.66432 21.8361 7.6787 21.8361 11.0448C21.8361 14.4109 20.3475 17.4253 18 19.4511C15.6525 17.4253 14.164 14.4109 14.164 11.0448C14.164 7.6787 15.6525 4.66432 18 2.6385Z" fill="#FF5E00"/>
</g>
</svg>
