<svg viewBox="0 0 14 14" fill="none" xmlns="http://www.w3.org/2000/svg">
<g id="Inner">
<g id="MingCute">
</g>
<path id="Vector" d="M7 1.16667C10.2216 1.16667 12.8333 3.77834 12.8333 7C12.8333 10.2216 10.2216 12.8333 7 12.8333C3.77834 12.8333 1.16667 10.2216 1.16667 7C1.16667 3.77834 3.77834 1.16667 7 1.16667ZM5.7626 4.93758C5.53479 4.70978 5.16545 4.70978 4.93764 4.93758C4.72736 5.14787 4.71118 5.47875 4.88911 5.70759L4.93764 5.76254L6.17505 6.99994L4.93758 8.23743C4.70978 8.46522 4.70978 8.83458 4.93758 9.06238C5.14787 9.27264 5.47875 9.28882 5.70759 9.1109L5.76254 9.06238L7 7.82489L8.23748 9.06238C8.46528 9.29017 8.83464 9.29017 9.06243 9.06238C9.2727 8.85211 9.28888 8.52121 9.11096 8.29238L9.06243 8.23743L7.82495 6.99994L9.06238 5.76253C9.29017 5.53473 9.29017 5.16538 9.06238 4.93757C8.85211 4.72729 8.52121 4.71111 8.29238 4.88905L8.23743 4.93757L7 6.17499L5.7626 4.93758Z" fill="#DC3545"/>
</g>
</svg>
