<svg viewBox="0 0 16 16" fill="none" xmlns="http://www.w3.org/2000/svg">
<g id="Inner">
<g id="MingCute">
</g>
<path id="Vector" fill-rule="evenodd" clip-rule="evenodd" d="M7.66667 2.66667C9.05067 2.66667 10.2173 3.60442 10.5627 4.88034C10.6318 5.13549 10.8435 5.32609 11.1035 5.36883C12.3683 5.57683 13.3333 6.67633 13.3333 8C13.3333 8.9862 12.7983 9.84827 11.9995 10.3103C11.6808 10.4947 11.5719 10.9025 11.7563 11.2212C11.9406 11.5399 12.3485 11.6488 12.6671 11.4645C13.861 10.7739 14.6667 9.4814 14.6667 8C14.6667 6.15641 13.42 4.60511 11.7237 4.14132C11.1067 2.50103 9.52373 1.33333 7.66667 1.33333C5.29209 1.33333 3.36362 3.24329 3.33369 5.61076C2.15645 6.12499 1.33333 7.29907 1.33333 8.66667C1.33333 10.0666 2.19615 11.2635 3.41652 11.7575C3.75781 11.8956 4.14647 11.7309 4.28463 11.3897C4.42277 11.0483 4.2581 10.6597 3.91681 10.5215C3.18263 10.2243 2.66667 9.50493 2.66667 8.66667C2.66667 7.731 3.30979 6.94393 4.17901 6.7264C4.50339 6.6452 4.72196 6.33647 4.68486 5.99949C4.49269 4.25391 5.90089 2.66667 7.66667 2.66667ZM8 7.33333C8.3682 7.33333 8.66667 7.6318 8.66667 8V12.3892L9.52893 11.5282C9.78953 11.2681 10.2116 11.2684 10.4718 11.5289C10.7319 11.7895 10.7316 12.2116 10.4711 12.4718L8.5888 14.3511C8.42007 14.5195 8.25593 14.6667 8 14.6667C7.74407 14.6667 7.57993 14.5195 7.4112 14.3511L5.52897 12.4718C5.26841 12.2116 5.26808 11.7895 5.52823 11.5289C5.78837 11.2684 6.21048 11.2681 6.47103 11.5282L7.33333 12.3892V8C7.33333 7.6318 7.6318 7.33333 8 7.33333Z" fill="#61667C"/>
</g>
</svg>
