<svg viewBox="0 0 24 24" fill="none" xmlns="http://www.w3.org/2000/svg">
<g id="File Type" clip-path="url(#clip0_0_723)">
<g id="Vector">
</g>
<path id="Vector_2" d="M14 3V7C14 7.26522 14.1054 7.51957 14.2929 7.70711C14.4804 7.89464 14.7348 8 15 8H19" stroke="#61667C" stroke-width="2" stroke-linecap="round" stroke-linejoin="round"/>
<path id="Vector_3" d="M5 12V5C5 4.46957 5.21071 3.96086 5.58579 3.58579C5.96086 3.21071 6.46957 3 7 3H14L19 8V12" stroke="#61667C" stroke-width="2" stroke-linecap="round" stroke-linejoin="round"/>
<path id="Vector_4" d="M3 12H21" stroke="#61667C" stroke-width="2" stroke-linecap="round" stroke-linejoin="round"/>
<g id="Text">
<path d="M4.78573 20.029V18.814H6.21673C6.50473 18.814 6.73573 18.727 6.90973 18.553C7.08373 18.373 7.17073 18.139 7.17073 17.851C7.17073 17.575 7.08373 17.353 6.90973 17.185C6.73573 17.017 6.50473 16.933 6.21673 16.933H4.78573V15.718H6.22573C6.72373 15.718 7.15873 15.805 7.53073 15.979C7.90273 16.153 8.19073 16.402 8.39473 16.726C8.59873 17.044 8.70073 17.419 8.70073 17.851C8.70073 18.289 8.59873 18.673 8.39473 19.003C8.19073 19.327 7.90273 19.579 7.53073 19.759C7.16473 19.939 6.72973 20.029 6.22573 20.029H4.78573ZM3.72373 22V15.718H5.20873V22H3.72373Z" fill="#61667C"/>
<path d="M9.55924 22V15.718H11.6742C12.1482 15.718 12.5712 15.793 12.9432 15.943C13.3212 16.087 13.6422 16.297 13.9062 16.573C14.1702 16.843 14.3712 17.17 14.5092 17.554C14.6472 17.938 14.7162 18.367 14.7162 18.841C14.7162 19.321 14.6472 19.756 14.5092 20.146C14.3712 20.53 14.1702 20.863 13.9062 21.145C13.6422 21.421 13.3212 21.634 12.9432 21.784C12.5712 21.928 12.1482 22 11.6742 22H9.55924ZM11.0442 20.785H11.6742C11.9982 20.785 12.2712 20.707 12.4932 20.551C12.7212 20.389 12.8922 20.161 13.0062 19.867C13.1262 19.573 13.1862 19.231 13.1862 18.841C13.1862 18.451 13.1262 18.115 13.0062 17.833C12.8922 17.545 12.7212 17.323 12.4932 17.167C12.2712 17.011 11.9982 16.933 11.6742 16.933H11.0442V20.785Z" fill="#61667C"/>
<path d="M15.5298 22V15.718H20.2728V16.933H17.0148V18.148H19.1478V19.363H17.0148V22H15.5298Z" fill="#61667C"/>
</g>
</g>
<defs>
<clipPath id="clip0_0_723">
<rect width="24" height="24" fill="white"/>
</clipPath>
</defs>
</svg>
