<svg viewBox="0 0 16 16" fill="none" xmlns="http://www.w3.org/2000/svg">
<g id="Inner">
<g id="MingCute">
</g>
<path id="Vector" fill-rule="evenodd" clip-rule="evenodd" d="M7.66667 2.66667C5.90089 2.66667 4.49269 4.25391 4.68486 5.99949C4.72196 6.33647 4.50339 6.6452 4.17901 6.7264C3.30979 6.94393 2.66667 7.731 2.66667 8.66667C2.66667 9.77127 3.5621 10.6667 4.66667 10.6667H5.33333C5.70152 10.6667 6 10.9651 6 11.3333C6 11.7015 5.70152 12 5.33333 12H4.66667C2.82572 12 1.33333 10.5076 1.33333 8.66667C1.33333 7.29907 2.15645 6.12499 3.33369 5.61076C3.36362 3.24329 5.29209 1.33333 7.66667 1.33333C9.52373 1.33333 11.1067 2.50103 11.7237 4.14132C13.42 4.60511 14.6667 6.15641 14.6667 8C14.6667 10.2091 12.8758 12 10.6667 12C10.2985 12 10 11.7015 10 11.3333C10 10.9651 10.2985 10.6667 10.6667 10.6667C12.1394 10.6667 13.3333 9.47273 13.3333 8C13.3333 6.67633 12.3683 5.57683 11.1035 5.36883C10.8435 5.32609 10.6318 5.13549 10.5627 4.88034C10.2173 3.60442 9.05067 2.66667 7.66667 2.66667ZM8.66667 8.27747L9.52893 9.13847C9.78953 9.3986 10.2116 9.39827 10.4718 9.13773C10.7319 8.87713 10.7316 8.45507 10.4711 8.19487L8.5888 6.31561C8.26347 5.99079 7.73653 5.99079 7.4112 6.31561L5.52897 8.19487C5.26841 8.45507 5.26808 8.87713 5.52823 9.13773C5.78837 9.39827 6.21048 9.3986 6.47103 9.13847L7.33333 8.27747V14C7.33333 14.3682 7.6318 14.6667 8 14.6667C8.3682 14.6667 8.66667 14.3682 8.66667 14V8.27747Z" fill="#61667C"/>
</g>
</svg>
