<svg viewBox="0 0 14 14" fill="none" xmlns="http://www.w3.org/2000/svg">
<g id="Inner">
<g id="MingCute">
</g>
<path id="Vector" d="M9.33333 1.75C9.6325 1.75 9.87905 1.97519 9.91274 2.2653L9.91667 2.33333V2.91667H11.0833C11.6984 2.91667 12.2023 3.3926 12.2468 3.99626L12.25 4.08333V11.0833C12.25 11.6984 11.7741 12.2023 11.1704 12.2468L11.0833 12.25H2.91667C2.30162 12.25 1.79774 11.7741 1.7532 11.1704L1.75 11.0833V4.08333C1.75 3.46829 2.22593 2.9644 2.8296 2.91987L2.91667 2.91667H4.08333V2.33333C4.08333 2.01117 4.3445 1.75 4.66667 1.75C4.96582 1.75 5.21238 1.97519 5.24608 2.2653L5.25 2.33333V2.91667H8.75V2.33333C8.75 2.01117 9.01116 1.75 9.33333 1.75ZM11.0833 7H2.91667V11.0833H11.0833V7ZM11.0833 4.08333H2.91667V5.83333H11.0833V4.08333Z" fill="#61667C"/>
</g>
</svg>
