<svg viewBox="0 0 24 24" fill="none" xmlns="http://www.w3.org/2000/svg">
<g id="File Type" clip-path="url(#clip0_0_748)">
<g id="Vector">
</g>
<path id="Vector_2" d="M14 3V7C14 7.26522 14.1054 7.51957 14.2929 7.70711C14.4804 7.89464 14.7348 8 15 8H19" stroke="#61667C" stroke-width="2" stroke-linecap="round" stroke-linejoin="round"/>
<path id="Vector_3" d="M5 12V5C5 4.46957 5.21071 3.96086 5.58579 3.58579C5.96086 3.21071 6.46957 3 7 3H14L19 8V12" stroke="#61667C" stroke-width="2" stroke-linecap="round" stroke-linejoin="round"/>
<path id="Vector_4" d="M3 12H21" stroke="#61667C" stroke-width="2" stroke-linecap="round" stroke-linejoin="round"/>
<g id="Text">
<path d="M6.17173 22.108C5.60773 22.108 5.11873 21.976 4.70473 21.712C4.29673 21.442 3.97873 21.064 3.75073 20.578C3.52873 20.086 3.41773 19.513 3.41773 18.859C3.41773 18.199 3.53173 17.626 3.75973 17.14C3.98773 16.654 4.31173 16.279 4.73173 16.015C5.15173 15.745 5.64973 15.61 6.22573 15.61C6.67573 15.61 7.08973 15.697 7.46773 15.871C7.84573 16.045 8.15473 16.297 8.39473 16.627C8.64073 16.957 8.77573 17.359 8.79973 17.833H7.17973C7.14973 17.527 7.05373 17.284 6.89173 17.104C6.72973 16.918 6.50773 16.825 6.22573 16.825C5.98573 16.825 5.76673 16.903 5.56873 17.059C5.37673 17.209 5.22373 17.437 5.10973 17.743C5.00173 18.043 4.94773 18.415 4.94773 18.859C4.94773 19.297 5.00173 19.669 5.10973 19.975C5.21773 20.275 5.36173 20.503 5.54173 20.659C5.72773 20.815 5.93773 20.893 6.17173 20.893C6.36973 20.893 6.54073 20.854 6.68473 20.776C6.83473 20.692 6.95473 20.572 7.04473 20.416C7.14073 20.26 7.19773 20.071 7.21573 19.849H8.83573C8.78773 20.311 8.64973 20.713 8.42173 21.055C8.19973 21.391 7.89973 21.652 7.52173 21.838C7.14373 22.018 6.69373 22.108 6.17173 22.108Z" fill="#61667C"/>
<path d="M12.0342 22.108C11.5182 22.108 11.0742 22.012 10.7022 21.82C10.3362 21.622 10.0542 21.346 9.85624 20.992C9.66424 20.632 9.56824 20.209 9.56824 19.723H11.0262C11.0262 20.101 11.1072 20.392 11.2692 20.596C11.4372 20.794 11.6922 20.893 12.0342 20.893C12.3042 20.893 12.5172 20.836 12.6732 20.722C12.8352 20.602 12.9162 20.434 12.9162 20.218C12.9162 20.056 12.8562 19.93 12.7362 19.84C12.6222 19.744 12.4662 19.666 12.2682 19.606C12.0762 19.54 11.8632 19.48 11.6292 19.426C11.4012 19.366 11.1702 19.294 10.9362 19.21C10.7082 19.126 10.4952 19.015 10.2972 18.877C10.1052 18.739 9.94924 18.559 9.82924 18.337C9.71524 18.115 9.65824 17.833 9.65824 17.491C9.65824 17.137 9.75424 16.819 9.94624 16.537C10.1442 16.255 10.4172 16.03 10.7652 15.862C11.1132 15.694 11.5212 15.61 11.9892 15.61C12.4152 15.61 12.8112 15.694 13.1772 15.862C13.5432 16.024 13.8402 16.261 14.0682 16.573C14.2962 16.885 14.4162 17.269 14.4282 17.725H12.9432C12.9312 17.521 12.8772 17.353 12.7812 17.221C12.6912 17.089 12.5742 16.99 12.4302 16.924C12.2922 16.858 12.1452 16.825 11.9892 16.825C11.7672 16.825 11.5782 16.879 11.4222 16.987C11.2662 17.089 11.1882 17.242 11.1882 17.446C11.1882 17.602 11.2452 17.725 11.3592 17.815C11.4792 17.905 11.6352 17.98 11.8272 18.04C12.0252 18.094 12.2382 18.148 12.4662 18.202C12.7002 18.256 12.9312 18.325 13.1592 18.409C13.3932 18.487 13.6062 18.598 13.7982 18.742C13.9962 18.886 14.1522 19.078 14.2662 19.318C14.3862 19.552 14.4462 19.852 14.4462 20.218C14.4462 20.584 14.3412 20.911 14.1312 21.199C13.9272 21.481 13.6422 21.703 13.2762 21.865C12.9162 22.027 12.5022 22.108 12.0342 22.108Z" fill="#61667C"/>
<path d="M16.7808 22L15.1968 15.718H16.7268L17.6178 19.228L17.9058 20.866L18.1938 19.228L19.0848 15.718H20.5968L19.0038 22H16.7808Z" fill="#61667C"/>
</g>
</g>
<defs>
<clipPath id="clip0_0_748">
<rect width="24" height="24" fill="white"/>
</clipPath>
</defs>
</svg>
