<svg viewBox="0 0 16 16" fill="none" xmlns="http://www.w3.org/2000/svg">
<g id="Inner">
<g id="MingCute">
</g>
<path id="&#232;&#183;&#175;&#229;&#190;&#132;" fill-rule="evenodd" clip-rule="evenodd" d="M12.4735 11.7102C13.58 10.6037 13.58 8.8097 12.4735 7.70324L8.11305 3.34274C7.85272 3.08239 7.85272 2.66028 8.11305 2.39993C8.37338 2.13958 8.79552 2.13958 9.05585 2.39993L13.4163 6.76044C15.0435 8.38764 15.0435 11.0258 13.4163 12.653C11.7892 14.2802 9.15098 14.2802 7.52378 12.653L2.22117 7.35037C1.04922 6.17842 1.04922 4.2783 2.22117 3.10635C3.39312 1.9344 5.29324 1.9344 6.46519 3.10635L11.7671 8.40824C12.4834 9.12464 12.4834 10.286 11.7671 11.0024C11.0508 11.7187 9.88932 11.7187 9.17298 11.0024L4.3418 6.17117C4.08145 5.91082 4.08145 5.48871 4.3418 5.22836C4.60215 4.96801 5.02426 4.96801 5.28461 5.22836L10.1158 10.0596C10.3114 10.2552 10.6286 10.2552 10.8243 10.0596C11.0199 9.86391 11.0199 9.5467 10.8243 9.3511L5.52238 4.04916C4.87112 3.3979 3.81523 3.3979 3.16398 4.04916C2.51272 4.70041 2.51272 5.7563 3.16398 6.40756L8.46658 11.7102C9.57305 12.8166 11.367 12.8166 12.4735 11.7102Z" fill="#09244B"/>
</g>
</svg>
