<svg viewBox="0 0 16 16" fill="none" xmlns="http://www.w3.org/2000/svg">
<g fill="#EAA00C">
<rect x="7.3" y="1.6" width="1.4" height="3.2" rx="0.7" opacity="1"/>
<rect x="7.3" y="1.6" width="1.4" height="3.2" rx="0.7" opacity="0.85" transform="rotate(45 8 8)"/>
<rect x="7.3" y="1.6" width="1.4" height="3.2" rx="0.7" opacity="0.7" transform="rotate(90 8 8)"/>
<rect x="7.3" y="1.6" width="1.4" height="3.2" rx="0.7" opacity="0.6" transform="rotate(135 8 8)"/>
<rect x="7.3" y="1.6" width="1.4" height="3.2" rx="0.7" opacity="0.5" transform="rotate(180 8 8)"/>
<rect x="7.3" y="1.6" width="1.4" height="3.2" rx="0.7" opacity="0.4" transform="rotate(225 8 8)"/>
<rect x="7.3" y="1.6" width="1.4" height="3.2" rx="0.7" opacity="0.3" transform="rotate(270 8 8)"/>
<rect x="7.3" y="1.6" width="1.4" height="3.2" rx="0.7" opacity="0.2" transform="rotate(315 8 8)"/>
</g>
</svg>
