<svg viewBox="0 0 14 14" fill="none" xmlns="http://www.w3.org/2000/svg">
<g id="Inner">
<g id="MingCute">
</g>
<path id="Vector" fill-rule="evenodd" clip-rule="evenodd" d="M9.33333 8.16667C10.9018 8.16667 12.1811 9.40469 12.2473 10.9568L12.25 11.0833V11.6667C12.25 12.2817 11.7741 12.7856 11.1704 12.8301L11.0833 12.8333H2.91667C2.30162 12.8333 1.79774 12.3574 1.7532 11.7537L1.75 11.6667V11.0833C1.75 9.51491 2.98801 8.23561 4.54015 8.16936L4.66667 8.16667H9.33333ZM9.33333 9.33333H4.66667C3.73469 9.33333 2.97286 10.0618 2.91964 10.9805L2.91667 11.0833V11.6667H11.0833V11.0833C11.0833 10.1513 10.3548 9.38953 9.43616 9.3363L9.33333 9.33333ZM7 1.16667C8.61082 1.16667 9.91667 2.47251 9.91667 4.08333C9.91667 5.69416 8.61082 7 7 7C5.38917 7 4.08333 5.69416 4.08333 4.08333C4.08333 2.47251 5.38917 1.16667 7 1.16667ZM7 2.33333C6.03348 2.33333 5.25 3.11684 5.25 4.08333C5.25 5.04983 6.03348 5.83333 7 5.83333C7.96653 5.83333 8.75 5.04983 8.75 4.08333C8.75 3.11684 7.96653 2.33333 7 2.33333Z" fill="#61667C"/>
</g>
</svg>
