<svg viewBox="0 0 16 16" fill="none" xmlns="http://www.w3.org/2000/svg">
<g id="Inner">
<g id="Mingcute">
</g>
<path id="Vector" fill-rule="evenodd" clip-rule="evenodd" d="M2.66667 2.66667C2.66667 2.31304 2.80714 1.97391 3.05719 1.72386C3.30724 1.47381 3.64638 1.33333 4 1.33333H12C12.3536 1.33333 12.6928 1.47381 12.9428 1.72386C13.1929 1.97391 13.3333 2.31304 13.3333 2.66667V13.3333C13.3333 13.687 13.1929 14.0261 12.9428 14.2761C12.6928 14.5262 12.3536 14.6667 12 14.6667H4C3.64638 14.6667 3.30724 14.5262 3.05719 14.2761C2.80714 14.0261 2.66667 13.687 2.66667 13.3333V2.66667ZM12 2.66667H4V13.3333H12V2.66667ZM7.69867 4.50867C7.82365 4.63368 7.89386 4.80322 7.89386 4.98C7.89386 5.15678 7.82365 5.32631 7.69867 5.45133L6.402 6.74667C6.24574 6.90279 6.03389 6.99049 5.813 6.99049C5.59211 6.99049 5.38026 6.90279 5.224 6.74667L4.63467 6.15733C4.57099 6.09584 4.52021 6.02227 4.48527 5.94094C4.45033 5.8596 4.43194 5.77212 4.43117 5.6836C4.4304 5.59508 4.44727 5.50729 4.48079 5.42536C4.51431 5.34343 4.56381 5.269 4.6264 5.2064C4.689 5.14381 4.76343 5.09431 4.84536 5.06079C4.92729 5.02726 5.01508 5.0104 5.1036 5.01117C5.19212 5.01194 5.2796 5.03033 5.36094 5.06527C5.44227 5.1002 5.51584 5.15099 5.57733 5.21467L5.81333 5.45067L6.756 4.508C6.88102 4.38302 7.05056 4.31281 7.22733 4.31281C7.40411 4.31281 7.57365 4.38369 7.69867 4.50867ZM8.66667 6C8.66667 5.82319 8.7369 5.65362 8.86193 5.5286C8.98695 5.40357 9.15652 5.33333 9.33333 5.33333H10.6667C10.8435 5.33333 11.013 5.40357 11.1381 5.5286C11.2631 5.65362 11.3333 5.82319 11.3333 6C11.3333 6.17681 11.2631 6.34638 11.1381 6.4714C11.013 6.59643 10.8435 6.66667 10.6667 6.66667H9.33333C9.15652 6.66667 8.98695 6.59643 8.86193 6.4714C8.7369 6.34638 8.66667 6.17681 8.66667 6ZM4.66667 9C4.66667 8.73478 4.77202 8.48043 4.95956 8.29289C5.1471 8.10536 5.40145 8 5.66667 8H7C7.26522 8 7.51957 8.10536 7.70711 8.29289C7.89464 8.48043 8 8.73478 8 9V10.3333C8 10.5985 7.89464 10.8529 7.70711 11.0404C7.51957 11.228 7.26522 11.3333 7 11.3333H5.66667C5.40145 11.3333 5.1471 11.228 4.95956 11.0404C4.77202 10.8529 4.66667 10.5985 4.66667 10.3333V9ZM6 9.33333V10H6.66667V9.33333H6ZM8.66667 9.66667C8.66667 9.48986 8.7369 9.32029 8.86193 9.19526C8.98695 9.07024 9.15652 9 9.33333 9H10.6667C10.8435 9 11.013 9.07024 11.1381 9.19526C11.2631 9.32029 11.3333 9.48986 11.3333 9.66667C11.3333 9.84348 11.2631 10.013 11.1381 10.1381C11.013 10.2631 10.8435 10.3333 10.6667 10.3333H9.33333C9.15652 10.3333 8.98695 10.2631 8.86193 10.1381C8.7369 10.013 8.66667 9.84348 8.66667 9.66667Z" fill="#7D1AB7"/>
</g>
</svg>
