<svg viewBox="0 0 16 16" fill="none" xmlns="http://www.w3.org/2000/svg">
<g id="File Type" clip-path="url(#clip0_0_148)">
<g id="Vector">
</g>
<path id="Vector_2" d="M9.33333 2V4.66667C9.33333 4.84348 9.40357 5.01305 9.5286 5.13807C9.65362 5.2631 9.82319 5.33333 10 5.33333H12.6667" stroke="#4C689C" stroke-width="1.33333" stroke-linecap="round" stroke-linejoin="round"/>
<path id="Vector_3" d="M3.33333 8V3.33333C3.33333 2.97971 3.47381 2.64057 3.72386 2.39052C3.97391 2.14048 4.31304 2 4.66667 2H9.33333L12.6667 5.33333V8" stroke="#4C689C" stroke-width="1.33333" stroke-linecap="round" stroke-linejoin="round"/>
<path id="Vector_4" d="M2 8H14" stroke="#4C689C" stroke-width="1.33333" stroke-linecap="round" stroke-linejoin="round"/>
<g id="Text">
<path d="M3.19048 13.3527V12.5427H4.14448C4.33648 12.5427 4.49048 12.4847 4.60648 12.3687C4.72248 12.2487 4.78048 12.0927 4.78048 11.9007C4.78048 11.7167 4.72248 11.5687 4.60648 11.4567C4.49048 11.3447 4.33648 11.2887 4.14448 11.2887H3.19048V10.4787H4.15048C4.48248 10.4787 4.77248 10.5367 5.02048 10.6527C5.26848 10.7687 5.46048 10.9347 5.59648 11.1507C5.73248 11.3627 5.80048 11.6127 5.80048 11.9007C5.80048 12.1927 5.73248 12.4487 5.59648 12.6687C5.46048 12.8847 5.26848 13.0527 5.02048 13.1727C4.77648 13.2927 4.48648 13.3527 4.15048 13.3527H3.19048ZM2.48248 14.6667V10.4787H3.47248V14.6667H2.48248Z" fill="#4C689C"/>
<path d="M6.37283 14.6667V10.4787H7.78283C8.09883 10.4787 8.38083 10.5287 8.62883 10.6287C8.88083 10.7247 9.09483 10.8647 9.27083 11.0487C9.44683 11.2287 9.58083 11.4467 9.67283 11.7027C9.76483 11.9587 9.81083 12.2447 9.81083 12.5607C9.81083 12.8807 9.76483 13.1707 9.67283 13.4307C9.58083 13.6867 9.44683 13.9087 9.27083 14.0967C9.09483 14.2807 8.88083 14.4227 8.62883 14.5227C8.38083 14.6187 8.09883 14.6667 7.78283 14.6667H6.37283ZM7.36283 13.8567H7.78283C7.99883 13.8567 8.18083 13.8047 8.32883 13.7007C8.48083 13.5927 8.59483 13.4407 8.67083 13.2447C8.75083 13.0487 8.79083 12.8207 8.79083 12.5607C8.79083 12.3007 8.75083 12.0767 8.67083 11.8887C8.59483 11.6967 8.48083 11.5487 8.32883 11.4447C8.18083 11.3407 7.99883 11.2887 7.78283 11.2887H7.36283V13.8567Z" fill="#4C689C"/>
<path d="M10.3532 14.6667V10.4787H13.5152V11.2887H11.3432V12.0987H12.7652V12.9087H11.3432V14.6667H10.3532Z" fill="#4C689C"/>
</g>
</g>
<defs>
<clipPath id="clip0_0_148">
<rect width="16" height="16" fill="white"/>
</clipPath>
</defs>
</svg>
