<svg viewBox="0 0 16 16" fill="none" xmlns="http://www.w3.org/2000/svg">
<g id="Inner">
<g id="MingCute">
</g>
<path id="Vector" fill-rule="evenodd" clip-rule="evenodd" d="M8 8.94293L11.7712 12.7142C12.0315 12.9745 12.4537 12.9745 12.714 12.7142C12.9743 12.4538 12.9743 12.0317 12.714 11.7713L8.9428 8.00013L12.714 4.2289C12.9743 3.96855 12.9743 3.54644 12.714 3.28609C12.4537 3.02574 12.0315 3.02574 11.7712 3.28609L8 7.05733L4.22873 3.28608C3.96838 3.02573 3.54627 3.02573 3.28592 3.28608C3.02557 3.54643 3.02557 3.96854 3.28592 4.22889L7.05713 8.00013L3.28592 11.7714C3.02557 12.0317 3.02557 12.4538 3.28592 12.7142C3.54627 12.9745 3.96838 12.9745 4.22873 12.7142L8 8.94293Z" fill="#9295A5"/>
</g>
</svg>
