<svg viewBox="0 0 16 16" fill="none" xmlns="http://www.w3.org/2000/svg">
<g id="File Type" clip-path="url(#clip0_0_136)">
<g id="Vector">
</g>
<path id="Vector_2" d="M9.33333 2V4.66667C9.33333 4.84348 9.40357 5.01305 9.5286 5.13807C9.65362 5.2631 9.82319 5.33333 10 5.33333H12.6667" stroke="#4C689C" stroke-width="1.33333" stroke-linecap="round" stroke-linejoin="round"/>
<path id="Vector_3" d="M3.33333 8V3.33333C3.33333 2.97971 3.47381 2.64057 3.72386 2.39052C3.97391 2.14048 4.31304 2 4.66667 2H9.33333L12.6667 5.33333V8" stroke="#4C689C" stroke-width="1.33333" stroke-linecap="round" stroke-linejoin="round"/>
<path id="Vector_4" d="M2 8H14" stroke="#4C689C" stroke-width="1.33333" stroke-linecap="round" stroke-linejoin="round"/>
<g id="Text">
<path d="M2.44648 14.6667V10.4787H3.85648C4.17248 10.4787 4.45448 10.5287 4.70248 10.6287C4.95448 10.7247 5.16848 10.8647 5.34448 11.0487C5.52048 11.2287 5.65448 11.4467 5.74648 11.7027C5.83848 11.9587 5.88448 12.2447 5.88448 12.5607C5.88448 12.8807 5.83848 13.1707 5.74648 13.4307C5.65448 13.6867 5.52048 13.9087 5.34448 14.0967C5.16848 14.2807 4.95448 14.4227 4.70248 14.5227C4.45448 14.6187 4.17248 14.6667 3.85648 14.6667H2.44648ZM3.43648 13.8567H3.85648C4.07248 13.8567 4.25448 13.8047 4.40248 13.7007C4.55448 13.5927 4.66848 13.4407 4.74448 13.2447C4.82448 13.0487 4.86448 12.8207 4.86448 12.5607C4.86448 12.3007 4.82448 12.0767 4.74448 11.8887C4.66848 11.6967 4.55448 11.5487 4.40248 11.4447C4.25448 11.3407 4.07248 11.2887 3.85648 11.2887H3.43648V13.8567Z" fill="#4C689C"/>
<path d="M8.00483 14.7387C7.63683 14.7387 7.31283 14.6527 7.03283 14.4807C6.75683 14.3047 6.54083 14.0547 6.38483 13.7307C6.23283 13.4067 6.15683 13.0207 6.15683 12.5727C6.15683 12.1207 6.23283 11.7327 6.38483 11.4087C6.54083 11.0847 6.75683 10.8367 7.03283 10.6647C7.31283 10.4927 7.63683 10.4067 8.00483 10.4067C8.37283 10.4067 8.69483 10.4927 8.97083 10.6647C9.24683 10.8367 9.46083 11.0847 9.61283 11.4087C9.76883 11.7287 9.84683 12.1167 9.84683 12.5727C9.84683 13.0207 9.76883 13.4067 9.61283 13.7307C9.46083 14.0547 9.24683 14.3047 8.97083 14.4807C8.69483 14.6527 8.37283 14.7387 8.00483 14.7387ZM8.00483 13.9287C8.16083 13.9287 8.30083 13.8767 8.42483 13.7727C8.54883 13.6647 8.64683 13.5107 8.71883 13.3107C8.79083 13.1067 8.82683 12.8607 8.82683 12.5727C8.82683 12.2807 8.79083 12.0347 8.71883 11.8347C8.64683 11.6307 8.54883 11.4767 8.42483 11.3727C8.30083 11.2687 8.16083 11.2167 8.00483 11.2167C7.84883 11.2167 7.70683 11.2707 7.57883 11.3787C7.45483 11.4827 7.35683 11.6367 7.28483 11.8407C7.21283 12.0407 7.17683 12.2847 7.17683 12.5727C7.17683 12.8607 7.21283 13.1067 7.28483 13.3107C7.35683 13.5107 7.45483 13.6647 7.57883 13.7727C7.70683 13.8767 7.84883 13.9287 8.00483 13.9287Z" fill="#4C689C"/>
<path d="M11.9672 14.7387C11.5912 14.7387 11.2652 14.6507 10.9892 14.4747C10.7172 14.2947 10.5052 14.0427 10.3532 13.7187C10.2052 13.3907 10.1312 13.0087 10.1312 12.5727C10.1312 12.1327 10.2072 11.7507 10.3592 11.4267C10.5112 11.1027 10.7272 10.8527 11.0072 10.6767C11.2872 10.4967 11.6192 10.4067 12.0032 10.4067C12.3032 10.4067 12.5792 10.4647 12.8312 10.5807C13.0832 10.6967 13.2892 10.8647 13.4492 11.0847C13.6132 11.3047 13.7032 11.5727 13.7192 11.8887H12.6392C12.6192 11.6847 12.5552 11.5227 12.4472 11.4027C12.3392 11.2787 12.1912 11.2167 12.0032 11.2167C11.8432 11.2167 11.6972 11.2687 11.5652 11.3727C11.4372 11.4727 11.3352 11.6247 11.2592 11.8287C11.1872 12.0287 11.1512 12.2767 11.1512 12.5727C11.1512 12.8647 11.1872 13.1127 11.2592 13.3167C11.3312 13.5167 11.4272 13.6687 11.5472 13.7727C11.6712 13.8767 11.8112 13.9287 11.9672 13.9287C12.0992 13.9287 12.2132 13.9027 12.3092 13.8507C12.4092 13.7947 12.4892 13.7147 12.5492 13.6107C12.6132 13.5067 12.6512 13.3807 12.6632 13.2327H13.7432C13.7112 13.5407 13.6192 13.8087 13.4672 14.0367C13.3192 14.2607 13.1192 14.4347 12.8672 14.5587C12.6152 14.6787 12.3152 14.7387 11.9672 14.7387Z" fill="#4C689C"/>
</g>
</g>
<defs>
<clipPath id="clip0_0_136">
<rect width="16" height="16" fill="white"/>
</clipPath>
</defs>
</svg>
