<svg viewBox="0 0 16 16" fill="none" xmlns="http://www.w3.org/2000/svg">
<g id="Inner">
<g id="MingCute">
</g>
<path id="Vector" d="M1.48107 7.41427C1.72139 7.17396 2.09954 7.15547 2.36107 7.35881L2.42388 7.41427L5.25231 10.2427C5.51265 10.503 5.51265 10.9251 5.25231 11.1855C5.01198 11.4258 4.63383 11.4443 4.3723 11.2409L4.30949 11.1855L1.48107 8.35707C1.22072 8.09673 1.22072 7.6746 1.48107 7.41427ZM15.1853 3.64301C15.4256 3.88334 15.4441 4.26149 15.2408 4.52302L15.1853 4.58583L8.6328 11.1383C8.36686 11.4043 7.94749 11.4233 7.65963 11.1953L7.59567 11.1383L4.8144 8.35707C4.55405 8.09673 4.55405 7.6746 4.8144 7.41427C5.05473 7.17396 5.43288 7.15547 5.69441 7.35881L5.75721 7.41427L8.11427 9.77127L14.2425 3.64301C14.5029 3.38267 14.9249 3.38267 15.1853 3.64301ZM11.852 3.64301C12.0923 3.88334 12.1108 4.26149 11.9075 4.52302L11.852 4.58583L8.55213 7.88567C8.2918 8.146 7.86967 8.146 7.60933 7.88567C7.36903 7.64536 7.35054 7.26719 7.55388 7.00567L7.60933 6.94287L10.9091 3.64301C11.1695 3.38267 11.5916 3.38267 11.852 3.64301Z" fill="#61667C"/>
</g>
</svg>
