<svg viewBox="0 0 16 16" fill="none" xmlns="http://www.w3.org/2000/svg">
<g id="Inner">
<g id="MingCute">
</g>
<path id="Vector" d="M9.51947 1.33333C10.0934 1.33333 10.6029 1.70057 10.7844 2.24503L11.1472 3.33333H13.3333C13.7015 3.33333 14 3.63181 14 4C14 4.36818 13.7015 4.66665 13.3333 4.66667L13.3317 4.71417L12.7534 12.8091C12.6787 13.8558 11.8078 14.6667 10.7585 14.6667H5.24149C4.19221 14.6667 3.32133 13.8558 3.24657 12.8091L2.66836 4.71417C2.66722 4.69823 2.66665 4.68239 2.66664 4.66667C2.29846 4.66665 2 4.36818 2 4C2 3.63181 2.29848 3.33333 2.66667 3.33333H4.85283L5.21559 2.24503C5.39708 1.70057 5.9066 1.33333 6.48051 1.33333H9.51947ZM11.9983 4.66667H4.0017L4.57652 12.7141C4.60144 13.0631 4.89173 13.3333 5.24149 13.3333H10.7585C11.1083 13.3333 11.3985 13.0631 11.4235 12.7141L11.9983 4.66667ZM6.66667 6.66667C7.00857 6.66667 7.29034 6.92402 7.32885 7.25558L7.33333 7.33333V10.6667C7.33333 11.0349 7.03487 11.3333 6.66667 11.3333C6.32477 11.3333 6.04299 11.076 6.00448 10.7444L6 10.6667V7.33333C6 6.96513 6.29847 6.66667 6.66667 6.66667ZM9.33333 6.66667C9.70153 6.66667 10 6.96513 10 7.33333V10.6667C10 11.0349 9.70153 11.3333 9.33333 11.3333C8.96513 11.3333 8.66667 11.0349 8.66667 10.6667V7.33333C8.66667 6.96513 8.96513 6.66667 9.33333 6.66667ZM9.51947 2.66667H6.48051L6.25829 3.33333H9.74173L9.51947 2.66667Z" fill="#DC3545"/>
</g>
</svg>
