<svg viewBox="0 0 16 16" fill="none" xmlns="http://www.w3.org/2000/svg">
<g id="Inner">
<g id="MingCute">
</g>
<path id="Vector" d="M4.82511 11.3417C5.08546 11.0813 5.50757 11.0813 5.76792 11.3417C6.00824 11.582 6.02673 11.9601 5.82338 12.2217L5.76792 12.2845L4.23585 13.8165C3.93212 14.1203 3.45223 14.1406 3.12501 13.8773L3.05735 13.8165L2.23237 12.9916C1.97202 12.7312 1.97202 12.3091 2.23237 12.0487C2.47269 11.8084 2.85085 11.7899 3.11238 11.9933L3.17518 12.0487L3.6466 12.5202L4.82511 11.3417ZM13.3335 11.9999C13.7017 11.9999 14.0001 12.2985 14.0001 12.6666C14.0001 13.0348 13.7017 13.3333 13.3335 13.3333H7.33347C6.96527 13.3333 6.6668 13.0348 6.6668 12.6666C6.6668 12.2985 6.96527 11.9999 7.33347 11.9999H13.3335ZM5.76792 6.675C6.02827 6.93533 6.02827 7.35747 5.76792 7.6178L4.23585 9.14987C3.91042 9.47533 3.38278 9.47533 3.05735 9.14987L2.23237 8.32487C1.97202 8.06453 1.97202 7.64247 2.23237 7.38207C2.49272 7.12173 2.91483 7.12173 3.17518 7.38207L3.6466 7.85353L4.82511 6.675C5.08546 6.41465 5.50757 6.41465 5.76792 6.675ZM13.3335 7.33327C13.7017 7.33327 14.0001 7.6318 14.0001 7.99993C14.0001 8.34183 13.7428 8.62361 13.4112 8.66212L13.3335 8.6666H7.33347C6.96527 8.6666 6.6668 8.36813 6.6668 7.99993C6.6668 7.6581 6.92415 7.37627 7.25572 7.33775L7.33347 7.33327H13.3335ZM4.82511 2.00833C5.08546 1.74798 5.50757 1.74798 5.76792 2.00833C6.00824 2.24865 6.02673 2.62681 5.82338 2.88834L5.76792 2.95114L4.23585 4.48321C3.93212 4.78694 3.45223 4.80719 3.12501 4.54395L3.05735 4.48321L2.23237 3.65823C1.97202 3.39789 1.97202 2.97577 2.23237 2.71543C2.47269 2.4751 2.85085 2.45661 3.11238 2.65997L3.17518 2.71543L3.6466 3.18684L4.82511 2.00833ZM13.3335 2.66663C13.7017 2.66663 14.0001 2.96511 14.0001 3.3333C14.0001 3.67519 13.7428 3.95697 13.4112 3.99548L13.3335 3.99997H7.33347C6.96527 3.99997 6.6668 3.70149 6.6668 3.3333C6.6668 2.99141 6.92415 2.70963 7.25572 2.67112L7.33347 2.66663H13.3335Z" fill="#61667C"/>
</g>
</svg>
