<svg preserveAspectRatio="none" width="100%" height="100%" overflow="visible" style="display: block;" viewBox="0 0 18.4 18.4" fill="none" xmlns="http://www.w3.org/2000/svg">
<g id="Image" clip-path="url(#clip0_0_1787)">
<g id="Inner">
<g id="MingCute">
</g>
<path id="Vector" d="M15.3331 2.29999C16.1415 2.29999 16.8037 2.9255 16.8622 3.71889L16.8664 3.83333V14.5667C16.8664 15.375 16.241 16.0373 15.4475 16.0958L15.3331 16.1H3.06644C2.25809 16.1 1.59585 15.4745 1.53731 14.6811L1.53311 14.5667V3.83333C1.53311 3.02498 2.15861 2.36273 2.952 2.3042L3.06644 2.29999H15.3331ZM7.5733 9.23855L3.23638 13.5754C3.18464 13.6272 3.12736 13.67 3.06644 13.7039V14.5667H15.3331V13.7039C15.2721 13.67 15.2147 13.6273 15.1629 13.5754L12.9945 11.407L12.4524 11.9491L12.6111 12.1079C12.9105 12.4073 12.9105 12.8927 12.6111 13.1921C12.3117 13.4915 11.8263 13.4915 11.5269 13.1921L7.5733 9.23855ZM15.3331 3.83333H3.06644V11.5769L6.89566 7.74769C7.24496 7.3984 7.79679 7.37511 8.17313 7.67784L8.25095 7.74769L11.3681 10.8649L12.3168 9.91614C12.6661 9.56687 13.218 9.54359 13.5943 9.84628L13.6721 9.91614L15.3331 11.5772V3.83333Z" fill="var(--fill-0, #E4E9F1)"/>
</g>
<path id="Vector_2" d="M13.0332 6.51657C13.0332 5.88144 12.5183 5.36657 11.8832 5.36657C11.2481 5.36657 10.7332 5.88144 10.7332 6.51657C10.7332 7.1517 11.2481 7.66657 11.8832 7.66657C12.5183 7.66657 13.0332 7.1517 13.0332 6.51657Z" fill="var(--fill-0, #585A5D)"/>
</g>
<defs>
<clipPath id="clip0_0_1787">
<rect width="18.4" height="18.4" fill="white"/>
</clipPath>
</defs>
</svg>
