<svg preserveAspectRatio="none" width="100%" height="100%" overflow="visible" style="display: block;" viewBox="0 0 48.8196 48.7563" fill="none" xmlns="http://www.w3.org/2000/svg">
<g id="Logogram">
<path id="Vector" d="M25.826 0.000731264C26.4654 0.0737863 27.1069 0.123464 27.7419 0.219896C29.657 0.504811 31.5474 0.915384 33.3217 1.70219C34.6726 2.30051 36.0309 2.91635 37.2877 3.68416C39.6645 5.13751 41.765 7.00128 43.4915 9.18887C45.1078 11.2108 46.3953 13.4754 47.3065 15.899C48.4166 18.8577 48.8983 21.9282 48.8092 25.0813C48.7381 28.0508 48.1102 30.9804 46.9583 33.7178C46.0566 35.8561 44.8597 37.8571 43.4025 39.6623C42.0106 41.3953 40.3853 42.9265 38.573 44.2122C36.661 45.5709 34.5658 46.6507 32.3502 47.4193C27.2313 49.1902 21.6687 49.2023 16.5422 47.4537C14.9331 46.9056 13.3853 46.1917 11.9237 45.3234C10.3822 44.3985 8.90718 43.3626 7.6511 42.0636C6.69134 41.0708 5.72865 40.0671 4.88932 38.9749C4.11786 37.9696 3.47266 36.8599 2.83842 35.7605C1.95091 34.2183 1.33199 32.5541 0.861962 30.8417C0.454143 29.4035 0.189858 27.9283 0.0729858 26.4379C0.0583886 26.2334 0.0240853 26.0303 0 25.8272V22.9057C0.0189763 22.7866 0.0481704 22.6683 0.0561988 22.5485C0.219687 20.1691 0.759052 17.8766 1.60569 15.6484C3.13667 11.6756 5.67771 8.17195 8.97725 5.48425C12.4292 2.66536 16.5846 0.843354 20.9951 0.214778C21.606 0.124189 22.2227 0.0686718 22.8373 0L25.826 0.000731264ZM24.3926 1.74676C11.8536 1.74676 1.7429 11.8956 1.74801 24.5056C1.75312 36.8636 11.8668 46.8415 24.0773 46.9861C36.9855 47.1388 46.8861 36.8826 47.0576 24.5808C47.2342 11.889 36.7819 1.73726 24.3926 1.74676Z" fill="var(--fill-0, #002771)"/>
<path id="Vector_2" d="M3.49386 23.9372C3.4362 21.4351 3.92156 19.0023 4.85943 16.6704C5.50801 15.0721 6.36712 13.5677 7.41393 12.1972C8.64593 10.5696 10.0677 9.13699 11.6245 7.82784C12.1836 7.3581 12.7923 7.3895 13.1389 7.91331C13.3579 8.24717 13.3404 8.59199 13.0492 8.86302C12.2719 9.59357 11.4603 10.292 10.7049 11.0459C8.70067 13.0454 7.18694 15.3562 6.24762 18.046C5.40463 20.4569 5.13166 22.9312 5.2988 25.4706C5.42265 27.5348 5.85541 29.5687 6.58262 31.5042C7.10098 32.8659 7.78542 34.1584 8.62039 35.3521C9.52943 36.6412 10.6037 37.8052 11.8157 38.8141C12.9825 39.7846 14.2486 40.629 15.5927 41.3331C16.9612 42.0636 18.3859 42.6378 19.8952 42.9878C23.0402 43.7183 26.1851 43.6935 29.3104 42.8818C33.4409 41.7835 37.0894 39.3421 39.6824 35.9416C41.177 33.961 42.2765 31.7109 42.9208 29.3141C43.3332 27.7982 43.4222 26.2509 43.5507 24.7036C43.5616 24.5699 43.5704 24.4362 43.5944 24.3047C43.6981 23.7465 44.0389 23.458 44.5396 23.5011C45.0191 23.5405 45.3271 23.8744 45.3089 24.434C45.2833 25.1981 45.2235 25.9623 45.1439 26.7235C44.898 29.1567 44.2348 31.5292 43.1835 33.7368C42.473 35.2154 41.5707 36.5937 40.4998 37.8359C38.9365 39.6667 37.0768 41.1336 35.0135 42.342C32.1313 44.031 29.0199 45.034 25.6801 45.2642C23.3701 45.4212 21.098 45.1524 18.8625 44.5416C17.4502 44.1559 16.0766 43.6599 14.7994 42.9607C13.6973 42.358 12.6536 41.6399 11.6201 40.9218C10.3976 40.0722 9.36192 39.0092 8.39997 37.8783C7.37674 36.6768 6.50123 35.3568 5.79219 33.9465C5.07035 32.5278 4.51817 31.0288 4.14709 29.4806C3.71939 27.6667 3.45518 25.8279 3.49386 23.9372Z" fill="var(--fill-0, #002771)"/>
<path id="Vector_3" d="M8.73567 24.4625C8.68823 26.5811 9.17359 28.6858 10.0655 30.6962C10.9347 32.6546 12.1957 34.4139 13.7706 35.8656C15.3455 37.3172 17.2009 38.4303 19.2223 39.1363C19.4176 39.2036 19.6037 39.2952 19.7762 39.4088C20.1047 39.628 20.1988 40.002 20.0587 40.414C19.9426 40.7537 19.6522 40.9831 19.2697 40.9203C18.8397 40.8503 18.4194 40.7302 18.0173 40.5623C16.2517 39.8201 14.5986 38.8762 13.1119 37.6642C11.825 36.6297 10.7113 35.3961 9.81294 34.01C7.71022 30.7306 6.84607 27.1253 7.01248 23.2622C7.10736 21.0661 7.67592 18.9826 8.6043 16.9867C9.59726 14.8418 11.024 12.9263 12.7944 11.3615C13.9846 10.3048 15.3145 9.4171 16.7466 8.7235C18.9208 7.6642 21.2097 7.12358 23.616 6.98259C25.5728 6.86716 27.4653 7.1791 29.3359 7.69268C31.842 8.37565 34.1479 9.65031 36.0601 11.4097C37.7095 12.9238 39.0725 14.7232 40.0838 16.7216C40.4268 17.3907 40.1779 17.8093 39.6831 18.0665C39.2452 18.293 38.7752 18.0599 38.5255 17.5463C37.5497 15.5402 36.1805 13.8424 34.4902 12.3952C32.5042 10.6757 30.0989 9.51296 27.5186 9.0252C24.6451 8.47437 21.8045 8.64678 19.0442 9.65056C16.9465 10.4018 15.0352 11.5966 13.4401 13.1534C11.845 14.7103 10.6037 16.5928 9.80053 18.6729C9.07042 20.5144 8.70862 22.4814 8.73567 24.4625V24.4625Z" fill="var(--fill-0, #002771)"/>
<path id="Vector_4" d="M31.2562 33.086H29.1907V25.9996H21.2462V33.0816H19.1946V17.3455H21.2338V24.3143H29.1827V17.3258C29.8396 17.3258 30.4672 17.3207 31.0956 17.3338C31.1562 17.3338 31.2416 17.4412 31.2664 17.5143C31.2849 17.6219 31.2883 17.7315 31.2766 17.8401C31.2766 22.7626 31.2766 27.6848 31.2766 32.6067C31.2759 32.7609 31.2635 32.9143 31.2562 33.086Z" fill="var(--fill-0, #002771)"/>
</g>
</svg>
