<svg preserveAspectRatio="none" width="100%" height="100%" overflow="visible" style="display: block;" viewBox="0 0 32 32" fill="none" xmlns="http://www.w3.org/2000/svg">
<g id="Inner">
<g id="MingCute">
</g>
<path id="Vector" d="M16 21.3333C16.7364 21.3333 17.3333 21.9303 17.3333 22.6667C17.3333 23.4031 16.7364 24 16 24C15.2636 24 14.6667 23.4031 14.6667 22.6667C14.6667 21.9303 15.2636 21.3333 16 21.3333ZM16 8.66667C18.6693 8.66667 20.8333 10.8306 20.8333 13.5C20.8333 15.5363 19.5747 17.2752 17.7979 17.9876C17.6128 18.0617 17.4703 18.1651 17.3904 18.2548C17.3314 18.321 17.3227 18.406 17.3251 18.4935L17.3333 18.6667C17.3333 19.4031 16.7364 20 16 20C15.3162 20 14.7527 19.4853 14.6756 18.8222L14.6667 18.6667V18.3333C14.6667 16.7961 15.9057 15.8731 16.8056 15.5124C17.6056 15.1916 18.1667 14.4097 18.1667 13.5C18.1667 12.3034 17.1967 11.3333 16 11.3333C14.8033 11.3333 13.8333 12.3034 13.8333 13.5C13.8333 14.2364 13.2364 14.8333 12.5 14.8333C11.7636 14.8333 11.1667 14.2364 11.1667 13.5C11.1667 10.8306 13.3306 8.66667 16 8.66667Z" fill="var(--fill-0, white)"/>
</g>
</svg>
