<svg preserveAspectRatio="none" width="100%" height="100%" overflow="visible" style="display: block;" viewBox="0 0 121.702 37.2707" fill="none" xmlns="http://www.w3.org/2000/svg">
<g id="Logotext">
<path id="Vector" d="M5.03018 17.2131V27.8815H0.0223202C0.0170688 27.7606 0.00656664 27.645 0.00656664 27.5294C0.00656664 19.4722 0.00437616 11.4146 0 3.35661C0 3.04649 0.0754886 2.94596 0.397793 2.9499C1.81917 2.96655 3.24142 2.96655 4.66455 2.9499C4.94878 2.9499 5.03543 3.02021 5.03411 3.31457C5.02361 6.51767 5.02755 9.72143 5.02755 12.9245V13.3464C5.18115 13.3536 5.30916 13.3641 5.4365 13.3641C8.74947 13.3641 12.0664 13.3641 15.3761 13.372C15.6944 13.372 15.7771 13.2826 15.7765 12.9686C15.7653 9.77662 15.7693 6.58403 15.7699 3.39144C15.7699 2.95779 15.7699 2.95646 16.1979 2.95646C17.6191 2.95646 19.0409 2.96436 20.4647 2.9499C20.7581 2.9499 20.8296 3.03729 20.8296 3.32244C20.8226 11.4019 20.8207 19.4814 20.8237 27.5609V27.875H15.7693V17.6599C15.7693 17.2131 15.7693 17.2131 15.3275 17.2131H5.03018V17.2131Z" fill="var(--fill-0, #002771)"/>
<path id="Vector_2" d="M91.3045 11.0809C91.3131 10.9008 91.3223 10.797 91.3223 10.6932C91.3223 9.91722 91.3275 9.14059 91.3223 8.36462C91.3223 8.17211 91.3748 8.09261 91.5809 8.09327C93.0902 8.09984 94.6 8.09984 96.1102 8.09327C96.3072 8.09327 96.3964 8.15437 96.3794 8.35609C96.3715 8.44282 96.3794 8.53086 96.3794 8.61891V27.8815H91.3328V24.7731C90.8542 25.3105 90.421 25.8539 89.9287 26.3375C88.669 27.5754 87.1153 28.1365 85.3718 28.2035C84.0901 28.2593 82.8111 28.0418 81.6197 27.5655C80.1394 26.9742 78.9283 26.0123 77.9345 24.7652C76.1451 22.5207 75.6331 19.9194 75.7808 17.1342C75.8425 15.9621 76.0433 14.8162 76.4805 13.7176C76.9248 12.5881 77.5757 11.5515 78.3999 10.661C79.4377 9.53547 80.6744 8.71812 82.131 8.27396C84.013 7.70035 85.9245 7.63005 87.8065 8.25819C89.2283 8.73257 90.3265 9.67149 91.1811 10.8969L91.3045 11.0809ZM91.3492 18.0456C91.315 17.6218 91.2934 17.196 91.2448 16.7735C90.9987 14.6053 89.2709 12.7143 87.1349 12.3056C85.7486 12.0388 84.4344 12.2445 83.2522 13.0546C82.0431 13.8825 81.2711 15.0067 81.0204 16.4647C80.6213 18.7985 80.9265 20.926 82.8176 22.5917C83.6069 23.2955 84.6023 23.7251 85.6554 23.8164C86.8632 23.9314 87.9765 23.6239 88.9742 22.9373C89.6676 22.4731 90.2391 21.8486 90.6403 21.1166C91.1569 20.1612 91.3498 19.1271 91.3492 18.0462V18.0456Z" fill="var(--fill-0, #002771)"/>
<path id="Vector_3" d="M59.4752 17.985V27.8723H54.3715V27.5247C54.3715 19.4693 54.3696 11.4134 54.3656 3.35717C54.3656 3.0477 54.4405 2.94849 54.7595 2.94981C57.7134 2.96163 60.6627 2.94323 63.6146 2.96229C65.2636 2.9728 66.883 3.19094 68.4065 3.88215C69.2402 4.26731 69.9933 4.80732 70.6259 5.47352C71.3407 6.21072 71.923 7.04386 72.2407 8.02286C72.8315 9.84223 72.7002 11.6366 71.9604 13.3955C71.5666 14.3364 71.0224 15.1834 70.2688 15.8549C69.7464 16.3161 69.1636 16.7038 68.5365 17.0073C67.0884 17.7104 65.5229 17.9561 63.9251 17.9798C62.5696 18.0001 61.2134 17.9837 59.8553 17.9844L59.4752 17.985ZM59.4752 14.0559C59.5304 14.0808 59.5501 14.0973 59.5691 14.0973C61.1741 14.0841 62.7856 14.1413 64.382 14.0355C66.092 13.9218 67.2158 12.793 67.4416 11.1084C67.739 8.89345 66.5653 6.97815 64.1496 6.88551C62.634 6.82769 61.1143 6.86318 59.596 6.85858C59.5536 6.86653 59.5128 6.8814 59.4752 6.90259V14.0559Z" fill="var(--fill-0, #002771)"/>
<path id="Vector_4" d="M104.066 37.2445C104.998 35.0631 105.918 32.9185 106.831 30.7712C107.258 29.7673 107.676 28.7598 108.085 27.7488C108.135 27.6091 108.135 27.4562 108.085 27.3165C107.448 25.7034 106.796 24.0969 106.152 22.4865C105.687 21.3216 105.233 20.152 104.766 18.9877C104.004 17.0823 103.231 15.1834 102.469 13.2793C102.02 12.1551 101.587 11.0243 101.141 9.89882C100.913 9.32194 100.674 8.74965 100.419 8.1248C100.55 8.11166 100.642 8.09458 100.733 8.09458C102.417 8.09458 104.1 8.09457 105.787 8.08997C105.984 8.08997 106.089 8.13201 106.164 8.3449C106.655 9.75623 107.167 11.161 107.673 12.5664C108.26 14.1874 108.855 15.8057 109.435 17.4286C109.918 18.7735 110.39 20.1225 110.869 21.4681C110.935 21.6606 111.024 21.8472 111.132 22.1054C111.299 21.6889 111.444 21.3452 111.576 20.9963C112.044 19.748 112.503 18.4996 112.974 17.2558C113.6 15.6033 114.236 13.9548 114.865 12.3036C115.374 10.9685 115.877 9.63074 116.393 8.29562C116.426 8.20955 116.549 8.09851 116.632 8.09851C118.282 8.08799 119.933 8.09195 121.584 8.09458C121.625 8.10377 121.665 8.11834 121.702 8.13793C121.654 8.27329 121.614 8.40601 121.561 8.53216C121.048 9.74858 120.532 10.9641 120.015 12.1788C119.394 13.6322 118.762 15.0823 118.145 16.5376C117.182 18.8071 116.229 21.0804 115.267 23.3505C114.387 25.4299 113.505 27.5081 112.619 29.5853C111.832 31.4316 111.044 33.277 110.256 35.1215C109.994 35.7438 109.731 36.3699 109.477 36.9948C109.411 37.1544 109.345 37.2714 109.133 37.2707C107.492 37.2615 105.85 37.2655 104.209 37.2642C104.161 37.2607 104.114 37.2541 104.066 37.2445Z" fill="var(--fill-0, #002771)"/>
<path id="Vector_5" d="M48.8755 8.09392V8.52493C48.8755 9.61782 48.8755 10.7107 48.8755 11.8036C48.8755 12.2359 48.8755 12.2366 48.456 12.2366C47.2644 12.2366 46.0728 12.2366 44.8811 12.2366H44.4584C44.4512 12.3792 44.44 12.4942 44.44 12.6091C44.44 15.7025 44.4308 18.7959 44.4492 21.8893C44.452 22.2674 44.5334 22.6409 44.6881 22.9859C44.9186 23.4872 45.4293 23.6121 45.9314 23.6351C46.7933 23.6745 47.6565 23.6876 48.519 23.6817C48.8361 23.6817 48.9293 23.7757 48.9247 24.0904C48.9083 25.2376 48.9188 26.3854 48.9175 27.5333C48.9175 27.6404 48.907 27.7469 48.9017 27.8395C48.8624 27.8645 48.8446 27.8855 48.8269 27.8855C47.1786 27.8802 45.5244 28.0116 43.8847 27.7574C42.5896 27.5563 41.4303 27.0576 40.552 26.0405C39.9717 25.3683 39.6613 24.5641 39.5438 23.6968C39.4406 22.9954 39.3825 22.288 39.3698 21.5791C39.3514 18.6172 39.3619 15.6552 39.3619 12.6932V12.2333C38.7547 12.2333 38.1876 12.2175 37.6224 12.2399C37.3211 12.2517 37.2351 12.1597 37.2397 11.8562C37.2574 10.6216 37.2469 9.38699 37.2469 8.111H39.3514V3.24886H44.4289V8.09326L48.8755 8.09392Z" fill="var(--fill-0, #002771)"/>
<path id="Vector_6" d="M32.4098 27.8861H27.4209V8.1228H32.4098V27.8861Z" fill="var(--fill-0, #002771)"/>
<path id="Vector_7" d="M29.887 6.13261C28.1291 6.13261 26.8674 4.82311 26.853 3.04449C26.8399 1.35588 28.2807 -0.0436382 29.9507 0.001041C31.6455 0.0450631 32.9597 1.37164 32.9702 3.08916C32.9833 4.76266 31.5766 6.22262 29.887 6.13261Z" fill="var(--fill-0, #002771)"/>
</g>
</svg>
