<svg preserveAspectRatio="none" width="100%" height="100%" overflow="visible" style="display: block;" viewBox="0 0 43.9077 43.8508" fill="none" xmlns="http://www.w3.org/2000/svg">
<g id="Logogram">
<path id="Vector" d="M23.2276 0.000657689C23.8026 0.0663624 24.3796 0.111042 24.9507 0.197772C26.6731 0.45402 28.3733 0.823283 29.969 1.53092C31.1841 2.06904 32.4057 2.62293 33.536 3.31348C35.6737 4.62061 37.5628 6.29685 39.1156 8.26434C40.5693 10.0829 41.7273 12.1196 42.5468 14.2993C43.5452 16.9604 43.9784 19.7219 43.8983 22.5577C43.8344 25.2284 43.2697 27.8633 42.2336 30.3253C41.4227 32.2484 40.3462 34.0481 39.0355 35.6717C37.7838 37.2303 36.322 38.6075 34.692 39.7638C32.9723 40.9858 31.088 41.957 29.0953 42.6483C24.4915 44.2409 19.4886 44.2518 14.8778 42.6791C13.4306 42.1863 12.0386 41.5442 10.724 40.7632C9.33763 39.9314 8.011 38.9997 6.88129 37.8314C6.01809 36.9385 5.15227 36.0357 4.39738 35.0535C3.70354 34.1494 3.12326 33.1513 2.55283 32.1624C1.75462 30.7754 1.19797 29.2787 0.775236 27.7385C0.40845 26.445 0.170755 25.1183 0.0656424 23.7779C0.0525139 23.5939 0.021662 23.4112 0 23.2286V20.6011C0.017067 20.494 0.0433237 20.3875 0.0505444 20.2798C0.197583 18.1398 0.682681 16.0779 1.44413 14.0739C2.82107 10.5009 5.10645 7.34973 8.07401 4.93246C11.1787 2.39719 14.9159 0.7585 18.8827 0.193168C19.4321 0.111694 19.9868 0.0617624 20.5395 0L23.2276 0.000657689ZM21.9383 1.57101C10.661 1.57101 1.56754 10.6987 1.57213 22.04C1.57673 33.1546 10.6728 42.1285 21.6548 42.2586C33.2643 42.396 42.1687 33.1717 42.3229 22.1077C42.4818 10.6928 33.0811 1.56247 21.9383 1.57101Z" fill="var(--fill-0, #002771)"/>
<path id="Vector_2" d="M3.14233 21.5288C3.09047 19.2784 3.527 17.0904 4.3705 14.9931C4.95383 13.5556 5.7265 12.2026 6.66798 10.97C7.77603 9.50613 9.05474 8.21768 10.4549 7.04025C10.9577 6.61777 11.5052 6.64601 11.817 7.11712C12.0139 7.41739 11.9981 7.72751 11.7362 7.97128C11.0371 8.62833 10.3072 9.25645 9.6278 9.93453C7.82526 11.7329 6.46384 13.8111 5.61902 16.2304C4.86085 18.3986 4.61535 20.624 4.76567 22.9079C4.87705 24.7644 5.26627 26.5937 5.92032 28.3345C6.38652 29.5592 7.0021 30.7215 7.75305 31.7952C8.57064 32.9546 9.53684 34.0014 10.6269 34.9089C11.6763 35.7817 12.815 36.5411 14.0239 37.1744C15.2547 37.8314 16.536 38.3479 17.8935 38.6626C20.722 39.3196 23.5505 39.2973 26.3614 38.5673C30.0762 37.5795 33.3577 35.3837 35.6898 32.3254C37.034 30.5441 38.0229 28.5203 38.6023 26.3646C38.9732 25.0013 39.0533 23.6097 39.1688 22.218C39.1787 22.0978 39.1866 21.9775 39.2082 21.8593C39.3014 21.3573 39.608 21.0978 40.0583 21.1365C40.4896 21.172 40.7666 21.4723 40.7502 21.9756C40.7272 22.6628 40.6734 23.3501 40.6018 24.0348C40.3806 26.2231 39.7841 28.3569 38.8387 30.3424C38.1997 31.6723 37.3881 32.9119 36.425 34.0291C35.0189 35.6757 33.3464 36.995 31.4907 38.0818C28.8984 39.6009 26.1001 40.503 23.0963 40.71C21.0187 40.8512 18.9753 40.6094 16.9646 40.0601C15.6945 39.7132 14.4591 39.2671 13.3103 38.6383C12.3191 38.0962 11.3805 37.4504 10.451 36.8045C9.35144 36.0403 8.41998 35.0843 7.55481 34.0672C6.63454 32.9866 5.84711 31.7994 5.20941 30.531C4.5602 29.255 4.06358 27.9069 3.72983 26.5145C3.34517 24.883 3.10754 23.2292 3.14233 21.5288Z" fill="var(--fill-0, #002771)"/>
<path id="Vector_3" d="M7.85674 22.0012C7.81407 23.9066 8.25059 25.7996 9.05274 27.6078C9.8345 29.3691 10.9686 30.9514 12.385 32.257C13.8015 33.5625 15.4702 34.5637 17.2882 35.1986C17.4639 35.2592 17.6313 35.3415 17.7865 35.4437C18.0819 35.6408 18.1665 35.9772 18.0405 36.3478C17.9361 36.6533 17.6749 36.8597 17.3309 36.8032C16.9442 36.7402 16.5661 36.6321 16.2045 36.4812C14.6166 35.8136 13.1298 34.9647 11.7927 33.8747C10.6352 32.9442 9.63359 31.8347 8.82562 30.5881C6.93446 27.6387 6.15726 24.3961 6.30692 20.9217C6.39226 18.9466 6.90361 17.0727 7.73858 15.2776C8.63164 13.3485 9.91486 11.6257 11.5071 10.2184C12.5775 9.26796 13.7736 8.46961 15.0616 7.84579C17.0171 6.89307 19.0757 6.40685 21.2399 6.28004C22.9998 6.17623 24.7019 6.45678 26.3843 6.91869C28.6383 7.53294 30.7121 8.67935 32.4319 10.2617C33.9154 11.6235 35.1413 13.2418 36.0508 15.0391C36.3593 15.641 36.1355 16.0175 35.6904 16.2488C35.2966 16.4524 34.8738 16.2428 34.6493 15.7809C33.7717 13.9767 32.5402 12.4497 31.02 11.1481C29.2338 9.60155 27.0705 8.55582 24.7498 8.11714C22.1655 7.62173 19.6107 7.77679 17.1281 8.67958C15.2415 9.35527 13.5224 10.4298 12.0878 11.83C10.6532 13.2302 9.53681 14.9233 8.81446 16.7941C8.1578 18.4503 7.83241 20.2195 7.85674 22.0012V22.0012Z" fill="var(--fill-0, #002771)"/>
<path id="Vector_4" d="M28.1114 29.7571H26.2537V23.3837H19.1085V29.7531H17.2633V15.6003H19.0974V21.8679H26.2465V15.5826C26.8373 15.5826 27.4018 15.578 27.967 15.5898C28.0215 15.5898 28.0983 15.6864 28.1206 15.7521C28.1372 15.8489 28.1403 15.9475 28.1298 16.0451C28.1298 20.4723 28.1298 24.8993 28.1298 29.326C28.1291 29.4647 28.118 29.6027 28.1114 29.7571Z" fill="var(--fill-0, #002771)"/>
</g>
</svg>
