<svg preserveAspectRatio="none" width="100%" height="100%" overflow="visible" style="display: block;" viewBox="0 0 88 22" fill="none" xmlns="http://www.w3.org/2000/svg">
<g id="Trustpilot">
<path id="Vector" d="M23.1214 4.73988H32.0302V6.36485H28.5278V15.5017H26.6006V6.36485H23.1133V4.73926H23.1208L23.1214 4.73988ZM31.6499 7.70891H33.2967V9.21316H33.3275C33.3822 9.00045 33.4828 8.79516 33.6305 8.59744C33.9464 8.17366 34.3738 7.84511 34.8657 7.64821C35.1155 7.54969 35.3814 7.49813 35.6501 7.4962C35.8512 7.4962 35.9996 7.50369 36.0775 7.51181C36.1549 7.5193 36.2322 7.53436 36.3176 7.54185V9.19756C36.1915 9.17556 36.0647 9.15782 35.9374 9.14435C35.8109 9.12943 35.6837 9.12193 35.5565 9.12179C35.261 9.12179 34.9819 9.1825 34.7179 9.29704C34.4539 9.41027 34.2283 9.58483 34.0347 9.80572C33.8281 10.0527 33.6699 10.3361 33.5683 10.6411C33.452 10.9752 33.3973 11.3544 33.3973 11.7881V15.4942H31.6423V7.70891H31.6499ZM44.3879 15.5023H42.6637V14.4161H42.6323C42.4148 14.8115 42.0967 15.1232 41.6693 15.3585C41.2419 15.5937 40.8069 15.7151 40.3644 15.7151C39.3159 15.7151 38.5541 15.4648 38.089 14.9554C37.6226 14.4468 37.3894 13.6796 37.3894 12.654V7.70953H39.145V12.487C39.145 13.1709 39.277 13.6571 39.5491 13.938C39.8131 14.219 40.1934 14.3635 40.6749 14.3635C41.0476 14.3635 41.3506 14.3104 41.5989 14.1958C41.8478 14.082 42.0496 13.938 42.1973 13.7478C42.3526 13.5657 42.4613 13.338 42.5317 13.0795C42.6008 12.8211 42.6323 12.5402 42.6323 12.2367V7.7171H44.3879V15.5023ZM47.378 13.0038C47.4327 13.5044 47.6263 13.8548 47.9607 14.0594C48.302 14.2571 48.7062 14.3635 49.1801 14.3635C49.3435 14.3635 49.5296 14.3479 49.7395 14.3253C49.9488 14.3022 50.1506 14.249 50.3298 14.1815C50.5158 14.1126 50.6629 14.0062 50.7874 13.8698C50.9043 13.7322 50.9583 13.5582 50.9508 13.338C50.9497 13.2357 50.9271 13.1349 50.8844 13.0419C50.8416 12.949 50.7796 12.8661 50.7025 12.7986C50.5466 12.6547 50.353 12.5483 50.1116 12.4569C49.8427 12.3642 49.5676 12.2906 49.2882 12.2367C48.9777 12.176 48.6672 12.1071 48.3491 12.0389C48.0287 11.97 47.7123 11.8837 47.4012 11.7806C47.1095 11.6875 46.8344 11.5492 46.586 11.3707C46.3439 11.2025 46.1465 10.9783 46.0108 10.7174C45.8638 10.4515 45.7934 10.1249 45.7934 9.73003C45.7934 9.30453 45.9021 8.95535 46.112 8.66626C46.3238 8.37964 46.5972 8.14362 46.9122 7.97546C47.2508 7.79733 47.6148 7.67179 47.9915 7.60318C48.3875 7.53498 48.7684 7.49682 49.1254 7.49682C49.5371 7.49682 49.9331 7.54247 50.3065 7.62635C50.668 7.70335 51.0125 7.84476 51.3235 8.04366C51.6265 8.23389 51.8748 8.48421 52.0772 8.78829C52.279 9.09175 52.4034 9.4641 52.4575 9.89709H50.6246C50.5391 9.48727 50.3524 9.20629 50.05 9.06927C49.7471 8.92531 49.3976 8.85649 49.0091 8.85649C48.8847 8.85649 48.737 8.86405 48.5666 8.88715C48.4025 8.90888 48.2409 8.94703 48.0845 9.00107C47.9415 9.05346 47.8117 9.1363 47.7042 9.24383C47.652 9.29993 47.6115 9.36572 47.5848 9.43743C47.5582 9.50913 47.546 9.58544 47.549 9.66183C47.549 9.87454 47.6263 10.0417 47.774 10.1705C47.9217 10.2994 48.1159 10.4058 48.3567 10.4971C48.5974 10.581 48.8696 10.6567 49.1801 10.7174C49.4906 10.7781 49.8087 10.8463 50.1355 10.9151C50.4536 10.9833 50.7641 11.0747 51.0752 11.173C51.3858 11.2718 51.6573 11.4088 51.8987 11.5835C52.1394 11.758 52.3336 11.9707 52.4807 12.2292C52.6284 12.487 52.7064 12.8136 52.7064 13.1934C52.7064 13.6565 52.5976 14.0444 52.3795 14.3711C52.1627 14.6901 51.883 14.9554 51.541 15.1532C51.183 15.3585 50.7952 15.5071 50.3914 15.5937C49.9805 15.6837 49.5611 15.7294 49.1405 15.7301C48.6694 15.7354 48.1996 15.6792 47.7432 15.5631C47.3158 15.4492 46.943 15.2821 46.6325 15.0625C46.3256 14.8405 46.0733 14.5521 45.8946 14.219C45.716 13.8849 45.6224 13.4819 45.6073 13.0188H47.378V13.0038ZM53.1722 7.71015H54.5003V5.36997H56.2559V7.71015H57.8399V8.99289H56.2566V13.1559C56.2566 13.3373 56.2641 13.49 56.2798 13.6264C56.2949 13.756 56.3338 13.8698 56.3886 13.9606C56.448 14.0559 56.5382 14.1282 56.6444 14.1658C56.7613 14.2115 56.9084 14.2347 57.1108 14.2347C57.2346 14.2347 57.359 14.2347 57.4835 14.2265C57.608 14.219 57.7318 14.204 57.8562 14.1733V15.5023C57.662 15.5255 57.4678 15.5405 57.2893 15.5631C57.1011 15.5848 56.9117 15.5951 56.7223 15.5937C56.2566 15.5937 55.8838 15.5481 55.6034 15.4648C55.3244 15.3809 55.0987 15.2521 54.9435 15.085C54.78 14.9179 54.6794 14.7127 54.6172 14.4617C54.5567 14.1796 54.523 13.8924 54.5166 13.6039V9.00733H53.1885V7.7083H53.1728L53.1722 7.71015ZM59.0826 7.71015H60.7452V8.76512H60.7766C61.0242 8.30965 61.3662 7.99051 61.8087 7.79341C62.261 7.59321 62.7513 7.49208 63.2462 7.49682C63.8748 7.49682 64.4186 7.60318 64.885 7.82345C65.3507 8.03616 65.7392 8.33275 66.0497 8.71198C66.3602 9.09175 66.5858 9.5323 66.7411 10.0341C66.8993 10.5561 66.9779 11.0988 66.9743 11.6441C66.9743 12.1678 66.9046 12.6766 66.7644 13.1634C66.6357 13.633 66.4225 14.0754 66.1352 14.4693C65.8528 14.849 65.486 15.1585 65.0634 15.3734C64.6285 15.6012 64.1238 15.7151 63.5335 15.7151C63.2755 15.7149 63.0181 15.6918 62.7642 15.6462C62.5109 15.6009 62.2635 15.5272 62.0268 15.4267C61.7917 15.329 61.5718 15.1983 61.3738 15.0387C61.1783 14.8835 61.0081 14.6993 60.869 14.4924H60.8376V18.3813H59.0826V7.70891V7.71015ZM65.2187 11.6134C65.2191 11.2671 65.1721 10.9223 65.0792 10.5885C64.9931 10.2723 64.8509 9.97388 64.6593 9.70748C64.4775 9.45406 64.2415 9.24376 63.9685 9.09175C63.6752 8.93404 63.3464 8.85305 63.013 8.85649C62.2751 8.85649 61.7157 9.10681 61.343 9.60861C60.9702 10.1099 60.7835 10.7787 60.7835 11.6134C60.7835 12.0083 60.8306 12.3731 60.9312 12.7072C61.0318 13.0414 61.172 13.3305 61.3738 13.5732C61.5686 13.8167 61.8012 14.0062 62.0734 14.1427C62.3449 14.2872 62.6636 14.3554 63.0206 14.3554C63.4248 14.3554 63.7586 14.2722 64.0382 14.1126C64.3091 13.9575 64.5424 13.745 64.7215 13.49C64.9 13.2316 65.0326 12.9425 65.11 12.6165C65.1815 12.2869 65.2179 11.9507 65.2187 11.6134ZM68.3176 4.73988H70.0734V6.36547H68.3176V4.73988ZM68.3176 7.70953H70.0734V15.5023H68.3176V7.70953ZM71.6423 4.73988H73.3974V15.5023H71.6423V4.73988ZM78.7799 15.7151C78.1426 15.7151 77.5761 15.6087 77.079 15.4041C76.6033 15.2097 76.1722 14.9201 75.8133 14.5531C75.4641 14.1788 75.1966 13.7364 75.0282 13.2542C74.8433 12.7217 74.7518 12.1617 74.7566 11.5984C74.7566 11.0059 74.8495 10.4596 75.0282 9.95779C75.1973 9.47565 75.4641 9.03359 75.8133 8.65938C76.1543 8.2946 76.5819 8.01368 77.079 7.80839C77.5761 7.60318 78.1426 7.49682 78.7799 7.49682C79.4172 7.49682 79.9837 7.60318 80.4808 7.80839C80.9785 8.01368 81.3972 8.30271 81.7471 8.65938C82.0957 9.03345 82.3631 9.47558 82.5316 9.95779C82.7096 10.459 82.8031 11.0059 82.8031 11.5984C82.8031 12.1991 82.7096 12.7529 82.5316 13.2542C82.3631 13.7366 82.0964 14.1789 81.7471 14.5531C81.4048 14.9179 80.9785 15.1989 80.4808 15.4041C79.9837 15.6087 79.4172 15.7151 78.7799 15.7151ZM78.7799 14.3554C79.1683 14.3554 79.51 14.2722 79.7974 14.1126C80.0772 13.9575 80.3185 13.7419 80.5041 13.4819C80.6904 13.2241 80.8224 12.9275 80.9159 12.6009C81.0012 12.2743 81.0479 11.9401 81.0479 11.5984C81.0479 11.2643 81.0012 10.9377 80.9159 10.6036C80.8362 10.2866 80.6959 9.98763 80.5041 9.72253C80.3185 9.46493 80.0765 9.25215 79.7974 9.09993C79.51 8.94036 79.1683 8.85649 78.7799 8.85649C78.3914 8.85649 78.0498 8.94036 77.7624 9.09993C77.4846 9.25448 77.244 9.46685 77.0556 9.72253C76.8666 9.98921 76.727 10.2877 76.6445 10.6036C76.5579 10.9283 76.5139 11.2626 76.5118 11.5984C76.5118 11.9401 76.5586 12.2743 76.6445 12.6009C76.7298 12.9275 76.8693 13.2241 77.0556 13.4819C77.2419 13.7403 77.475 13.9531 77.7624 14.1126C78.0498 14.2797 78.3914 14.3554 78.7799 14.3554ZM83.316 7.71015H84.6443V5.36997H86.3994V7.71015H87.9834V8.99289H86.3994V13.1559C86.3994 13.3373 86.407 13.49 86.4221 13.6264C86.438 13.756 86.4771 13.8698 86.5314 13.9606C86.5913 14.056 86.6813 14.1284 86.7872 14.1658C86.9048 14.2115 87.0512 14.2347 87.254 14.2347C87.3778 14.2347 87.5022 14.2347 87.6266 14.2265C87.7511 14.219 87.8748 14.204 87.9993 14.1733V15.5023C87.8054 15.5255 87.6108 15.5405 87.4328 15.5631C87.2444 15.5848 87.0546 15.5951 86.8656 15.5937C86.3994 15.5937 86.0261 15.5481 85.7463 15.4648C85.4672 15.3809 85.2417 15.2521 85.0863 15.085C84.9241 14.9179 84.8223 14.7127 84.7605 14.4617C84.7 14.1796 84.6663 13.8924 84.6601 13.6039V9.00733H83.3318V7.7083H83.316V7.71015Z" fill="var(--fill-0, #9295A5)"/>
<g id="Star">
<path id="Vector_2" d="M21.0716 7.73935H13.0252L10.5399 0.25L8.04567 7.73997L0 7.73179L6.51639 12.3647L4.02348 19.8459L10.5399 15.2205L17.0488 19.8459L14.5634 12.3647L21.0716 7.73935Z" fill="var(--fill-0, #9295A5)"/>
<path id="Vector_3" d="M15.1214 14.0595L14.5619 12.3657L10.5391 15.2215L15.1214 14.0595Z" fill="var(--fill-0, #61667C)"/>
</g>
</g>
</svg>
