<svg preserveAspectRatio="none" width="100%" height="100%" overflow="visible" style="display: block;" viewBox="0 0 113.204 22" fill="none" xmlns="http://www.w3.org/2000/svg">
<g id="Group">
<path id="Vector" d="M0 0H22.7014V22H0V0Z" fill="var(--fill-0, #FF5A00)"/>
<path id="Vector_2" d="M63.572 4.35638C63.7795 4.37454 63.8173 4.61051 63.8361 4.75572C63.8928 5.49995 63.9116 6.22602 63.9116 6.97025C63.9494 7.67817 63.9494 8.36794 63.9494 9.07586C64.3645 8.76728 64.7608 8.44054 65.2514 8.25903C66.0251 7.93229 66.9687 7.93229 67.7235 8.31348C68.5349 8.71282 69.1011 9.47519 69.3841 10.292C69.6483 11.0726 69.7238 11.9075 69.6672 12.7244C69.5917 13.6864 69.3275 14.6485 68.7425 15.429C68.4028 15.8828 67.9499 16.2821 67.3838 16.4818C66.478 16.7904 65.4779 16.6815 64.6665 16.1914C64.4211 16.0462 64.1947 15.8283 63.9682 15.6468C63.8739 15.9372 63.7984 16.2095 63.7041 16.5C63.27 16.5 62.8549 16.5363 62.4208 16.4636C62.5907 15.8102 62.5907 15.1204 62.6096 14.4488C62.6473 12.0709 62.6096 9.69302 62.5907 7.33328C62.5341 6.40754 62.6096 5.48179 62.4397 4.5742C62.836 4.46529 63.1945 4.35638 63.572 4.35638ZM66.7422 9.25738C66.3648 9.18477 65.9874 9.18477 65.61 9.22107C64.9306 9.31183 64.3834 9.76563 63.9494 10.2376C63.9305 10.4009 63.9494 10.5462 63.9305 10.7095V14.4851C63.9116 14.6122 64.0249 14.7029 64.1192 14.7755C64.7797 15.3927 65.761 15.6831 66.6667 15.4653C67.1008 15.3564 67.4782 15.0841 67.6858 14.7029C68.0066 14.1765 68.1198 13.5594 68.1764 12.9603C68.2141 12.5066 68.2707 12.0346 68.2141 11.5808C68.1953 11.0544 68.082 10.4917 67.799 10.0379C67.5725 9.65671 67.1951 9.34813 66.7422 9.25738ZM72.3657 4.68312C72.6299 4.59236 72.9318 4.61051 73.196 4.71942C73.4413 4.86464 73.6111 5.08246 73.7244 5.33658C73.8942 5.88114 73.4413 6.4983 72.8563 6.5709C72.4034 6.62536 71.9128 6.37123 71.7807 5.93559C71.592 5.46364 71.875 4.88279 72.3657 4.68312ZM32.1146 5.68147C32.7562 5.26397 33.511 4.93724 34.3036 4.93724C35.115 4.91909 35.9453 4.97354 36.6813 5.31843C36.9832 5.44549 37.2851 5.59071 37.5493 5.80853C37.3606 6.11711 37.1153 6.38939 36.8889 6.66166C36.5869 6.4983 36.3039 6.31678 35.9831 6.20787C35.1905 5.93559 34.2847 5.88113 33.4921 6.18971C32.8317 6.44384 32.2844 6.93394 31.9448 7.53295C31.7183 7.95044 31.5107 8.40424 31.4164 8.87619C31.3409 9.32998 31.3032 9.80193 31.2843 10.2739C31.2654 10.891 31.2277 11.5264 31.2654 12.1435C31.3786 13.0148 31.6806 13.8861 32.3033 14.5396C32.8317 15.1386 33.6242 15.4834 34.4357 15.5561C34.8508 15.5742 35.2849 15.5742 35.7 15.4834C36.2095 15.3745 36.6435 15.1204 37.1153 14.9207C37.3795 15.1749 37.6248 15.4653 37.8513 15.7739C37.5116 15.9554 37.1531 16.1369 36.7756 16.2821C35.7944 16.6633 34.681 16.6815 33.6431 16.5726C32.8883 16.4273 32.1901 16.0462 31.6051 15.5742C30.9257 15.0115 30.4351 14.2673 30.152 13.4504C29.9445 12.9059 29.8501 12.325 29.7935 11.7623C29.7746 11.3267 29.718 10.9092 29.7746 10.4735C29.7935 9.65671 29.9256 8.85803 30.2653 8.09565C30.6427 7.15176 31.2465 6.26232 32.1146 5.68147Z" fill="var(--fill-0, #03102F)"/>
<path id="Vector_3" d="M6.73556 5.48147C6.82991 5.46332 6.94314 5.42702 7.03749 5.42702C7.52813 5.40887 8.01876 5.44517 8.5094 5.46332C8.58488 5.44517 8.62262 5.51777 8.64149 5.57223C9.37745 7.04253 10.1134 8.53098 10.8682 10.0013C11.0381 10.3099 11.1702 10.6184 11.3589 10.9089C11.5098 10.6729 11.6419 10.4188 11.774 10.1646C12.6232 8.58544 13.4158 7.00623 14.2461 5.42702C14.7933 5.44517 15.3406 5.39071 15.8878 5.48147C15.7935 5.79005 15.6048 6.04418 15.4727 6.33461C14.3782 8.34946 13.2648 10.3643 12.1703 12.3792C12.1326 12.4518 12.1137 12.5425 12.1137 12.6333C12.1137 14.0673 12.1137 15.5194 12.1137 16.9534C11.5853 16.9534 11.0569 16.9534 10.5286 16.9534C10.5286 15.5557 10.5286 14.1399 10.5286 12.7422C10.5286 12.597 10.5474 12.4336 10.4531 12.2884C9.43406 10.4551 8.43392 8.62174 7.4149 6.77025C7.18845 6.33461 6.94314 5.91711 6.73556 5.48147Z" fill="var(--fill-0, #FFFEFE)"/>
<path id="Vector_4" d="M94.5225 6.11706C94.9565 5.99 95.4095 5.88109 95.8623 5.80848C95.7869 6.60716 95.7302 7.40584 95.7114 8.22267C96.4096 8.24082 97.1267 8.24082 97.8249 8.25898C97.7117 8.56756 97.5796 8.87614 97.4286 9.16657C96.8247 9.16657 96.2398 9.16657 95.6359 9.16657C95.6359 9.91079 95.6359 10.655 95.6359 11.3992C95.6359 11.9801 95.6736 12.5791 95.6548 13.16C95.6736 13.8316 95.6359 14.5032 95.7114 15.1567C95.7302 15.4289 95.9944 15.6286 96.2398 15.7012C96.6738 15.792 97.1267 15.7557 97.5418 15.6649C97.6551 15.9009 97.7117 16.1732 97.6928 16.4273C97.3154 16.627 96.8625 16.6633 96.4285 16.6996C95.8246 16.7177 95.1453 16.627 94.7112 16.1732C94.3527 15.8464 94.3904 15.3382 94.3338 14.9025C94.2961 13.9586 94.3149 12.9966 94.2961 12.0527C94.2961 11.0907 94.2961 10.1105 94.2961 9.14841C93.9187 9.14841 93.5412 9.14841 93.1638 9.14841C93.145 8.83983 93.145 8.5131 93.1638 8.20452C93.5412 8.20452 93.8998 8.20452 94.2772 8.20452C94.4093 7.51475 94.4093 6.80683 94.5225 6.11706ZM42.9302 8.023C43.2887 8.04115 43.6473 8.023 43.9869 8.13191C44.7795 8.38604 45.44 8.91244 45.8551 9.60221C46.2137 10.2012 46.459 10.8728 46.4779 11.5626C46.5156 12.4883 46.5533 13.4504 46.2514 14.3398C45.9684 15.1748 45.3645 15.919 44.5342 16.3365C43.7227 16.7359 42.7415 16.8266 41.8734 16.5907C41.0809 16.391 40.4015 15.8827 39.9486 15.2293C39.4391 14.5214 39.2693 13.6682 39.2504 12.8151C39.2315 11.9982 39.2127 11.1633 39.4957 10.3827C39.7599 9.62036 40.2694 8.91244 40.9865 8.47679C41.3073 8.27712 41.6658 8.11376 42.0433 8.04115C42.3452 8.00485 42.6471 8.023 42.9302 8.023ZM42.2508 9.07581C41.7979 9.18472 41.3639 9.43884 41.1186 9.82003C40.7601 10.3827 40.7034 11.0544 40.6657 11.6897C40.628 12.1616 40.6657 12.6336 40.7034 13.1055C40.7789 13.6682 40.8922 14.2672 41.1752 14.7755C41.4771 15.32 42.1187 15.5923 42.7415 15.6286C43.3265 15.6649 43.9681 15.5197 44.3832 15.0841C44.7229 14.721 44.9116 14.2672 44.9871 13.7771C45.0814 13.1781 45.0626 12.5791 45.0437 11.9801C45.0248 11.3629 44.9682 10.7095 44.704 10.1286C44.5531 9.76557 44.27 9.45699 43.9115 9.27547C43.4208 8.98504 42.7981 8.94875 42.2508 9.07581ZM48.8367 8.29528C49.233 8.16821 49.6293 8.07745 50.0444 8.00485C50.2143 8.36788 50.3086 8.76723 50.3463 9.16657C50.6294 9.02135 50.837 8.80353 51.1012 8.64016C51.6862 8.22267 52.4032 7.96854 53.1392 8.00485C53.309 8.023 53.46 8.0593 53.611 8.13191C53.8563 8.25897 54.1205 8.38604 54.3281 8.56755C54.5356 8.76722 54.6866 9.02135 54.8376 9.27547C55.1772 9.13026 55.4226 8.87614 55.7245 8.67647C56.234 8.33158 56.819 8.0593 57.4606 8.00485C58.0456 7.95039 58.6306 8.13191 59.0646 8.5131C59.2533 8.69462 59.4609 8.87613 59.5552 9.11211C59.6496 9.34808 59.6873 9.60221 59.7062 9.85633C59.8005 11.1814 59.7439 12.5247 59.8005 13.8497C59.8005 14.7392 59.8005 15.6105 59.8005 16.4999C59.3476 16.4999 58.8947 16.5181 58.423 16.4999C58.423 15.1748 58.423 13.8497 58.423 12.5247C58.423 11.6715 58.4419 10.8184 58.3664 9.96525C58.3286 9.69297 58.1777 9.43884 57.9512 9.27547C57.687 9.11211 57.3474 9.13026 57.0454 9.14841C56.4982 9.20287 56.0642 9.5296 55.649 9.83818C55.4603 10.0015 55.2527 10.1468 55.064 10.3101C55.0074 10.3464 55.0263 10.4372 55.0263 10.4916C55.0263 12.4883 55.0263 14.485 55.0263 16.4817C54.5734 16.4817 54.1205 16.4817 53.6676 16.4817V11.8167C53.6676 11.4355 53.6676 11.0544 53.6487 10.6913C53.6298 10.3101 53.6676 9.89264 53.4789 9.54775C53.1958 9.16656 52.6486 9.09396 52.2145 9.20287C51.5352 9.36623 50.9313 9.76557 50.4218 10.2194C50.3463 10.2738 50.3463 10.3646 50.3463 10.4553C50.3463 12.4702 50.3463 14.485 50.3463 16.4999C49.9501 16.5181 49.5538 16.5181 49.1575 16.4999C49.1198 14.4487 49.1386 12.3794 49.082 10.3101C49.0631 9.83818 49.0631 9.36623 49.0065 8.91244C48.9499 8.69462 48.8744 8.49495 48.8367 8.29528ZM72.0476 8.22267C72.4816 8.16821 72.9156 8.09561 73.3497 8.00485C73.4063 9.16656 73.3874 10.3283 73.3874 11.49C73.3874 13.16 73.3874 14.8299 73.3874 16.4999C72.9345 16.5181 72.4816 16.5181 72.0287 16.4999C72.0098 14.1039 72.0287 11.726 72.0287 9.32993C72.0476 8.9669 72.0287 8.58571 72.0476 8.22267ZM89.5407 8.0593C90.4653 8.22267 91.2579 9.0395 91.2768 9.96525C91.3334 11.3448 91.2579 12.7243 91.2768 14.1039V14.5214C91.2768 14.7936 91.2956 15.0659 91.3711 15.3382C91.4277 15.6105 91.6919 15.7557 91.8995 15.919C91.7108 16.1732 91.541 16.4636 91.2956 16.6814C91.1447 16.8085 90.956 16.6633 90.8427 16.5907C90.5219 16.3547 90.2955 16.0098 90.1068 15.6649C89.8049 15.8283 89.5973 16.0643 89.2954 16.2276C88.8047 16.5362 88.2197 16.7177 87.6159 16.6996C87.0875 16.7177 86.5402 16.627 86.0685 16.391C85.2948 15.9916 84.8608 15.1204 84.8796 14.3035C84.8796 13.5048 85.2948 12.7243 85.9553 12.2524C86.7478 11.6715 87.7668 11.49 88.7292 11.4174C89.1633 11.3811 89.6162 11.3811 90.0691 11.3629C90.0879 10.9454 90.0502 10.528 89.9936 10.1105C89.937 9.76557 89.7671 9.40254 89.4274 9.22102C89.0312 9.02135 88.5594 9.0032 88.1065 9.07581C87.2762 9.16657 86.5025 9.51145 85.8232 9.9834C85.6345 9.72927 85.4457 9.4933 85.2948 9.22102C85.2193 9.09396 85.3325 8.98505 85.4458 8.93059C86.3515 8.44049 87.3517 8.023 88.4084 8.04115H88.8613C89.0878 8.023 89.3142 8.023 89.5407 8.0593ZM88.9746 12.2161C88.5594 12.2524 88.1254 12.2705 87.7291 12.3794C87.2385 12.5065 86.7856 12.8151 86.5214 13.2326C86.3704 13.4685 86.3704 13.759 86.3515 14.0313C86.3515 14.3217 86.3138 14.6484 86.427 14.9207C86.5402 15.2111 86.7478 15.4834 87.0498 15.5923C87.3894 15.7375 87.7857 15.7557 88.1631 15.7194C88.616 15.6649 89.0123 15.4289 89.352 15.1748C89.635 14.9388 89.9181 14.6484 89.937 14.2672C89.9936 13.5956 89.9747 12.924 89.9936 12.2524C89.6539 12.2524 89.3142 12.1798 88.9746 12.2161ZM103.769 8.07746C104.543 8.25898 105.241 8.71277 105.694 9.32993C106.071 9.83818 106.317 10.419 106.43 11.0362C106.524 11.6171 106.562 12.2161 106.524 12.7969C106.505 13.759 106.203 14.721 105.6 15.4834C105.109 16.1006 104.354 16.4636 103.58 16.6088C102.637 16.7722 101.618 16.6088 100.825 16.0643C100.127 15.5923 99.6931 14.8299 99.4478 14.0676C99.3157 13.6682 99.2968 13.2689 99.2591 12.8514C99.2402 12.1616 99.2402 11.4718 99.3723 10.8002C99.561 10.0379 99.9573 9.29363 100.561 8.74907C101.014 8.34973 101.58 8.09561 102.184 8.023C102.712 7.96854 103.241 7.9867 103.769 8.07746ZM102.278 9.05765C101.637 9.13026 101.127 9.62036 100.92 10.1831C100.655 10.7821 100.693 11.4355 100.674 12.0709C100.693 12.6699 100.693 13.2689 100.806 13.8679C100.882 14.2672 101.014 14.6666 101.297 14.9751C101.561 15.2837 101.958 15.4834 102.354 15.556C102.505 15.5923 102.675 15.6105 102.826 15.6105H102.977L103.128 15.5923C103.448 15.556 103.75 15.4652 104.033 15.32C104.373 15.1385 104.618 14.7936 104.75 14.4487C104.92 14.0313 104.939 13.5775 104.977 13.1418C104.996 12.6154 105.015 12.089 104.977 11.5626C104.939 11.018 104.864 10.4553 104.599 9.96525C104.354 9.60221 104.014 9.29363 103.599 9.11211C103.203 9.0032 102.731 9.0032 102.278 9.05765ZM108.845 8.31343C109.261 8.20452 109.657 8.07746 110.072 7.9867C110.298 8.38604 110.336 8.85798 110.355 9.29363C110.563 9.14841 110.732 8.94874 110.921 8.76722C111.506 8.20452 112.374 7.85963 113.204 8.00485V8.11376C113.016 8.49495 112.903 8.91244 112.733 9.31178C112.714 9.38439 112.601 9.36623 112.544 9.36623C112.185 9.36623 111.789 9.36623 111.468 9.54775C111.148 9.72927 110.865 9.96525 110.638 10.2557C110.412 10.528 110.449 10.9091 110.449 11.2359C110.43 11.7078 110.412 12.1798 110.43 12.6517C110.43 13.9223 110.43 15.2111 110.43 16.4817C109.978 16.4999 109.525 16.4999 109.072 16.4817C109.072 15.0659 109.072 13.6319 109.072 12.2161C109.072 11.254 109.072 10.2738 109.034 9.31178C108.996 8.98505 108.883 8.65831 108.845 8.31343ZM76.067 8.33158C76.4633 8.20452 76.8785 8.0593 77.2936 8.0593C77.4446 8.44049 77.5389 8.83983 77.5956 9.23917C77.9541 9.02135 78.256 8.73092 78.6334 8.53125C79.3505 8.13191 80.2186 7.84148 81.03 8.13191C81.5018 8.29528 81.9735 8.5494 82.2566 8.9669C82.4831 9.25732 82.5397 9.65666 82.5774 10.0197C82.6529 11.3085 82.634 12.5973 82.634 13.9042C82.634 14.7755 82.6529 15.6286 82.6529 16.4999C82.2 16.5181 81.7471 16.5181 81.2942 16.4999C81.2942 15.0841 81.2565 13.6501 81.2565 12.2342C81.2376 11.4355 81.2753 10.655 81.181 9.85633C81.0489 9.47515 80.6715 9.16657 80.2563 9.14841C79.9544 9.13026 79.6336 9.13026 79.3317 9.23917C78.6901 9.47515 78.1051 9.85633 77.5767 10.2738C77.5578 12.3431 77.5767 14.4306 77.5767 16.4999C77.1804 16.4999 76.7841 16.5181 76.3878 16.4999C76.3878 15.32 76.3501 14.1402 76.3501 12.9603C76.3312 11.7441 76.3501 10.5461 76.2746 9.32993C76.2557 8.98505 76.1425 8.65831 76.067 8.33158Z" fill="var(--fill-0, #03102F)"/>
</g>
</svg>
